<svg width="241" height="257" viewBox="0 0 241 257" fill="none" xmlns="http://www.w3.org/2000/svg">
<g clip-path="url(#clip0_582_1215)">
<path d="M89.8146 140.884C90.5254 140.425 91.171 139.872 91.7341 139.241C91.2058 136.611 90.8272 133.954 90.6 131.281C89.6968 131.487 88.7827 131.69 87.8812 131.866C88.3487 133.338 88.7154 134.84 88.979 136.362C89.2802 137.794 89.8304 139.391 89.8146 140.884Z" fill="white"/>
<path d="M63.9219 97.0585C66.3213 96.6627 68.7748 96.7377 71.1454 97.2796C73.9948 98.002 75.168 100.021 75.8728 102.594L78.2657 102.46C79.3653 102.403 81.0151 102.616 81.8751 101.78C82.5171 101.153 82.9629 100.117 83.4883 99.3751C84.0519 98.5883 84.638 97.8207 85.2614 97.0935C86.5466 95.5393 88.0428 94.1725 89.7066 93.0328C89.6896 93.0035 89.6691 92.9736 89.6528 92.9407C86.8096 86.8569 86.5134 80.1304 86.1672 73.5326C85.821 66.9348 85.5856 60.2419 85.881 53.6028C86.4037 41.8782 88.7143 30.0041 94.5691 19.7309C92.7225 19.5294 90.9264 19.0018 89.2643 18.1726C83.9135 31.0565 78.3578 43.9397 73.8848 57.158C69.5253 70.1771 66.1941 83.5182 63.9219 97.0585ZM71.8257 71.2752C71.5337 73.9956 70.7866 76.6763 70.2566 79.3525C69.7267 82.0287 69.2896 84.767 68.675 87.4573C68.6603 87.4966 68.6331 87.5299 68.5976 87.5522C68.5621 87.5744 68.5203 87.5844 68.4785 87.5805C68.4368 87.5765 68.3975 87.559 68.3668 87.5305C68.3361 87.502 68.3156 87.4642 68.3085 87.4229C68.5698 84.5732 68.9882 81.7401 69.5618 78.9365C70.044 76.3372 70.4732 73.6609 71.3754 71.1693C71.4018 71.127 71.4408 71.0941 71.4869 71.0752C71.533 71.0562 71.5839 71.0522 71.6324 71.0636C71.6809 71.0751 71.7246 71.1015 71.7573 71.1391C71.7901 71.1767 71.8102 71.2236 71.8149 71.2732L71.8257 71.2752ZM72.6798 67.8163C72.6605 67.8593 72.6268 67.8942 72.5845 67.9149C72.5421 67.9356 72.4939 67.9408 72.4481 67.9297C72.4023 67.9185 72.3619 67.8917 72.3338 67.8538C72.3058 67.816 72.2918 67.7695 72.2945 67.7225C72.3923 66.9537 72.4488 66.0058 72.8723 65.3311C72.9005 65.2932 72.9392 65.2645 72.9836 65.2484C73.028 65.2322 73.0761 65.2295 73.1221 65.2404C73.168 65.2513 73.2098 65.2754 73.2422 65.3097C73.2746 65.344 73.2963 65.3871 73.3045 65.4336C73.3473 66.2284 72.95 67.0833 72.669 67.8143L72.6798 67.8163Z" fill="white"/>
<path d="M50.3855 108.495C50.3627 106.044 51.0382 103.69 52.846 101.885C55.0107 99.724 58.1053 98.4409 61.0062 97.6588C61.3365 97.5672 61.6755 97.4884 62.0146 97.4095C64.2302 83.7325 67.5309 70.2536 71.8854 57.1004C73.9817 50.7244 76.3751 44.4558 78.8733 38.2252C77.8609 39.3203 76.8296 40.3969 75.8815 41.5077C73.923 43.8033 72.0511 46.1747 70.2476 48.5998C57.3418 65.9606 48.9623 86.262 45.8656 107.672C46.4549 107.711 47.0417 107.764 47.6262 107.83C48.5761 107.899 49.5083 108.124 50.3855 108.495Z" fill="white"/>
<path d="M92.5498 138.02C93.5657 135.941 93.5438 133.043 93.3913 130.628C92.6682 130.807 91.932 130.976 91.1994 131.146C91.7788 133.41 92.2296 135.705 92.5498 138.02Z" fill="white"/>
<path d="M87.0565 187.118C80.7353 179.031 75.5975 170.086 71.798 160.551C68.1087 151.308 65.4035 141.304 64.7957 131.332C63.1021 131.334 61.4896 130.86 60.2703 129.452C57.9677 126.787 56.2619 123.297 54.5184 120.252C54.0501 119.419 53.5818 118.586 53.1217 117.729C52.9546 117.763 52.7821 117.759 52.6167 117.717C51.0728 117.315 49.5389 116.859 48.0082 116.426C47.1793 116.19 46.2531 115.836 45.3672 115.586C44.4838 131.084 45.6993 146.506 49.8363 161.538C53.5991 175.208 59.5459 188.18 67.4469 199.952C75.2708 211.573 84.8946 222.155 97.6271 228.403C109.501 234.234 122.832 236.55 135.995 236.676C143.34 236.744 150.775 236.165 157.872 234.177C164.102 232.435 171.19 229.487 175.159 224.093C163.218 224.977 151.21 224.536 139.512 221.796C118.501 216.854 100.288 204.026 87.0565 187.118Z" fill="white"/>
<path d="M52.039 115.425C51.3656 113.927 50.8786 112.353 50.589 110.737C47.3292 109.312 43.5013 109.381 39.9963 109.7C37.6254 109.917 36.2591 111.211 35.7196 113.516C35.5077 114.383 35.4699 115.284 35.6086 116.165C35.7472 117.047 36.0595 117.892 36.5272 118.652C36.7271 119.024 37 119.351 37.3296 119.614L38.988 119.359C39.2455 119.156 39.3311 118.233 39.4033 117.944C39.5677 117.109 39.8263 116.294 40.1741 115.517C40.6992 114.496 41.6136 113.547 42.7803 113.308C44.2954 112.981 46.019 113.741 47.4479 114.141C48.9736 114.58 50.527 114.991 52.039 115.425Z" fill="white"/>
<path d="M84.8287 101.056C84.2175 101.938 83.7064 103.085 82.8854 103.772C81.9681 104.515 80.7404 104.358 79.626 104.376C78.1755 104.395 76.7261 104.408 75.2778 104.416C75.1418 104.448 75.0008 104.453 74.8629 104.431C74.725 104.408 74.5928 104.359 74.4741 104.285C74.3554 104.211 74.2524 104.115 74.171 104.001C74.0897 103.888 74.0317 103.759 74.0002 103.623C73.5083 101.57 72.8719 99.8746 70.6487 99.2944C68.9211 98.9101 67.1424 98.8094 65.3825 98.9963C61.9766 99.2634 58.4217 100.334 55.5835 102.306C48.8091 107.043 54.581 116.236 57.6669 121.473C58.6105 123.088 59.5932 124.686 60.615 126.268C61.4134 127.512 62.1679 128.853 63.7324 129.184C66.0542 129.674 69.4477 128.529 71.4984 127.526C74.6992 125.971 75.0608 122.876 75.2994 119.679C75.4309 117.925 75.5545 116.173 75.6854 114.422C75.7678 113.274 75.6289 111.831 76.0837 110.767C76.5106 109.772 77.3732 109.645 78.3494 109.509C79.3938 109.367 80.7693 108.988 81.8082 109.378C83.7927 110.119 84.1567 113.264 84.5991 115.02C85.342 117.951 86.1548 120.988 89.0087 122.55C91.6516 123.984 94.7389 123.826 97.6301 123.378C100.438 122.936 103.878 122.463 105.852 120.185C107.878 117.846 107.867 114.488 107.543 111.594C107.158 108.321 106.593 105.073 105.85 101.863C105.207 99.0366 104.3 95.8813 101.793 94.1372C97.0741 90.8491 91.0287 93.8672 87.6078 97.5324C86.5969 98.6376 85.668 99.8151 84.8287 101.056ZM71.5503 121.576C71.3048 122.102 70.994 122.596 70.6252 123.045C69.6155 124.95 67.7164 126.142 65.142 125.384C61.3203 124.254 58.9266 120.271 57.8049 116.688C56.7463 113.247 56.37 109.225 58.147 105.937C59.6263 103.209 62.8602 101.296 65.9906 102.01C69.4321 102.798 71.2317 106.466 72.12 109.558C73.2219 113.368 73.2427 117.941 71.5503 121.576ZM96.6832 97.2393C97.4563 97.2141 98.2272 97.3369 98.9543 97.6009C101.629 98.6005 103.049 101.318 104.021 103.821C105.978 108.853 106.808 115.153 102.42 119.228C98.611 122.754 92.8682 121.245 89.9873 117.295C86.9343 113.126 86.4373 105.773 88.9895 101.242C89.7629 99.9162 90.8961 98.8367 92.2576 98.1283C93.6192 97.4199 95.1536 97.1117 96.6832 97.2393Z" fill="#FFFB1C"/>
<path d="M89.1295 141.301C88.4264 139.884 88.3289 138.057 88.0363 136.519C87.6971 135.024 87.4613 133.507 87.3305 131.98C86.0267 132.234 84.7124 132.464 83.3969 132.66C84.3384 135.907 84.6555 139.446 84.9666 142.815C86.4306 142.552 87.8387 142.04 89.1295 141.301Z" fill="white"/>
<path d="M78.0432 133.215C76.8869 133.276 75.7344 133.297 74.5955 133.265C74.5018 135.109 74.9605 136.939 75.9127 138.52C76.865 140.102 78.2676 141.364 79.9409 142.144C79.3885 140.9 79.1939 139.436 78.9067 138.129C78.5208 136.51 78.2325 134.869 78.0432 133.215Z" fill="white"/>
<path d="M78.8206 133.165C79.2226 134.757 79.5199 136.371 79.8953 137.966C80.2456 139.456 80.8285 140.977 80.8903 142.514C81.8536 142.82 82.8625 142.958 83.8726 142.921C83.5173 139.529 82.8274 136.172 82.5111 132.79C81.28 132.953 80.0478 133.083 78.8206 133.165Z" fill="white"/>
<path d="M123.511 170.445C113.044 156.689 105.598 141.04 98.1207 125.538C96.2392 125.864 94.323 125.94 92.4216 125.764C89.6062 125.462 86.7883 124.268 85.0692 121.935C83.0893 119.26 82.8276 115.926 81.8166 112.852C81.4224 111.66 80.8365 111.32 79.5707 111.469C78.3863 111.623 78.058 111.342 77.915 112.535C77.6907 114.387 77.641 116.284 77.5081 118.146C77.283 121.23 77.3428 124.828 75.2272 127.307C73.317 129.563 70.1479 130.404 67.3561 131.02C67.0837 131.081 66.8054 131.134 66.532 131.18C68.0129 142.236 70.5233 152.908 75.0952 163.143C83.3213 181.562 96.7195 197.711 113.75 208.612C132.117 220.372 154.193 223.572 175.641 221.956L177.006 217.913C176.958 217.712 176.972 217.502 177.047 217.309C177.304 216.611 177.564 215.913 177.809 215.213C170.289 211.745 163.121 207.204 156.412 202.399C143.916 193.445 132.826 182.675 123.511 170.445ZM72.5408 132.582C72.5575 132.415 72.6147 132.255 72.7075 132.116C72.8003 131.977 72.9258 131.863 73.0731 131.783C73.2203 131.704 73.3848 131.662 73.5521 131.661C73.7193 131.66 73.8844 131.699 74.0326 131.777C77.3497 131.184 80.7351 130.947 84.0658 130.401C87.4587 129.842 90.8197 129.146 94.1488 128.315C94.419 128.271 94.6956 128.336 94.9182 128.495C95.1408 128.655 95.2914 128.895 95.3372 129.165C95.5942 132.524 95.8801 137.176 93.6983 140.012C91.6486 142.678 87.6751 144.719 84.3435 144.948C77.3743 145.427 71.8684 139.464 72.5408 132.582ZM111.544 202.37C108.653 201.371 105.988 199.173 103.692 197.214C101.364 195.211 99.1951 193.031 97.2045 190.693C92.987 185.786 89.533 180.402 86.217 174.857C86.1381 174.719 86.3613 174.582 86.4537 174.707C90.0894 179.715 93.6541 184.843 97.6947 189.538C99.7988 192.021 102.101 194.328 104.578 196.439C106.902 198.384 109.549 199.796 111.941 201.616C112.041 201.668 112.116 201.759 112.15 201.867C112.183 201.975 112.172 202.091 112.12 202.191C112.067 202.291 111.977 202.366 111.869 202.4C111.761 202.433 111.644 202.423 111.544 202.37ZM119.688 206.715C119.026 206.544 118.467 206.003 117.901 205.637C117.278 205.231 116.64 204.855 116.037 204.423C115.929 204.343 115.992 204.127 116.138 204.162C116.868 204.337 117.57 204.616 118.222 204.988C118.866 205.339 119.631 205.716 120.005 206.375C120.119 206.586 119.87 206.76 119.681 206.713L119.688 206.715Z" fill="white"/>
<path d="M179.53 213.656C172.671 210.042 165.965 206.367 159.564 201.935C153.37 197.64 147.5 192.894 142.004 187.737C130.894 177.322 121.414 165.296 113.879 152.063C108.9 143.282 104.577 134.135 99.8836 125.202C100.688 125.026 101.479 124.823 102.233 124.601C105.018 123.797 107.417 122.307 108.718 119.635C110.188 116.611 109.921 113.146 109.479 109.939C108.977 106.273 108.364 102.542 107.283 99.0003C106.356 95.9568 104.712 93.0974 101.743 91.6741C99.0619 90.3862 95.8946 90.4327 93.1054 91.3361C92.5819 91.5096 92.0694 91.7147 91.5707 91.9502C88.8419 86.074 88.6129 79.5278 88.2836 73.1606C87.9496 66.718 87.7298 60.263 88.0128 53.8117C88.5381 41.8116 90.9227 29.7797 97.1813 19.3801C97.5432 18.7759 97.2974 17.7085 96.4345 17.7163C93.9475 17.7676 91.4925 17.1487 89.3271 15.9244C89.2002 15.8375 89.0555 15.7801 88.9035 15.7564C88.7515 15.7328 88.5962 15.7434 88.4489 15.7876C88.3016 15.8318 88.166 15.9084 88.0522 16.0119C87.9383 16.1153 87.8491 16.2429 87.791 16.3853C85.4461 22.2117 83.0252 28.0053 80.6348 33.8158C78.6049 35.33 76.8699 37.4061 75.1982 39.2813C73.3786 41.3305 71.6212 43.4335 69.9258 45.5903C66.5032 49.987 63.3754 54.6056 60.5631 59.4156C54.9094 69.0243 50.4865 79.3059 47.3986 90.0183C45.7644 95.7802 44.5278 101.648 43.6976 107.579C42.4547 107.565 41.2125 107.606 39.987 107.7C37.8461 107.862 36.1096 108.498 34.905 110.348C33.883 111.947 33.4026 113.832 33.5348 115.725C33.6541 117.575 34.3514 119.606 35.7301 120.899C36.9347 122.024 38.858 122.452 40.152 121.185C41.6557 119.693 41.0666 115.37 43.6705 115.305C40.3882 143.817 48.3108 173.946 63.5366 198.075C71.2593 210.322 80.9397 221.866 93.7686 228.94C105.772 235.56 119.534 238.47 133.153 238.912C141.449 239.179 149.92 238.729 157.96 236.536C165.114 234.581 173.884 231.11 177.692 224.268C177.801 224.074 177.851 223.853 177.836 223.631C178.431 221.94 178.833 220.186 179.033 218.405L179.264 217.702C179.318 217.547 179.335 217.381 179.313 217.219C179.59 216.49 179.867 215.759 180.168 215.039C180.261 214.771 180.246 214.477 180.127 214.219C180.008 213.962 179.794 213.76 179.53 213.656ZM101.799 94.1271C104.306 95.8712 105.212 99.0264 105.855 101.853C106.599 105.063 107.164 108.311 107.548 111.583C107.873 114.478 107.88 117.835 105.858 120.175C103.884 122.453 100.444 122.926 97.6357 123.368C94.7589 123.818 91.6572 123.974 89.0143 122.54C86.1577 120.992 85.345 117.955 84.6047 115.01C84.1623 113.253 83.7983 110.109 81.8138 109.368C80.7677 108.977 79.3994 109.357 78.355 109.499C77.3789 109.635 76.5162 109.762 76.0893 110.757C75.6352 111.817 75.7741 113.26 75.691 114.412C75.5601 116.163 75.4365 117.915 75.305 119.669C75.0664 122.866 74.7048 125.961 71.504 127.515C69.4534 128.519 66.0562 129.664 63.738 129.174C62.1735 128.843 61.419 127.502 60.6206 126.257C59.606 124.677 58.6233 123.079 57.6725 121.463C54.5866 116.225 48.8147 107.033 55.5891 102.296C58.4093 100.321 61.9787 99.2526 65.3881 98.9862C67.1481 98.7993 68.9267 98.9 70.6544 99.2843C72.8775 99.8645 73.514 101.56 74.0058 103.613C74.0373 103.749 74.0953 103.878 74.1766 103.991C74.258 104.105 74.361 104.201 74.4797 104.275C74.5984 104.349 74.7306 104.398 74.8685 104.42C75.0064 104.443 75.1474 104.438 75.2834 104.405C76.7317 104.398 78.1811 104.385 79.6316 104.365C80.7533 104.35 81.9737 104.505 82.891 103.762C83.7294 103.082 84.2231 101.928 84.8343 101.046C85.675 99.8013 86.6057 98.6203 87.6191 97.5121C91.0343 93.857 97.0797 90.8389 101.799 94.1271ZM89.27 18.1625C90.9321 18.9917 92.7283 19.5193 94.5748 19.7207C88.7092 29.9919 86.3986 41.866 85.8753 53.5943C85.5765 60.2514 85.8183 66.8895 86.1614 73.524C86.5045 80.1585 86.8003 86.8476 89.647 92.9322C89.6633 92.965 89.6838 92.995 89.7008 93.0242C88.0371 94.164 86.5409 95.5308 85.2557 97.085C84.6303 97.823 84.0441 98.5906 83.4825 99.3665C82.9729 100.104 82.5107 101.148 81.8693 101.771C81.0094 102.607 79.3595 102.394 78.26 102.451L75.867 102.586C75.1622 100.012 73.9818 97.9921 71.1397 97.271C68.769 96.7292 66.3155 96.6541 63.9162 97.05C66.1933 83.504 69.5305 70.1577 73.8968 57.1341C78.3635 43.9296 83.9193 31.0464 89.27 18.1625ZM70.2497 48.589C72.0532 46.1639 73.9251 43.7925 75.8836 41.4968C76.8354 40.3868 77.8631 39.3095 78.8754 38.2144C76.3739 44.463 73.9805 50.7316 71.8876 57.0896C67.533 70.2428 64.2323 83.7217 62.0167 97.3987C61.6777 97.4776 61.3386 97.5564 61.0083 97.648C58.1074 98.4301 55.0308 99.7166 52.8482 101.874C51.0223 103.676 50.3649 106.034 50.3877 108.484C49.5128 108.11 48.5825 107.882 47.6339 107.809C47.0495 107.743 46.4626 107.69 45.8733 107.651C48.97 86.2451 57.3475 65.9474 70.2497 48.589ZM42.7776 113.323C41.6118 113.576 40.6955 114.495 40.1714 115.532C39.8236 116.309 39.565 117.123 39.4006 117.958C39.3471 118.247 39.2435 119.167 38.9853 119.373L37.3269 119.628C36.9968 119.361 36.7246 119.029 36.5272 118.652C36.0583 117.891 35.7456 117.043 35.6073 116.16C35.469 115.276 35.5079 114.374 35.7216 113.506C36.2611 111.2 37.6273 109.906 39.9983 109.69C43.5033 109.37 47.3312 109.301 50.5909 110.726C50.8806 112.342 51.3676 113.916 52.0409 115.414C50.5145 114.978 48.9756 114.569 47.4291 114.141C46.0163 113.756 44.2906 113.007 42.7776 113.323ZM157.885 234.165C150.804 236.155 143.354 236.731 136.009 236.663C122.86 236.54 109.529 234.224 97.6408 228.39C84.9083 222.143 75.2838 211.564 67.4606 199.94C59.5596 188.167 53.6127 175.195 49.85 161.526C45.7103 146.508 44.4928 131.097 45.3808 115.573C46.2812 115.826 47.193 116.178 48.0219 116.414C49.5562 116.847 51.09 117.303 52.6304 117.705C52.7957 117.746 52.9683 117.75 53.1354 117.716C53.581 118.571 54.0486 119.407 54.5321 120.239C56.2611 123.282 57.9649 126.783 60.284 129.439C61.5141 130.85 63.1158 131.322 64.8094 131.319C65.4171 141.292 68.1224 151.296 71.8116 160.539C75.6112 170.073 80.7489 179.019 87.0701 187.105C100.301 204.014 118.515 216.842 139.539 221.771C151.237 224.511 163.245 224.952 175.186 224.068C171.203 229.475 164.116 232.423 157.885 234.165ZM177.047 217.313C176.971 217.505 176.957 217.716 177.006 217.917L175.64 221.96C154.192 223.575 132.117 220.372 113.749 208.615C96.7188 197.714 83.3206 181.566 75.0944 163.146C70.5199 152.926 68.0129 142.236 66.5428 131.182C66.8161 131.136 67.0944 131.083 67.3669 131.022C70.156 130.42 73.3113 129.573 75.2379 127.309C77.3562 124.816 77.2938 121.232 77.5189 118.148C77.6518 116.286 77.7014 114.389 77.9258 112.537C78.0687 111.344 78.399 111.614 79.5815 111.471C80.8453 111.333 81.4324 111.666 81.8274 112.854C82.8476 115.918 83.1001 119.262 85.08 121.937C86.7991 124.27 89.6169 125.464 92.4324 125.766C94.3337 125.942 96.2499 125.866 98.1314 125.54C105.608 141.042 113.054 156.691 123.521 170.447C132.832 182.683 143.918 193.46 156.412 202.421C163.121 207.227 170.289 211.767 177.809 215.235C177.561 215.928 177.302 216.622 177.047 217.313Z" fill="#231F20"/>
<path d="M89.9996 117.308C92.8825 121.248 98.6252 122.757 102.432 119.241C106.817 115.184 105.99 108.867 104.033 103.835C103.062 101.331 101.645 98.6146 98.9666 97.6144C98.2395 97.3504 97.4686 97.2276 96.6955 97.2528C95.1645 97.1259 93.6289 97.4355 92.2668 98.1459C90.9047 98.8563 89.7719 99.9382 88.9998 101.266C86.4352 105.784 86.9322 113.137 89.9996 117.308Z" fill="#231F20"/>
<path d="M66.0066 102.025C62.8761 101.31 59.6422 103.223 58.163 105.951C56.3886 109.224 56.7649 113.247 57.8208 116.702C58.9245 120.282 61.3183 124.265 65.1579 125.399C67.7317 126.159 69.6308 124.968 70.6412 123.059C71.0099 122.61 71.3208 122.117 71.5663 121.59C73.2587 117.955 73.2378 113.383 72.152 109.586C71.2476 106.48 69.448 102.812 66.0066 102.025Z" fill="#231F20"/>
<path d="M93.7091 140.014C95.8909 137.178 95.6037 132.534 95.348 129.167C95.3021 128.897 95.1515 128.657 94.9289 128.497C94.7063 128.338 94.4298 128.273 94.1595 128.317C90.8193 129.141 87.4583 129.837 84.0766 130.403C80.7459 130.949 77.3605 131.186 74.0434 131.779C73.8951 131.702 73.7301 131.662 73.5628 131.663C73.3955 131.664 73.231 131.706 73.0838 131.785C72.9366 131.865 72.811 131.979 72.7183 132.118C72.6255 132.257 72.5682 132.417 72.5516 132.584C71.8791 139.466 77.3877 145.414 84.3651 144.952C87.6858 144.721 91.6601 142.677 93.7091 140.014ZM93.3908 130.632C93.5432 133.047 93.5651 135.944 92.5493 138.023C92.2337 135.71 91.7877 133.416 91.2132 131.152C91.9393 130.978 92.6683 130.807 93.3914 130.628L93.3908 130.632ZM90.6126 131.295C90.8397 133.967 91.2184 136.625 91.7466 139.254C91.1836 139.886 90.5379 140.438 89.8272 140.897C89.8423 139.408 89.2806 137.812 88.9951 136.376C88.7316 134.854 88.3648 133.352 87.8973 131.88C88.7992 131.682 89.7093 131.5 90.6126 131.295ZM83.3949 132.671C84.7104 132.475 86.0247 132.245 87.3286 131.991C87.4593 133.518 87.6951 135.035 88.0343 136.53C88.3256 138.075 88.4244 139.895 89.1275 141.312C87.8367 142.051 86.4286 142.563 84.9646 142.826C84.6555 139.446 84.3384 135.907 83.3969 132.66L83.3949 132.671ZM74.5936 133.276C75.7325 133.308 76.885 133.287 78.0413 133.225C78.2306 134.879 78.5189 136.521 78.9048 138.14C79.192 139.447 79.3866 140.911 79.939 142.155C78.2643 141.374 76.8609 140.11 75.9089 138.526C74.9569 136.942 74.4996 135.11 74.5956 133.265L74.5936 133.276ZM80.8885 142.525C80.8447 140.991 80.2437 139.466 79.8935 137.977C79.5181 136.382 79.2207 134.768 78.8187 133.176C80.0459 133.094 81.2782 132.964 82.5093 132.801C82.8256 136.182 83.4975 139.537 83.8708 142.932C82.8607 142.965 81.8525 142.823 80.8905 142.514L80.8885 142.525Z" fill="#231F20"/>
<path d="M71.3574 71.166C70.448 73.6562 70.0259 76.3338 69.5438 78.9332C68.9702 81.7367 68.5518 84.5699 68.2904 87.4196C68.2975 87.4609 68.318 87.4987 68.3488 87.5272C68.3795 87.5556 68.4188 87.5732 68.4605 87.5771C68.5022 87.581 68.5441 87.5711 68.5796 87.5488C68.6151 87.5266 68.6423 87.4932 68.657 87.454C69.2696 84.7744 69.7069 82.0549 70.2386 79.3492C70.7703 76.6434 71.5156 73.9922 71.8077 71.2719C71.807 71.2187 71.7885 71.1673 71.7552 71.1258C71.7219 71.0843 71.6757 71.0552 71.6239 71.043C71.5721 71.0308 71.5178 71.0363 71.4695 71.0586C71.4212 71.0809 71.3817 71.1187 71.3574 71.166Z" fill="#231F20"/>
<path d="M72.8615 65.329C72.4393 65.9966 72.3815 66.9517 72.2837 67.7204C72.281 67.7675 72.2949 67.814 72.323 67.8518C72.3511 67.8897 72.3915 67.9165 72.4373 67.9277C72.4831 67.9388 72.5313 67.9336 72.5737 67.9129C72.616 67.8922 72.6497 67.8573 72.669 67.8143C72.95 67.0833 73.3365 66.2264 73.2937 65.4316C73.2855 65.3851 73.2638 65.342 73.2314 65.3077C73.199 65.2734 73.1572 65.2492 73.1113 65.2383C73.0653 65.2274 73.0172 65.2302 72.9728 65.2463C72.9284 65.2625 72.8897 65.2912 72.8615 65.329Z" fill="#231F20"/>
<path d="M104.573 196.464C102.096 194.354 99.7939 192.046 97.6898 189.564C93.6492 184.869 90.0845 179.74 86.4488 174.732C86.3564 174.607 86.1332 174.744 86.2121 174.882C89.5301 180.416 92.9841 185.801 97.1996 190.718C99.1917 193.052 101.362 195.227 103.69 197.225C105.985 199.183 108.651 201.382 111.542 202.381C111.636 202.416 111.74 202.415 111.835 202.38C111.929 202.344 112.007 202.276 112.055 202.187C112.103 202.098 112.117 201.995 112.095 201.897C112.073 201.798 112.016 201.711 111.934 201.652C109.541 199.821 106.897 198.409 104.573 196.464Z" fill="#231F20"/>
<path d="M118.219 204.988C117.566 204.615 116.865 204.337 116.134 204.161C115.987 204.134 115.926 204.342 116.034 204.422C116.636 204.855 117.275 205.23 117.897 205.637C118.463 206.003 119.023 206.543 119.685 206.714C119.876 206.75 120.122 206.586 120.005 206.374C119.628 205.715 118.862 205.338 118.219 204.988Z" fill="#231F20"/>
</g>
<defs>
<clipPath id="clip0_582_1215">
<rect width="220" height="220" fill="white" transform="translate(24.1221) rotate(10.508)"/>
</clipPath>
</defs>
</svg>
