<svg width="203" height="203" viewBox="0 0 203 203" fill="none" xmlns="http://www.w3.org/2000/svg">
<path d="M131.744 123.83C129.487 130.228 122.423 133.98 115.372 131.95C110.371 130.495 106.961 126.936 105.086 122.571C104.476 125.689 103.499 128.723 102.177 131.612C100.401 135.38 97.906 138.765 94.8315 141.576C95.0226 141.703 95.1811 141.873 95.294 142.073C95.4069 142.273 95.471 142.497 95.481 142.726C95.9513 149.621 98.6343 156.104 99.3956 162.958C99.761 166.237 100.411 175.446 95.4066 175.92C89.7531 176.461 89.5467 167.38 89.2456 163.814C88.7516 157.944 88.4978 151.611 89.1779 145.666C84.3769 148.339 78.8689 149.57 73.2762 148.555C75.9254 156.093 82.0255 177.469 73.8108 176.843C68.9489 176.475 67.8561 168.588 66.9832 165.002C65.4375 158.658 64.7771 152.13 65.0209 145.605C65.0249 145.515 65.0362 145.426 65.0547 145.338C58.5317 141.278 53.6969 134.173 51.9477 126.662C51.028 128.727 49.6785 130.573 47.9892 132.075C49.9177 135.925 50.618 140.764 51.7312 144.837C53.0676 149.723 54.404 154.605 55.693 159.504C56.8208 163.771 57.943 168.038 59.0595 172.303C59.6414 174.512 60.2267 176.725 60.7951 178.941C61.306 180.934 61.6816 182.947 63.133 184.503C68.1877 189.917 76.6122 191.7 83.6461 192.623C91.9522 193.713 100.539 193.977 108.788 192.315C116.363 190.803 123.13 187.558 129.467 183.18C129.588 183.1 129.721 183.04 129.862 183.005C131.388 179.665 132.139 176.031 133.043 172.476C134.171 168.007 135.223 163.52 136.199 159.013C137.176 154.507 138.05 149.981 138.822 145.436C139.583 141.038 139.965 136.501 140.831 132.112C136.514 130.617 133.811 127.552 131.744 123.83ZM123.756 164.954C123.482 167.174 123.262 170.574 120.484 171.112C117.828 171.626 116.718 168.923 115.91 166.927C114.731 163.887 114.091 160.666 114.018 157.406C113.939 154.223 114.166 151.039 114.695 147.899C115.128 145.165 115.372 141.911 117.334 139.813C117.333 139.531 117.428 139.258 117.604 139.038C117.779 138.818 118.024 138.664 118.298 138.602C124.54 137.12 124.189 149.489 124.3 152.883C124.432 156.915 124.25 160.951 123.756 164.954Z" fill="white"/>
<path d="M120.02 143.453C119.859 142.718 119.425 142.071 118.806 141.643C117.676 145.365 117.348 149.425 117.161 153.262C116.945 157.714 117.3 162.319 119.235 166.399C119.912 167.844 119.99 167.414 120.21 165.865C120.379 164.636 120.514 163.401 120.626 162.167C120.849 159.697 120.964 157.213 120.941 154.723C120.917 152.233 120.788 149.763 120.545 147.297C120.42 146.045 120.359 144.698 120.02 143.453Z" fill="white"/>
<path d="M148.417 34.3544C143.829 31.986 139.508 29.2794 134.85 27.1174C137.922 31.9218 142.54 35.9141 147.919 37.7242C154.574 39.9572 161.05 37.7242 167.705 37.4975C166.013 35.931 163.983 34.7029 162.014 33.4679C159.172 31.6883 156.31 29.9324 153.323 28.42C150.214 26.7801 146.892 25.581 143.453 24.8574C140.882 24.36 138.358 24.3837 135.807 24.448C140.882 26.3765 145.883 28.8937 149.767 32.5917C150.734 33.495 149.51 34.9194 148.417 34.3544Z" fill="white"/>
<path d="M68.2384 95.4642C70.6575 94.4221 69.4158 91.5327 67.4095 90.8459C65.8633 90.3147 63.857 90.9914 63.0992 92.4902C62.9922 92.9283 63.0314 93.3893 63.2108 93.8029C64.0228 95.9175 66.2795 96.3066 68.2384 95.4642Z" fill="#BE1E2D"/>
<path d="M35.4709 87.8347C36.1475 88.464 36.6956 88.5959 37.6227 88.4166C38.3501 88.2745 39.1655 88.1155 39.5342 87.4185C40.1263 86.3054 39.5342 84.5562 38.6546 83.7781C36.2896 81.7007 34.598 85.5374 35.4709 87.8347Z" fill="#BE1E2D"/>
<path d="M51.0883 118.897C51.6466 117.561 54.0352 117.527 53.8931 119.256C54.0526 119.362 54.1886 119.501 54.2928 119.662C54.3969 119.823 54.467 120.004 54.4987 120.193C55.9637 127.663 57.7095 134.548 63.6337 139.857C68.8508 144.536 75.8983 146.519 82.736 144.783C89.682 143.02 95.3153 138.114 98.7663 131.926C100.588 128.621 101.912 125.066 102.694 121.374C103.061 119.445 103.311 117.496 103.442 115.537C103.323 113.838 103.391 112.13 103.645 110.446C103.902 108.754 106.842 109.16 106.639 110.852C105.787 117.865 107.993 125.884 115.186 128.675C122.291 131.422 129.829 126.689 129.541 118.863C129.487 117.449 131.652 116.789 132.292 118.119C133.818 121.299 135.509 124.794 138.422 126.943C140.909 128.711 143.917 129.595 146.965 129.453C154.097 129.166 158.11 123.14 160.759 117.209C163.763 110.486 164.67 102.962 160.539 96.5231C157.173 91.2823 151.326 87.608 145.125 87.0126C143.535 86.8569 142.685 84.7288 144.262 83.8322C153.079 78.8181 154.233 66.0122 149.54 57.7061C144.587 48.9365 133.466 46.7983 125.038 51.7785C124.829 51.9211 124.579 51.9926 124.326 51.9822C124.073 51.9718 123.831 51.8803 123.634 51.721C123.43 51.6433 123.245 51.5245 123.09 51.372C122.934 51.2195 122.812 51.0365 122.73 50.8346C122.145 49.2106 121.81 47.5663 121.221 45.966C118.674 52.6244 116.931 59.5737 115.392 66.6787C118.024 67.3926 119.702 70.3767 120.352 72.9244C120.81 74.7057 120.897 76.5624 120.606 78.3786C120.315 80.1948 119.652 81.9315 118.66 83.4804C114.837 89.2794 106.995 91.2113 100.871 88.0309C94.9769 84.969 91.4853 77.3464 94.6657 71.1515C96.4588 67.6565 100.028 66.2051 103.74 65.7009C106.643 65.3051 109.803 65.2002 112.58 66.1983C113.695 57.8627 115.884 49.7065 119.093 41.933C118.616 41.1988 118.116 40.4816 117.598 39.7812C115.087 36.3979 112.245 32.9469 108.764 30.5143C102.427 26.0889 94.1582 24.4919 86.6133 26.0246C79.0685 27.5572 72.3018 31.8744 67.3283 37.7445C64.5156 41.0346 62.3814 44.8486 61.0489 48.967C60.4355 50.8918 60.045 52.8807 59.885 54.8946C59.8343 56.1751 59.8614 57.4575 59.9662 58.7347C60.1272 59.4149 60.1978 60.1134 60.176 60.812C60.1724 60.9889 60.1324 61.1631 60.0585 61.3237C59.9846 61.4844 59.8783 61.6281 59.7463 61.7458C59.3673 62.3244 58.4944 62.5308 58.0749 61.7864C57.9606 61.6888 57.8614 61.5748 57.7806 61.4481C56.5558 59.5805 55.8318 57.4591 54.3329 55.7573C52.7921 54.0032 50.82 52.6819 48.6117 51.924C43.645 50.2053 38.7561 51.7921 34.669 54.7931C30.8222 57.6148 27.5877 61.6782 26.5998 66.425C25.7269 70.6237 26.9381 74.1694 29.0594 77.6137C29.3442 77.9006 29.5961 78.2183 29.8105 78.561C30.3756 79.4643 29.1982 80.7771 28.2745 80.0936C24.36 77.2009 19.9617 80.1376 17.6136 83.6495C16.3161 85.6272 15.4627 87.8627 15.1123 90.202C14.7618 92.5412 14.9226 94.9286 15.5836 97.1998C18.0738 106.135 26.7486 112.218 35.8836 112.354C37.3554 112.374 38.2147 114.661 36.6922 115.338C29.8241 118.383 29.4959 128.499 36.946 131.182C40.4071 132.43 44.4164 131.267 46.805 128.519C49.1937 125.772 49.735 122.155 51.0883 118.897ZM135.069 62.3616C137.404 61.4447 139.881 62.9604 140.581 65.2679C141.335 67.7479 139.958 70.4647 137.15 70.3801C135.08 70.3158 132.728 68.2858 133.05 66.0866C132.627 64.6386 133.513 62.9706 135.059 62.3616H135.069ZM133.618 97.8866C135.381 96.0088 138.737 95.9615 140.838 97.9204C143.883 100.769 143.633 106.592 139.877 108.747C135.868 111.055 131.101 107.813 130.742 103.415C130.546 101.216 131.808 99.0302 133.608 97.8967L133.618 97.8866ZM113.785 104.464C114.003 104.164 114.29 103.921 114.623 103.756C114.955 103.591 115.322 103.509 115.693 103.516C116.176 103.269 116.715 103.149 117.258 103.17C117.8 103.19 118.329 103.349 118.792 103.631C121.012 104.985 122.037 109.089 119.581 110.713C118.33 111.441 116.859 111.697 115.436 111.433C113.988 111.095 113.162 109.948 113 108.517C112.841 107.228 112.919 105.533 113.775 104.474L113.785 104.464ZM87.7332 54.7288C88.0398 54.2911 88.4352 53.9229 88.8936 53.6483C89.352 53.3737 89.8631 53.1987 90.3937 53.1349C90.9242 53.071 91.4623 53.1197 91.9727 53.2778C92.4832 53.4358 92.9547 53.6997 93.3563 54.0521C93.7448 54.4262 94.048 54.8796 94.2454 55.3815C94.4428 55.8833 94.5297 56.4219 94.5001 56.9603C94.4706 57.4988 94.3253 58.0246 94.0742 58.5019C93.8231 58.9791 93.4721 59.3966 93.045 59.726C92.5621 60.0651 92.0041 60.2819 91.419 60.358C90.8338 60.434 90.2389 60.3669 89.6854 60.1624C89.595 60.2164 89.4904 60.2418 89.3853 60.2351C89.2802 60.2285 89.1796 60.1902 89.0967 60.1252C88.1561 59.4858 87.5065 58.8497 87.2291 57.7061C87.1059 57.2011 87.0862 56.6764 87.1711 56.1636C87.256 55.6508 87.4437 55.1604 87.7231 54.722L87.7332 54.7288ZM78.6185 113.342C78.7154 113.24 78.8182 113.144 78.9264 113.054L78.9636 113.02C79.0815 112.925 79.2046 112.837 79.3324 112.756L79.4508 112.672C79.5157 112.634 79.5836 112.601 79.6538 112.574C80.8372 111.967 82.2089 111.84 83.4837 112.218C86.5118 113.203 87.8821 116.813 86.5287 119.631C85.0502 122.676 80.9936 123.448 78.6016 121.008C76.6122 118.992 76.6393 115.345 78.6185 113.342ZM61.9996 89.7937C62.6455 89.255 63.4151 88.8853 64.2393 88.7178C64.9992 88.3916 65.816 88.219 66.6429 88.2097C67.4697 88.2004 68.2902 88.3546 69.0572 88.6636C72.6199 90.1624 74.0138 95.2882 70.5357 97.7107C66.99 100.191 61.915 98.932 60.5617 94.7333C60.2467 93.8639 60.2162 92.9168 60.4747 92.0289C60.7331 91.141 61.2671 90.3582 61.9996 89.7937ZM40.8504 89.7192C39.2602 91.1368 33.5187 92.0571 33.698 88.7042C32.8555 87.2223 32.8454 85.1856 33.5018 83.4973C34.581 80.7297 38.0253 80.0226 40.238 81.968C42.2917 83.7815 43.08 87.7298 40.8504 89.7192Z" fill="#FFDADE"/>
<path d="M83.7781 118.934C84.2441 118.351 84.4601 117.608 84.379 116.866C84.2978 116.124 83.926 115.444 83.345 114.976C82.6422 114.489 81.7914 114.263 80.9395 114.336C80.1952 115.69 79.1666 117.124 80.1782 118.67C80.3579 118.977 80.6093 119.235 80.9108 119.422C81.2122 119.61 81.5548 119.722 81.9089 119.747C82.263 119.773 82.6181 119.713 82.9437 119.571C83.2693 119.43 83.5557 119.211 83.7781 118.934Z" fill="#BE1E2D"/>
<path d="M112.218 79.9956C113.024 79.1709 113.59 78.143 113.856 77.0216C114.357 74.9544 113.619 72.0616 111.599 71.297C113.342 73.5841 113.125 77.025 112.218 79.9956Z" fill="#E27683"/>
<path d="M138.284 106.051C140.171 104.937 140.337 102.258 139.265 100.532C139.002 100.104 138.65 99.7368 138.233 99.4565C136.081 99.4835 133.618 100.296 133.706 102.887C133.78 105.11 136.118 107.33 138.284 106.051Z" fill="#BE1E2D"/>
<path d="M98.2452 71.4052C94.8619 75.3739 97.1592 81.4977 100.844 84.3059C102.847 85.8259 105.333 86.5706 107.842 86.4027C110.351 86.2349 112.715 85.1658 114.499 83.3924C116.267 81.6002 117.302 79.2124 117.402 76.6968C117.513 74.6465 116.725 68.9388 113.717 69.2805C113.507 69.2853 113.298 69.2388 113.109 69.1451C112.921 69.0514 112.758 68.9132 112.635 68.7425C107.928 67.9069 101.375 67.7242 98.2452 71.4052ZM116.299 75.313C116.478 79.373 113.666 82.9119 109.918 84.1536C109.045 84.4446 108.06 83.5006 108.375 82.6108C109.052 80.6654 109.965 78.7944 110.117 76.7035C110.27 74.6126 109.491 73.0326 108.612 71.1718C108.273 70.4274 108.866 69.5512 109.627 69.7068C113.23 68.5937 116.143 71.8214 116.299 75.313Z" fill="#BE1E2D"/>
<path d="M116.573 108.906C116.979 108.869 117.798 108.828 118.116 108.541C118.826 107.901 118.149 106.281 117.54 105.753C117.369 105.621 117.164 105.54 116.948 105.519C116.788 105.66 116.58 105.735 116.366 105.729C115.839 105.699 115.581 106.162 115.48 106.72C115.482 106.741 115.482 106.761 115.48 106.781C115.403 107.305 115.424 107.839 115.544 108.355C115.71 108.943 116.001 108.96 116.573 108.906Z" fill="#BE1E2D"/>
<path d="M91.4413 57.5776C91.8846 57.131 91.8778 56.2581 91.3432 55.913C91.1991 55.8196 91.0348 55.7618 90.864 55.7444C90.6931 55.727 90.5206 55.7505 90.3606 55.813C90.2006 55.8755 90.0578 55.9751 89.9439 56.1037C89.83 56.2322 89.7484 56.3861 89.7057 56.5524C89.6333 56.8318 89.6003 57.1199 89.6076 57.4084C90.132 57.7941 90.9 58.1155 91.4413 57.5776Z" fill="#BE1E2D"/>
<path d="M136.9 67.3554C137.807 67.6295 138.026 66.8851 137.891 66.1273C137.732 65.2544 136.94 64.4661 136 64.7333C135.707 64.8331 135.464 65.043 135.323 65.3187L135.343 65.3525C135.749 66.107 135.956 67.0678 136.9 67.3554Z" fill="#BE1E2D"/>
<path d="M45.7359 133.56C46.125 137.451 47.6542 141.477 48.588 145.162C49.7925 149.899 50.9868 154.666 52.2387 159.406C53.4905 164.146 54.7389 168.879 55.9908 173.616C57.0058 177.456 57.5065 182.453 59.9763 185.674C64.4931 191.571 73.0495 194.044 80.0158 195.242C88.5723 196.71 97.4468 197.174 106.067 195.997C115.067 194.768 124.388 191.646 131.043 185.241C131.108 185.179 131.166 185.109 131.216 185.035C133.53 182.643 134.169 179.171 135.049 175.987C136.402 171.085 137.573 166.132 138.666 161.165C139.759 156.198 140.743 151.205 141.616 146.194C142.381 141.796 143.365 137.282 143.721 132.813C146.187 133.207 148.71 133.035 151.1 132.309C153.489 131.582 155.682 130.321 157.511 128.621C162.376 124.047 165.631 116.596 166.646 110.087C167.161 107.033 167.02 103.905 166.232 100.91C165.445 97.9152 164.029 95.1222 162.079 92.7169C158.821 88.7133 154.393 85.8291 149.415 84.4683C157.041 77.7558 157.376 64.4525 152.514 55.9637C147.101 46.5208 134.88 43.1477 125.552 48.3208C125.325 45.9897 124.368 43.6687 123.076 41.4661C124.6 38.0547 126.4 34.7732 128.458 31.6545C129.494 30.0981 130.61 28.5926 131.788 27.1343C134.883 32.8413 139.855 37.3039 145.862 39.7677C149.366 41.2084 153.15 41.8399 156.933 41.615C161.73 41.3579 166.467 40.3158 171.288 40.8132C172.482 40.9383 173.318 39.3549 172.672 38.4008C170.713 35.4573 167.999 33.4612 165.053 31.58C161.524 29.3234 157.948 27.0667 154.175 25.2397C149.371 22.9119 142.939 20.5808 137.231 21.315C138.148 20.459 139.089 19.6233 140.06 18.835C144.722 15.0322 149.902 12.7112 155.295 10.2312C157.139 9.38199 155.779 6.70577 153.972 7.09485C142.34 9.59852 132.187 19.7113 125.809 29.2489C123.931 32.0717 122.254 35.0236 120.792 38.0828C119.259 36.0528 117.595 34.1852 116.174 32.6018C111.406 27.2866 105.161 23.7273 98.0828 22.6041C84.1503 20.3981 70.4207 27.6283 62.6898 39.1215C60.3247 42.5863 58.6308 46.4642 57.696 50.5538C57.4862 51.5146 57.2866 52.5838 57.1445 53.6529C55.353 51.6515 53.1324 50.0808 50.6485 49.0583C44.5585 46.6629 38.1911 48.3242 33.1567 52.2218C28.6399 55.7134 24.7998 60.653 23.8423 66.4013C23.3213 69.5343 23.636 73.1274 25.0773 76.0709C22.7089 76.0404 20.1241 77.0859 18.385 78.4561C13.6044 82.1778 11.3375 88.4471 11.9262 94.4018C12.9818 105.012 21.4503 112.919 31.4345 115.033C26.1396 120.359 27.1952 130.208 34.6521 133.838C36.3948 134.654 38.3032 135.053 40.2267 135.005C42.1502 134.957 44.0362 134.462 45.7359 133.56ZM149.773 32.5917C145.889 28.8937 140.875 26.39 135.814 24.448C138.365 24.3837 140.889 24.36 143.46 24.8574C146.897 25.5816 150.216 26.7807 153.323 28.42C156.313 29.9357 159.172 31.6917 162.014 33.4713C163.99 34.7062 166 35.9344 167.705 37.5009C161.05 37.7343 154.574 39.9606 147.919 37.7276C142.54 35.9209 137.922 31.9251 134.85 27.1208C139.508 29.2861 143.829 31.9793 148.417 34.3578C149.51 34.9194 150.734 33.495 149.773 32.5917ZM138.791 145.426C138.006 149.975 137.132 154.506 136.169 159.017C135.206 163.528 134.154 168.015 133.012 172.479C132.109 176.035 131.358 179.669 129.832 183.008C129.691 183.043 129.557 183.103 129.436 183.184C123.099 187.545 116.333 190.79 108.757 192.319C100.509 193.97 91.9218 193.716 83.6157 192.627C76.5817 191.706 68.1572 189.92 63.1025 184.507C61.6511 182.95 61.2755 180.937 60.7647 178.945C60.1963 176.728 59.6109 174.516 59.029 172.306C57.9012 168.039 56.7791 163.773 55.6626 159.507C54.3735 154.608 53.0371 149.726 51.7007 144.841C50.5876 140.781 49.8872 135.929 47.9587 132.079C49.6481 130.576 50.9976 128.731 51.9172 126.665C53.6664 134.186 58.5012 141.268 65.0243 145.341C65.0057 145.429 64.9944 145.519 64.9904 145.609C64.7466 152.134 65.407 158.661 66.9528 165.005C67.8257 168.595 68.9185 176.481 73.7803 176.847C81.9951 177.473 75.8949 156.097 73.2458 148.559C78.852 149.574 84.36 148.342 89.1474 145.669C88.4708 151.614 88.7211 157.948 89.2151 163.818C89.5162 167.384 89.7226 176.465 95.3762 175.923C100.37 175.45 99.7305 166.24 99.3651 162.962C98.6039 156.107 95.9209 149.625 95.4506 142.729C95.4405 142.5 95.3764 142.276 95.2635 142.076C95.1507 141.876 94.9922 141.706 94.801 141.579C97.8868 138.77 100.393 135.384 102.177 131.612C103.507 128.721 104.491 125.683 105.107 122.561C106.981 126.926 110.391 130.485 115.392 131.94C122.439 133.987 129.504 130.248 131.761 123.847C133.828 127.569 136.531 130.614 140.818 132.109C139.935 136.49 139.552 141.014 138.791 145.426ZM67.9001 150.162C67.8663 149.239 68.0219 148.048 68.0118 146.928C68.8459 147.302 69.7011 147.628 70.5729 147.902C71.1244 152.531 72.6334 157.037 73.7364 161.571C74.3691 164.071 74.7209 166.633 74.7852 169.211C74.8021 170.158 75.0863 171.785 74.7852 172.675C73.8446 175.314 72.6097 173.014 72.0785 171.829C70.1669 167.577 69.2399 162.535 68.5835 157.958C68.2215 155.371 67.9934 152.766 67.9001 150.156V150.162ZM91.6071 144.13C91.9252 143.91 92.233 143.687 92.5409 143.453C92.93 148.004 94.1311 152.375 95.1765 156.811C95.8043 159.254 96.2388 161.743 96.4757 164.254C96.628 166.25 97.0205 169.887 95.8938 171.64C95.8149 172.626 95.2104 172.866 94.0803 172.361C93.6113 171.787 93.2802 171.113 93.1127 170.391C92.8014 169.17 92.5909 167.925 92.4834 166.67C92.1857 164.136 92.0199 161.595 91.9015 159.037C91.6883 154.094 92.0808 149.046 91.6071 144.13ZM36.946 131.182C29.5027 128.499 29.841 118.396 36.6922 115.338C38.2147 114.661 37.3689 112.374 35.8836 112.354C26.7486 112.218 18.0873 106.135 15.5836 97.1998C14.9226 94.9287 14.7618 92.5412 15.1123 90.202C15.4627 87.8627 16.3161 85.6273 17.6136 83.6495C19.9617 80.1376 24.36 77.2009 28.2644 80.1072C29.188 80.7839 30.3654 79.4779 29.8004 78.5745C29.586 78.2319 29.334 77.9141 29.0493 77.6272C26.9246 74.183 25.7167 70.6372 26.5896 66.4385C27.5775 61.7019 30.812 57.6419 34.6589 54.8066C38.7459 51.8056 43.6348 50.2188 48.6016 51.9376C50.8099 52.6954 52.782 54.0168 54.3228 55.7709C55.8216 57.4625 56.5456 59.594 57.7704 61.4616C57.8512 61.5884 57.9504 61.7024 58.0648 61.8C58.4843 62.5443 59.3572 62.3379 59.7361 61.7594C59.8681 61.6416 59.9744 61.498 60.0484 61.3373C60.1223 61.1766 60.1623 61.0024 60.1658 60.8256C60.1876 60.1269 60.1171 59.4284 59.956 58.7482C59.8512 57.471 59.8241 56.1886 59.8748 54.9081C60.0404 52.8936 60.4366 50.9047 61.0556 48.9805C62.3846 44.8579 64.5164 41.0392 67.3283 37.7445C72.2951 31.8744 79.0279 27.5606 86.6133 26.0246C94.1988 24.4886 102.427 26.0889 108.75 30.5143C112.232 32.9469 115.074 36.3878 117.584 39.7812C118.102 40.4816 118.599 41.1989 119.08 41.933C115.873 49.7124 113.687 57.8743 112.577 66.2152C109.799 65.2002 106.639 65.322 103.736 65.7179C100.015 66.222 96.4554 67.6734 94.6623 71.1684C91.4819 77.3633 94.9735 84.986 100.867 88.0479C106.991 91.2282 114.834 89.2963 118.657 83.4973C119.649 81.9484 120.311 80.2117 120.602 78.3955C120.893 76.5793 120.807 74.7226 120.349 72.9413C119.699 70.3936 118.021 67.4095 115.389 66.6957C116.928 59.5907 118.67 52.6413 121.218 45.9829C121.807 47.5832 122.142 49.2275 122.727 50.8515C122.809 51.0534 122.931 51.2364 123.086 51.3889C123.242 51.5414 123.427 51.6602 123.63 51.7379C123.827 51.8972 124.07 51.9888 124.323 51.9991C124.576 52.0095 124.825 51.9381 125.034 51.7955C133.462 46.8152 144.583 48.9535 149.537 57.7231C154.229 66.0291 153.076 78.8351 144.259 83.8492C142.682 84.7457 143.531 86.8739 145.121 87.0295C151.323 87.625 157.169 91.2993 160.536 96.54C164.667 102.968 163.76 110.503 160.756 117.226C158.107 123.157 154.094 129.182 146.962 129.47C143.914 129.612 140.906 128.728 138.419 126.96C135.506 124.811 133.814 121.316 132.288 118.136C131.649 116.806 129.484 117.459 129.538 118.88C129.825 126.692 122.27 131.426 115.182 128.692C107.989 125.901 105.783 117.882 106.636 110.868C106.839 109.177 103.899 108.764 103.642 110.462C103.388 112.147 103.32 113.855 103.439 115.554C103.308 117.513 103.058 119.462 102.691 121.391C101.908 125.082 100.585 128.638 98.7629 131.943C95.3119 138.128 89.6786 143.034 82.7326 144.8C75.8949 146.536 68.861 144.553 63.6303 139.874C57.7129 134.565 55.9671 127.694 54.4953 120.21C54.4636 120.021 54.3935 119.84 54.2894 119.679C54.1852 119.518 54.0492 119.379 53.8897 119.273C54.0318 117.544 51.6432 117.581 51.0849 118.914C49.7316 122.172 49.197 125.786 46.8118 128.536C44.4265 131.287 40.4071 132.43 36.946 131.182ZM113.721 69.267C116.715 68.9287 117.517 74.633 117.405 76.6833C117.305 79.1993 116.268 81.5872 114.499 83.3789C112.715 85.1523 110.351 86.2214 107.842 86.3892C105.333 86.5571 102.847 85.8124 100.844 84.2924C97.1592 81.4842 94.8653 75.3604 98.2452 71.3917C101.375 67.7107 107.938 67.8934 112.638 68.729C112.76 68.9022 112.922 69.043 113.111 69.1391C113.3 69.2353 113.509 69.2838 113.721 69.2805V69.267Z" fill="#231F20"/>
<path d="M33.495 83.5108C32.8386 85.2025 32.8488 87.2325 33.6912 88.7178C33.5119 92.0571 39.2534 91.1369 40.8436 89.7328C43.0732 87.7434 42.2849 83.795 40.2312 81.9951C38.0253 80.0362 34.581 80.7433 33.495 83.5108ZM39.5275 87.4186C39.1587 88.1156 38.3433 88.2746 37.6159 88.4167C36.6889 88.596 36.1238 88.464 35.4641 87.8347C34.5912 85.5374 36.2829 81.7008 38.6478 83.7747C39.541 84.5563 40.1263 86.3055 39.5342 87.4186H39.5275Z" fill="#231F20"/>
<path d="M70.5357 97.7107C74.0138 95.2882 72.6199 90.1625 69.0572 88.6636C68.2902 88.3547 67.4697 88.2004 66.6429 88.2097C65.8161 88.219 64.9992 88.3917 64.2394 88.7178C63.4152 88.8853 62.6455 89.255 61.9996 89.7937C61.2672 90.3582 60.7331 91.141 60.4747 92.0289C60.2162 92.9168 60.2467 93.8639 60.5617 94.7334C61.915 98.9321 66.99 100.191 70.5357 97.7107ZM63.0924 92.4902C63.8503 90.9914 65.8566 90.3147 67.4028 90.8459C69.4091 91.5226 70.6508 94.4221 68.2317 95.4642C66.2727 96.3066 64.0161 95.9175 63.2041 93.8029C63.0269 93.3885 62.9901 92.9275 63.0992 92.4902H63.0924Z" fill="#231F20"/>
<path d="M89.0865 60.1286C89.1694 60.1936 89.27 60.2319 89.3751 60.2385C89.4802 60.2452 89.5848 60.2198 89.6752 60.1658C90.2288 60.3703 90.8236 60.4374 91.4088 60.3614C91.994 60.2853 92.552 60.0685 93.0349 59.7294C93.4619 59.4 93.813 58.9825 94.0641 58.5053C94.3152 58.028 94.4604 57.5022 94.49 56.9637C94.5195 56.4253 94.4326 55.8868 94.2352 55.3849C94.0379 54.883 93.7346 54.4296 93.3462 54.0555C92.9445 53.7031 92.4731 53.4392 91.9626 53.2812C91.4521 53.1231 90.9141 53.0744 90.3835 53.1383C89.853 53.2021 89.3418 53.3771 88.8834 53.6517C88.425 53.9263 88.0296 54.2945 87.7231 54.7322C87.4415 55.1703 87.2517 55.6608 87.1651 56.1743C87.0784 56.6878 87.0968 57.2135 87.2189 57.7197C87.4964 58.87 88.146 59.4892 89.0865 60.1286ZM89.7057 56.5524C89.7484 56.3861 89.83 56.2323 89.9439 56.1037C90.0578 55.9751 90.2006 55.8755 90.3606 55.813C90.5206 55.7505 90.6931 55.727 90.864 55.7444C91.0348 55.7618 91.1991 55.8196 91.3432 55.913C91.8778 56.2513 91.8846 57.131 91.4413 57.5776C90.9 58.1155 90.132 57.7941 89.6076 57.4084C89.6003 57.1199 89.6333 56.8318 89.7057 56.5524Z" fill="#231F20"/>
<path d="M137.14 70.3733C139.948 70.4579 141.325 67.7411 140.571 65.2611C139.87 62.9537 137.394 61.4379 135.059 62.3548C133.513 62.9638 132.63 64.6318 133.029 66.0765C132.718 68.2858 135.069 70.3158 137.14 70.3733ZM136.01 64.7333C136.951 64.466 137.742 65.2543 137.901 66.1272C138.037 66.8851 137.817 67.6294 136.91 67.3554C136.003 67.0813 135.76 66.1069 135.343 65.3524L135.323 65.3186C135.466 65.041 135.713 64.8308 136.01 64.7333Z" fill="#231F20"/>
<path d="M139.867 108.761C143.623 106.602 143.883 100.779 140.828 97.934C138.727 95.975 135.371 96.0224 133.608 97.9001C131.808 99.0335 130.563 101.219 130.729 103.432C131.091 107.827 135.858 111.068 139.867 108.761ZM138.229 99.47C138.647 99.7503 138.999 100.117 139.261 100.546C140.334 102.271 140.168 104.944 138.28 106.064C136.115 107.343 133.777 105.124 133.699 102.904C133.615 100.299 136.078 99.4869 138.229 99.47Z" fill="#231F20"/>
<path d="M115.426 111.444C116.849 111.707 118.32 111.452 119.57 110.723C122.027 109.099 121.002 104.988 118.782 103.642C118.318 103.359 117.79 103.2 117.248 103.18C116.705 103.16 116.166 103.279 115.683 103.527C115.312 103.519 114.945 103.601 114.613 103.766C114.28 103.931 113.993 104.174 113.775 104.474C112.919 105.533 112.841 107.228 112.99 108.534C113.152 109.958 113.978 111.115 115.426 111.444ZM115.466 106.781C115.468 106.761 115.468 106.741 115.466 106.72C115.568 106.162 115.825 105.705 116.353 105.729C116.566 105.735 116.774 105.66 116.935 105.519C117.15 105.54 117.355 105.621 117.527 105.753C118.136 106.281 118.813 107.901 118.102 108.541C117.784 108.828 116.965 108.879 116.559 108.906C115.987 108.96 115.68 108.937 115.517 108.355C115.402 107.838 115.385 107.304 115.466 106.781Z" fill="#231F20"/>
<path d="M86.5254 119.641C87.8956 116.823 86.5254 113.213 83.4804 112.229C82.2055 111.85 80.8339 111.977 79.6504 112.584C79.5802 112.611 79.5123 112.644 79.4474 112.682L79.329 112.767C79.2013 112.848 79.0781 112.936 78.9602 113.03L78.923 113.064C78.8148 113.154 78.712 113.25 78.6151 113.352C76.6359 115.345 76.6088 118.992 78.5948 121.018C80.9902 123.458 85.0468 122.676 86.5254 119.641ZM80.9395 114.336C81.7914 114.263 82.6422 114.489 83.345 114.976C83.926 115.444 84.2978 116.124 84.379 116.866C84.4601 117.608 84.2441 118.351 83.7781 118.934C83.5557 119.211 83.2693 119.43 82.9437 119.571C82.6181 119.713 82.263 119.773 81.9089 119.747C81.5547 119.722 81.2122 119.61 80.9108 119.422C80.6093 119.235 80.3579 118.977 80.1782 118.67C79.17 117.124 80.185 115.69 80.9395 114.336Z" fill="#231F20"/>
<path d="M109.62 69.6967C108.859 69.541 108.267 70.4173 108.605 71.1616C109.485 73.0225 110.263 74.5856 110.111 76.6934C109.958 78.8012 109.058 80.6553 108.368 82.6007C108.053 83.4905 109.045 84.4345 109.911 84.1435C113.66 82.9018 116.471 79.3561 116.292 75.3028C116.143 71.8214 113.23 68.5937 109.62 69.6967ZM113.849 77.0114C113.583 78.1328 113.017 79.1607 112.212 79.9854C113.118 77.0148 113.318 73.5739 111.592 71.2868C113.619 72.065 114.357 74.9543 113.856 77.0216L113.849 77.0114Z" fill="#231F20"/>
<path d="M118.295 138.602C118.02 138.664 117.775 138.818 117.6 139.038C117.425 139.258 117.33 139.531 117.331 139.813C115.365 141.911 115.125 145.165 114.692 147.899C114.162 151.039 113.936 154.223 114.015 157.406C114.085 160.665 114.721 163.887 115.896 166.927C116.705 168.923 117.814 171.626 120.47 171.112C123.248 170.574 123.468 167.174 123.742 164.954C124.235 160.951 124.416 156.915 124.283 152.883C124.185 149.489 124.537 137.12 118.295 138.602ZM120.626 162.177C120.514 163.412 120.379 164.647 120.21 165.875C119.99 167.438 119.919 167.854 119.235 166.409C117.3 162.329 116.945 157.724 117.161 153.272C117.348 149.432 117.676 145.375 118.806 141.653C119.425 142.081 119.859 142.728 120.02 143.464C120.359 144.698 120.42 146.045 120.545 147.317C120.788 149.784 120.924 152.264 120.941 154.744C120.958 157.224 120.849 159.693 120.626 162.177Z" fill="#231F20"/>
</svg>
