<svg width="256" height="260" viewBox="0 0 256 260" fill="none" xmlns="http://www.w3.org/2000/svg">
<path d="M138.746 76.9477C136.251 77.2041 133.756 77.4731 131.265 77.7252C128.774 77.9773 126.275 78.2379 123.775 78.4435C122.481 78.5967 121.177 78.6527 119.874 78.611C120.54 81.5268 121.481 84.6059 123.119 86.8725C125.129 89.6574 131.348 90.7537 134.526 90.1293C137.823 89.4788 140.087 86.6638 141.5 83.7989C142.647 81.4143 143.433 78.8725 143.832 76.2567C142.249 76.8461 140.429 76.7725 138.746 76.9477Z" fill="#E27683"/>
<path d="M173.463 66.0777C173.182 66.0542 172.898 66.0559 172.617 66.0828C172.346 66.1098 172.034 66.1583 171.704 66.2238C171.583 66.3088 171.468 66.4014 171.359 66.5009C169.86 67.8726 169.795 73.0441 172.854 72.3019C174.447 71.9114 176.26 68.7774 175.033 67.4138C174.794 67.2349 174.541 67.0751 174.277 66.936C173.914 66.7528 173.627 66.4494 173.463 66.0777Z" fill="white"/>
<path d="M164.424 17.1901C163.659 19.6458 163.227 22.1932 163.141 24.7639C163.029 27.0793 163.53 29.5898 163.002 31.8484C162.969 32.027 162.892 32.1943 162.777 32.3347C162.662 32.4751 162.513 32.5841 162.344 32.6515C162.176 32.7188 161.993 32.7424 161.813 32.7199C161.632 32.6975 161.461 32.6297 161.314 32.523C159.385 33.3811 156.534 32.8271 154.566 32.7756C151.745 32.7024 148.916 32.6463 146.081 32.607C140.579 32.5248 135.078 32.5102 129.577 32.5633C124.076 32.5967 118.529 32.6304 113.018 32.9939C110.298 33.1839 107.591 33.45 104.889 33.8219C102.467 34.1412 99.9197 34.9099 97.4765 34.6455C97.2784 34.6259 97.0936 34.5371 96.9545 34.3947C96.6192 34.2772 96.339 34.0401 96.1677 33.7288C95.9963 33.4175 95.9459 33.0539 96.026 32.7077C96.8106 27.4262 94.5234 22.8827 91.6031 18.6223C90.3094 16.7175 88.8071 14.6108 86.4007 14.1345C84.2824 13.7242 81.9851 14.5041 80.2706 15.767C76.1632 18.7964 75.2825 24.2986 76.7199 28.9573C78.0148 33.1429 81.0625 36.0865 83.8788 39.2643C84.6756 40.165 84.0845 41.0699 83.2189 41.3841C83.3071 41.7371 83.2587 42.1105 83.0833 42.4294C82.9079 42.7483 82.6184 42.9891 82.273 43.1036C73.627 46.4482 71.6651 56.4594 71.1733 64.6674C70.5697 74.6787 70.3853 84.7341 70.1753 94.76C69.8055 112.607 69.7489 130.477 70.3438 148.322C70.8634 164.196 72.3244 181.109 81.8628 194.427C85.7933 199.905 90.9675 204.621 97.2086 207.321C104.918 210.659 113.491 210.061 121.673 209.614C130.632 209.137 139.596 208.718 148.556 208.27L161.759 207.602L175.748 206.764C179.133 206.862 183.973 205.868 186.118 202.359C189.512 196.812 190.222 193.207 191.486 187.444C194.336 174.495 193.866 161.262 193.748 148.077C193.624 134.655 193.437 121.234 193.296 107.816C193.151 94.3224 193.153 80.7644 192.373 67.2916C191.82 57.7781 191.464 37.4095 177.387 38.3497C176.118 38.4336 175.39 36.9485 175.849 36.019C175.641 35.7046 175.544 35.3299 175.574 34.9541C175.603 34.5783 175.756 34.223 176.01 33.9445C179.237 30.1165 181.312 26.2532 181.29 21.095C181.262 16.5462 179.611 11.5249 175.017 9.74591C169.486 7.63407 165.945 12.5346 164.424 17.1901ZM82.6956 31.1637C80.827 29.3597 80.1277 26.3934 80.0826 23.8505C80.0684 21.5105 80.8038 19.9531 82.5339 18.47C83.4095 17.7199 84.6281 19.092 83.8884 19.9216C81.5095 22.5935 84.2124 27.2911 84.6064 30.1619C84.752 31.1301 83.4319 31.8659 82.6956 31.1637ZM85.7222 68.9841C89.8244 65.7813 96.6402 66.9798 99.0936 71.7043C101.436 76.2052 100.749 84.3594 95.3744 86.402C94.619 86.6923 93.8108 86.8197 93.0028 86.7761C90.042 86.9929 86.7677 85.7645 84.9442 83.7148C81.599 79.8589 81.5443 72.2509 85.7349 68.9841L85.7222 68.9841ZM118.758 138.647C114.129 142.957 107.048 146.847 100.582 146.797C97.3449 146.702 94.1692 145.89 91.2834 144.421C88.5587 143.091 85.2557 141.305 83.3579 138.883C82.5988 137.914 83.5784 136.178 84.8332 136.547C88.3305 137.571 91.3253 140.163 94.7441 141.514C98.3878 143.014 102.471 143.044 106.136 141.597C111.992 139.382 121.053 134.055 120.653 126.673C120.205 118.428 104.869 124.606 100.802 125.947C97.3942 127.059 94.0241 128.167 90.4874 126.911C87.2432 125.754 84.5407 123.215 82.5731 120.438C82.0268 119.663 82.9326 118.32 83.8333 118.911C87.0022 120.902 90.3143 124.195 94.3492 123.849C96.6542 123.649 98.8902 122.552 101.078 121.828C103.265 121.104 105.479 120.477 107.71 119.913C112.932 118.587 120.386 116.938 123.625 122.698C126.764 128.189 122.835 134.873 118.771 138.647L118.758 138.647ZM129.83 93.687C126.373 93.0605 122.228 92.0405 120.103 89.0193C117.695 85.5767 116.63 80.9496 115.798 76.8966C115.335 74.6144 115.016 72.3058 114.77 69.9884C114.581 68.1827 114.055 65.8712 114.429 64.0663C114.553 63.4953 114.879 62.9883 115.348 62.6387C115.816 62.2891 116.395 62.1203 116.978 62.1635C119.155 61.1728 121.905 61.0461 124.243 60.7611C127.034 60.4226 129.831 60.1235 132.633 59.8639C135.226 59.6069 137.835 59.3372 140.441 59.2241C142.213 59.1456 144.021 59.287 145.362 60.5821C147.822 62.9623 147.947 68.1325 147.966 71.3103C148.029 75.359 147.327 79.3832 145.897 83.1713C143.277 90.1439 137.671 95.0993 129.843 93.6869L129.83 93.687ZM178.365 118.541C174.736 124.521 167.498 125.517 161.223 123.477C157.636 122.31 154.433 120.285 151.419 118.036C149.833 116.848 148.296 115.177 146.501 114.329C144.158 113.222 142.113 115.096 141.441 117.263C139.162 124.542 145.211 133.341 151.174 136.906C158.394 141.229 166.261 139.941 173.433 136.373C175.222 135.486 176.406 138.2 175 139.325C169.066 143.987 160.157 144.493 153.228 142.022C147.214 139.879 142.358 135.19 139.581 129.495C137.048 124.292 135.488 116.038 140.629 111.86C146.87 106.79 152.92 115.039 158.015 117.941C163.871 121.29 171.612 122.212 176.974 117.373C177.655 116.734 178.855 117.742 178.377 118.541L178.365 118.541ZM180.387 78.1295C178.641 81.081 175.796 83.6246 172.174 83.0499C169.12 82.5649 165.651 81.2064 164.017 78.4447C162.384 75.6829 162.328 71.2612 163.473 68.2668C164.498 65.5777 166.614 64.2277 169.076 63.4088C170.491 62.278 172.277 61.7136 174.085 61.8254C182.09 62.365 183.831 72.3282 180.4 78.1294L180.387 78.1295ZM175.001 27.3028C174.88 27.4405 174.722 27.5401 174.545 27.5897C174.369 27.6393 174.182 27.6367 174.007 27.5823C173.832 27.5278 173.677 27.4238 173.56 27.2829C173.443 27.142 173.369 26.9701 173.348 26.7881C173.023 22.8674 173.198 19.5277 171.588 15.7967C171.056 14.5728 172.715 13.9788 173.469 14.7951C176.442 17.9888 177.822 23.5704 175.035 27.3026L175.001 27.3028Z" fill="white"/>
<path d="M94.757 77.4053C95.2981 75.2227 93.2097 72.7598 90.9519 73.7806C90.4221 74.0185 89.9656 74.3939 89.6298 74.8678C89.7181 75.8416 90.0001 76.788 90.4592 77.6514C91.588 79.5742 94.1334 79.9311 94.757 77.4053Z" fill="white"/>
<path d="M93.0242 86.7763C93.8323 86.82 94.6405 86.6925 95.3959 86.4022C100.762 84.3596 101.449 76.2095 99.1152 71.7042C96.6618 66.9796 89.8457 65.7811 85.7435 68.984C81.5528 72.2509 81.6075 79.8591 84.9866 83.7148C86.789 85.7647 90.0549 86.9932 93.0242 86.7763ZM90.9522 73.7723C93.2099 72.7472 95.2984 75.2143 94.7573 77.3969C94.1337 79.9397 91.5882 79.5658 90.4594 77.643C90.0003 76.7796 89.7183 75.8332 89.63 74.8594C89.9658 74.3855 90.4223 74.0101 90.9522 73.7723Z" fill="#231F20"/>
<path d="M169.089 63.3959C166.627 64.2149 164.51 65.5649 163.486 68.2539C162.34 71.2611 162.375 75.6236 164.03 78.4318C165.685 81.24 169.133 82.5647 172.187 83.037C175.808 83.6117 178.653 81.0682 180.4 78.1166C183.831 72.3155 182.09 62.3522 174.098 61.7998C172.288 61.6917 170.502 62.2606 169.089 63.3959ZM175.037 67.4094C176.264 68.773 174.451 71.9069 172.858 72.2974C169.799 73.0396 169.869 67.8682 171.363 66.4966C171.472 66.3971 171.587 66.3045 171.708 66.2194C172.038 66.1539 172.351 66.1055 172.621 66.0785C172.903 66.0515 173.186 66.0498 173.468 66.0733C173.629 66.4482 173.917 66.7548 174.281 66.9401C174.539 67.0773 174.786 67.2343 175.02 67.4095L175.037 67.4094Z" fill="#231F20"/>
<path d="M145.935 83.1414C147.365 79.3533 148.067 75.3291 148.004 71.2805C147.963 68.1028 147.843 62.9325 145.4 60.5523C144.059 59.2571 142.251 59.1157 140.479 59.1942C137.873 59.3073 135.263 59.5771 132.671 59.834C129.871 60.1077 127.075 60.4068 124.281 60.7313C121.943 61.0163 119.206 61.1429 117.015 62.1337C116.433 62.0905 115.854 62.2592 115.386 62.6088C114.917 62.9584 114.591 63.4654 114.467 64.0365C114.093 65.8329 114.619 68.1444 114.808 69.9586C115.054 72.276 115.373 74.5845 115.835 76.8668C116.66 80.9198 117.725 85.547 120.141 88.9895C122.275 92.0275 126.411 93.0307 129.868 93.6571C137.671 95.0993 143.277 90.1439 145.935 83.1414ZM134.526 90.1293C131.348 90.7537 125.129 89.6574 123.119 86.8725C121.481 84.6059 120.548 81.5267 119.874 78.611C121.177 78.6528 122.481 78.5967 123.775 78.4435C126.275 78.2379 128.77 77.99 131.265 77.7252C133.76 77.4604 136.251 77.2041 138.746 76.9477C140.437 76.7724 142.249 76.8334 143.819 76.2568C143.42 78.8725 142.634 81.4144 141.487 83.799C140.087 86.6638 137.823 89.4788 134.526 90.1293Z" fill="#231F20"/>
<path d="M176.961 117.36C171.599 122.2 163.867 121.269 158.003 117.928C152.907 115.026 146.878 106.777 140.616 111.847C135.475 116.025 137.036 124.28 139.568 129.482C142.345 135.178 147.201 139.866 153.215 142.009C160.144 144.476 169.053 143.974 174.987 139.313C176.398 138.204 175.209 135.503 173.42 136.36C166.248 139.929 158.398 141.216 151.161 136.893C145.215 133.328 139.149 124.529 141.428 117.25C142.104 115.083 144.15 113.209 146.488 114.316C148.283 115.152 149.821 116.835 151.406 118.023C154.407 120.269 157.623 122.293 161.21 123.464C167.485 125.504 174.724 124.508 178.352 118.528C178.855 117.742 177.655 116.734 176.961 117.36Z" fill="#231F20"/>
<path d="M107.735 119.892C105.504 120.455 103.293 121.094 101.103 121.807C98.9154 122.518 96.6794 123.628 94.3744 123.828C90.3396 124.174 87.0274 120.881 83.8586 118.89C82.9453 118.312 82.0393 119.642 82.5984 120.417C84.5491 123.194 87.2854 125.733 90.5126 126.89C94.0493 128.138 97.4195 127.038 100.828 125.926C104.895 124.598 120.247 118.419 120.678 126.651C121.078 134.033 112.017 139.361 106.161 141.576C102.496 143.022 98.413 142.992 94.7694 141.492C91.3505 140.142 88.3558 137.549 84.8585 136.525C83.5868 136.156 82.6241 137.893 83.3832 138.862C85.2809 141.283 88.5839 143.062 91.3087 144.399C94.1945 145.869 97.3701 146.681 100.607 146.776C107.073 146.834 114.125 142.945 118.783 138.626C122.848 134.852 126.76 128.168 123.663 122.656C120.399 116.916 112.957 118.565 107.735 119.892Z" fill="#231F20"/>
<path d="M162.806 12.7779C161.355 15.7374 160.469 18.9415 160.193 22.2259C160.002 24.2202 159.797 26.663 160.048 28.8916C158.616 28.6125 156.979 28.7748 155.625 28.7449C152.64 28.6699 149.655 28.6147 146.67 28.5792C140.858 28.5101 135.045 28.5115 129.232 28.5835C123.731 28.6508 118.188 28.7606 112.69 29.2256C109.817 29.4421 106.962 29.8439 104.141 30.4284C102.566 30.7134 101.013 31.1074 99.4934 31.6076C100.305 25.9535 96.9148 20.198 93.7186 15.7954C90.305 11.1149 85.1693 9.26297 79.8509 12.177C68.9528 18.1419 71.8658 33.7599 80.4794 40.4274C73.7875 42.9266 69.9811 49.534 68.6259 56.3128C66.9092 64.9006 67.5024 74.0922 67.2676 82.8234C66.7374 102.123 66.4822 121.441 66.8872 140.748C67.2454 157.938 67.5257 176.225 76.0825 191.653C79.4751 197.742 84.1635 203.3 89.9592 207.217C95.3596 210.849 101.308 212.683 107.625 213.313C108.132 217.36 109.197 221.386 110.059 225.367C110.821 228.887 111.545 232.424 112.531 235.888C114.023 241.152 116.778 250.25 123.283 251.175C126.006 251.561 128.459 249.963 129.723 247.616C131.322 244.644 130.915 241.045 130.794 237.821C130.481 229.601 130.084 221.352 129.209 213.169C132.687 212.979 136.164 212.759 139.632 212.573C139.182 216.439 139.591 220.334 139.974 224.199C140.357 228.065 140.795 231.849 141.499 235.615C142.47 240.84 144.908 247.24 151.13 247.558C158.614 247.935 157.788 239.367 157.968 234.25C158.107 230.17 158.252 226.091 158.402 222.014C158.484 219.816 158.567 217.621 158.649 215.428C158.697 214.158 158.812 212.918 158.758 211.674L159.274 211.671C163.64 211.475 167.62 211.095 172.446 210.863C177.564 210.481 181.599 210.896 185.654 208.164C190.091 205.175 191.566 201.311 193.106 196.443C197.47 182.656 197.829 168.639 197.704 154.303C197.571 139.324 197.416 124.345 197.097 109.371C196.774 94.4951 196.971 79.5268 195.903 64.6804C195.395 57.5618 194.923 49.5119 191.439 43.1265C189.159 38.9384 185.084 35.5228 180.41 35.0942C183.904 31.493 185.112 25.515 185.003 20.7889C184.87 14.8655 182.001 8.72177 176.09 6.68841C170.357 4.70898 165.432 7.61211 162.806 12.7779ZM127.649 241.966C127.596 245.085 125.825 249.645 122.052 247.078C119.736 245.488 118.478 242.415 117.472 239.912C116.405 237.146 115.539 234.306 114.882 231.414C113.462 225.498 112.608 219.381 110.885 213.556L111.579 213.585C116.399 213.717 121.244 213.582 126.083 213.349C126.546 219.778 127.063 226.203 127.364 232.646C127.493 235.738 127.707 238.873 127.649 241.966ZM155.23 218.102C155.109 221.395 154.988 224.689 154.866 227.985L154.482 237.868C154.38 240.475 154.688 244.612 150.928 244.131C145.321 243.408 144.804 234.948 144.194 230.716C143.311 224.687 143.155 218.412 141.786 212.471L142.767 212.423L155.437 211.842C155.175 213.909 155.302 216.104 155.23 218.102ZM181.277 21.1205C181.308 26.2786 179.216 30.142 175.998 33.97C175.744 34.2485 175.59 34.6038 175.561 34.9795C175.532 35.3553 175.629 35.7301 175.837 36.0444C175.377 36.9739 176.114 38.459 177.374 38.3751C191.451 37.4434 191.808 57.8036 192.361 67.3171C193.141 80.7899 193.138 94.3479 193.284 107.842C193.424 121.259 193.612 134.68 193.735 148.102C193.858 161.274 194.319 174.508 191.473 187.47C190.209 193.232 189.499 196.838 186.105 202.385C183.96 205.897 179.104 206.887 175.735 206.789L161.746 207.627L148.543 208.296C139.584 208.744 130.619 209.153 121.66 209.64C113.479 210.087 104.905 210.676 97.196 207.346C90.9422 204.634 85.7807 199.93 81.85 194.427C72.3116 181.109 70.8633 164.196 70.3311 148.322C69.7362 130.477 69.7927 112.607 70.1626 94.76C70.3725 84.7341 70.5569 74.6788 71.1605 64.6674C71.6523 56.4594 73.6143 46.4568 82.2602 43.1036C82.6057 42.9891 82.8951 42.7483 83.0705 42.4295C83.2459 42.1106 83.2944 41.7372 83.2061 41.3841C84.0716 41.0573 84.6628 40.1523 83.8661 39.2643C81.0328 36.0867 77.9978 33.143 76.7072 28.9573C75.2699 24.3113 76.1505 18.8049 80.2578 15.7671C81.9723 14.4872 84.2527 13.7202 86.3879 14.1346C88.807 14.6108 90.3094 16.7174 91.6201 18.6349C94.5403 22.8953 96.8276 27.4388 96.0429 32.7203C95.9628 33.0665 96.0133 33.4301 96.1846 33.7414C96.356 34.0527 96.6361 34.2898 96.9714 34.4073C97.1105 34.5497 97.2954 34.6385 97.4934 34.658C99.9367 34.9225 102.484 34.1538 104.906 33.8344C107.608 33.4837 110.315 33.1965 113.034 33.0065C118.533 32.6261 124.077 32.6221 129.594 32.5759C135.112 32.5297 140.596 32.5388 146.098 32.6196C148.919 32.6561 151.747 32.7123 154.583 32.7882C156.551 32.8397 159.402 33.4106 161.331 32.5356C161.478 32.6423 161.649 32.7101 161.829 32.7325C162.01 32.755 162.193 32.7314 162.361 32.6641C162.53 32.5967 162.679 32.4877 162.794 32.3473C162.909 32.2069 162.986 32.0396 163.019 31.861C163.547 29.6024 163.045 27.0919 163.158 24.7765C163.244 22.2058 163.676 19.6583 164.441 17.2027C165.978 12.5386 169.503 7.64665 175.022 9.78395C179.598 11.5504 181.254 16.5717 181.277 21.1205Z" fill="#231F20"/>
<path d="M171.609 15.7966C173.232 19.5275 173.057 22.8674 173.369 26.7882C173.39 26.9702 173.464 27.1421 173.581 27.283C173.698 27.4239 173.853 27.5279 174.028 27.5824C174.203 27.6368 174.39 27.6394 174.567 27.5898C174.743 27.5402 174.901 27.4406 175.022 27.3029C177.809 23.5706 176.43 17.9847 173.478 14.795C172.724 13.9786 171.077 14.5726 171.609 15.7966Z" fill="#231F20"/>
<path d="M84.6192 30.1621C84.2251 27.2912 81.5222 22.5935 83.9011 19.9216C84.6407 19.0708 83.4223 17.7198 82.5466 18.4699C80.8164 19.953 80.0642 21.5106 80.0953 23.8505C80.1107 26.3894 80.8396 29.3472 82.7083 31.1639C83.432 31.8662 84.752 31.1304 84.6192 30.1621Z" fill="#231F20"/>
</svg>
