<svg width="95" height="95" viewBox="0 0 95 95" fill="none" xmlns="http://www.w3.org/2000/svg">
<path d="M32.1322 57.4972C31.9485 56.5725 31.4988 55.765 30.5092 55.3122C30.3953 55.2631 30.3011 55.1772 30.2417 55.0684C29.6887 54.9597 29.1154 55.0313 28.6061 55.2726C27.55 55.7745 26.7457 56.9019 26.7583 58.0878C26.7821 60.6924 32.1559 60.2411 32.1322 57.4972Z" fill="white"/>
<path d="M29.1428 61.275C29.1712 61.2264 29.2058 61.1817 29.2457 61.142H29.0352L29.1428 61.275Z" fill="white"/>
<path d="M18.5709 71.2041C20.292 70.775 19.6128 66.3781 17.822 67.6463C17.7561 67.6927 17.6758 67.714 17.5956 67.7065C17.2156 68.0928 17.005 68.7499 16.9749 69.2566C16.9211 70.1132 17.4689 71.4796 18.5709 71.2041Z" fill="white"/>
<path d="M55.3122 66.0392C58.3633 64.9958 59.3085 61.9495 59.6363 59.0377C59.299 59.0963 58.9538 59.1248 58.6229 59.1723C57.9643 59.2652 57.3051 59.3539 56.6453 59.4383C55.2267 59.6156 53.8043 59.7581 52.3783 59.8658C50.8947 59.9814 49.4079 60.0701 47.918 60.1033C46.8635 60.1286 45.6649 60.2474 44.593 60.0558C44.8973 61.27 45.5078 62.3859 46.3663 63.2969C48.5941 65.6196 52.1328 67.1333 55.3122 66.0392Z" fill="#E27683"/>
<path d="M44.2984 58.1621C44.2778 58.1696 44.2566 58.1754 44.2351 58.1795C44.2509 58.3046 44.2699 58.4297 44.2874 58.5532C44.3008 58.5028 44.3227 58.4552 44.3523 58.4123C44.3238 58.3471 44.3066 58.2774 44.3016 58.2064L44.2984 58.1621Z" fill="white"/>
<path d="M11.5266 78.0583C13.6863 79.5767 16.2165 80.3779 18.772 80.9368C24.5376 82.2121 30.4524 82.6805 36.347 82.3286C42.2306 81.9707 48.1048 81.3168 53.9758 80.7943C59.7597 80.2797 65.5975 79.8871 71.2816 78.6362C73.9432 78.052 76.581 77.254 78.9893 75.9588C81.3975 74.6637 83.4321 72.9157 85.3052 70.9777C88.836 67.3217 91.724 63.1592 91.7399 57.8962C91.7541 53.2412 89.6974 48.6622 85.9639 45.8248C84.1325 44.4398 82.0182 43.4757 79.7716 43.0011C77.525 42.5266 75.2014 42.5533 72.9663 43.0793C72.8105 43.1175 72.6469 43.1096 72.4956 43.0564C72.3442 43.0032 72.2116 42.9072 72.1139 42.7799C72.0162 42.6527 71.9577 42.4998 71.9454 42.3398C71.9331 42.1799 71.9676 42.0198 72.0448 41.8792C73.4698 38.9959 72.7605 34.9568 69.939 33.1708C67.3803 31.5447 63.5597 32.2208 61.9099 34.8159C61.5188 35.4287 60.382 35.2387 60.4453 34.4185C60.6919 31.3431 59.9556 28.2689 58.3426 25.6389C55.4926 21.0235 50 18.4411 44.6262 19.0792C41.697 19.4259 39.4281 20.9142 38.0902 23.5537C36.7048 26.2849 36.6272 29.4547 36.529 32.452C36.499 33.3466 35.2022 33.5445 34.96 32.6642C34.257 30.1071 32.0672 28.2641 29.5608 27.5579C26.8834 26.8027 23.9669 27.3901 21.4858 28.5538C19.0047 29.7176 16.7184 31.3389 15.8523 34.0306C14.204 39.1479 15.6132 45.2643 18.289 49.7673C18.6057 50.3072 18.202 50.8107 17.7285 50.901C17.643 51.2177 17.3216 51.452 16.9765 51.2177C14.7598 49.7103 11.943 49.5631 9.45404 50.4719C6.92071 51.3934 5.00804 53.4612 3.92504 55.8822C1.48354 61.3383 3.35504 67.4405 6.35388 72.2649C7.73138 74.4515 9.3923 76.5526 11.5266 78.0583ZM79.146 63.2367C80.142 62.3817 81.7364 62.7918 82.3396 63.9397C82.9255 65.056 82.3301 66.5538 81.1585 66.994C79.9155 67.469 78.443 66.5364 78.2958 65.2254C78.2277 64.6269 78.527 63.9667 78.9925 63.5423C78.995 63.4827 79.01 63.4244 79.0364 63.3709C79.0629 63.3175 79.1002 63.2701 79.146 63.232V63.2367ZM71.3386 51.2319C72.6053 50.2423 74.3232 50.2708 75.7387 51.1749C78.4605 52.9166 79.8142 57.7711 77.5485 60.3582C75.126 63.1259 69.5083 62.3453 68.259 58.7955C67.2441 55.9107 68.6438 52.4162 71.3386 51.2272V51.2319ZM43.3595 52.0236C43.4025 51.9914 43.45 51.9658 43.5005 51.9476C45.9641 51.1258 48.6115 50.8044 51.1828 50.5036C53.7541 50.2027 56.3714 49.9858 58.9411 50.0745C60.9646 50.1426 61.1293 51.8605 61.2227 53.5103C61.3659 55.6991 61.2949 57.8967 61.0105 60.0717C60.5007 63.7244 58.6181 67.0209 54.7485 67.7841C51.0625 68.5124 47.0281 66.6567 44.7339 63.764C42.2496 60.629 42.731 56.4506 42.4665 52.7107C42.4333 52.1439 42.9273 51.9191 43.3595 52.0236ZM26.7583 54.8878C26.9339 54.7649 27.1174 54.6539 27.3077 54.5553C27.3758 54.5047 27.4439 54.454 27.5151 54.4081C29.0304 53.409 30.9462 53.5277 32.4108 54.5664C35.5236 56.7593 36.3913 62.2361 32.8763 64.4876C31.228 65.5452 28.9338 65.3568 27.2238 64.5509C25.3745 63.6785 24.331 61.9606 24.3374 59.9244C24.35 57.9864 25.156 56.0247 26.7583 54.8878ZM15.8333 68.3842C16.0455 67.564 16.5442 66.6789 17.4008 66.4018C17.5897 66.3399 17.788 66.3115 17.9866 66.3179C18.3199 66.1751 18.6908 66.1451 19.0427 66.2324C19.9769 66.4398 20.5453 67.2663 20.7448 68.1562C21.109 69.7822 20.6055 72.3282 18.5899 72.5182C16.3241 72.7304 15.3583 70.2414 15.8333 68.3842Z" fill="white"/>
<path d="M74.5116 56.9763C75.449 56.6834 75.9936 55.8822 76.1583 54.9845C76.1203 54.8024 76.0902 54.6203 76.0649 54.4366C75.9139 54.0122 75.7264 53.6016 75.5044 53.2095C75.4675 53.1406 75.4466 53.0642 75.4433 52.9861C75.44 52.908 75.4544 52.8301 75.4854 52.7583C74.4562 51.8463 72.9426 51.4774 71.9039 52.6142C71.1407 53.4518 70.9666 54.8309 71.5508 55.8062C72.1351 56.7815 73.4176 57.3167 74.5116 56.9763Z" fill="white"/>
<path d="M80.8402 65.7336C81.2756 65.4597 81.4419 64.7678 81.1078 64.3593C80.9993 64.2382 80.865 64.1429 80.7149 64.0804C80.5648 64.0179 80.4025 63.9899 80.2401 63.9983C79.7968 64.2548 79.3899 64.6601 79.5387 65.1905C79.6876 65.7209 80.3763 66.0249 80.8402 65.7336Z" fill="white"/>
<path d="M11.8149 80.0407C14.3086 81.4879 17.1475 82.2004 19.9532 82.7482C23.0675 83.3837 26.2214 83.8069 29.393 84.0149C35.8926 84.3933 42.4571 83.5019 48.9219 82.9224C55.4135 82.3397 61.9559 81.9407 68.3874 80.8641C74.2251 79.8919 79.751 78.1724 84.2745 74.2141C88.3231 70.6706 92.2625 66.0805 93.1412 60.6085C93.9329 55.621 92.5427 50.3342 89.1512 46.5501C85.9022 42.9258 80.9559 40.896 76.1077 41.0084C75.4109 41.0256 74.7159 41.088 74.0272 41.1952C74.9772 37.7626 73.8768 33.7536 70.7465 31.7839C68.0755 30.104 64.4433 30.4254 62.0382 32.3555C61.7326 26.9848 58.6736 21.9055 53.8809 19.3246C48.754 16.5601 41.0717 16.2451 37.4364 21.5223C35.834 23.8482 35.3068 26.6127 35.0899 29.3883C34.1559 28.1742 32.938 27.208 31.5432 26.5747C28.7961 25.3223 25.6849 25.3841 22.8444 26.3008C20.0039 27.2176 16.9322 28.8864 15.303 31.4704C13.7022 34.0037 13.5075 37.3731 13.7196 40.2848C13.9582 43.5576 14.8909 46.7421 16.4556 49.6265C12.5575 47.6267 7.5462 48.8348 4.64554 52.1012C1.07829 56.1197 0.633369 61.8672 2.17712 66.8294C3.75729 71.923 7.11237 77.3111 11.8149 80.0407ZM3.93462 55.8711C5.01762 53.4502 6.94295 51.3824 9.46362 50.4609C11.9526 49.5521 14.771 49.6993 16.986 51.2066C17.3312 51.441 17.6526 51.2066 17.7381 50.89C18.2131 50.7997 18.6185 50.2962 18.2986 49.7563C15.6228 45.2533 14.2136 39.1369 15.8619 34.0196C16.728 31.3279 19.0285 29.7002 21.4954 28.5428C23.9622 27.3854 26.8787 26.7916 29.5704 27.5469C32.0768 28.2531 34.2665 30.0961 34.9695 32.6531C35.2118 33.5335 36.5085 33.3356 36.5386 32.441C36.6368 29.4437 36.7144 26.2739 38.0998 23.5426C39.4377 20.9032 41.7066 19.4149 44.6358 19.0681C50.0096 18.4348 55.507 21.0125 58.3522 25.6279C59.9652 28.2579 60.7014 31.3321 60.4549 34.4075C60.3915 35.2276 61.5284 35.4176 61.9195 34.8049C63.5693 32.2082 67.3899 31.5337 69.9485 33.1598C72.77 34.9521 73.4857 38.9912 72.0544 41.8681C71.9772 42.0088 71.9427 42.1689 71.955 42.3288C71.9672 42.4888 72.0258 42.6417 72.1235 42.7689C72.2212 42.8962 72.3538 42.9922 72.5051 43.0454C72.6565 43.0985 72.8201 43.1065 72.9759 43.0683C75.211 42.5422 77.5346 42.5155 79.7812 42.9901C82.0277 43.4646 84.142 44.4288 85.9735 45.8138C89.707 48.6511 91.7637 53.2301 91.7495 57.8851C91.7336 63.1481 88.8456 67.3107 85.3148 70.9666C83.4417 72.911 81.3834 74.6716 78.991 75.9541C76.5985 77.2366 73.9417 78.0473 71.2833 78.6316C65.5991 79.8824 59.7614 80.2751 53.9775 80.7896C48.1065 81.3121 42.2323 81.9661 36.3486 82.3239C30.4541 82.6758 24.5393 82.2074 18.7736 80.9321C16.2181 80.3732 13.688 79.5721 11.5283 78.0536C9.39395 76.5526 7.72829 74.4516 6.36504 72.2539C3.36462 67.4326 1.49312 61.3273 3.93462 55.8711Z" fill="#231F20"/>
<path d="M27.2333 64.5446C28.9433 65.3506 31.2375 65.539 32.8858 64.4813C36.4008 62.2298 35.5331 56.7531 32.4203 54.5601C30.9557 53.5278 29.0399 53.4091 27.5246 54.4018C27.4534 54.4477 27.3853 54.4984 27.3172 54.5491C27.1269 54.6476 26.9433 54.7587 26.7678 54.8816C25.1591 56.0184 24.3532 57.9801 24.3469 59.9118C24.3374 61.9543 25.3808 63.6722 27.2333 64.5446ZM29.1428 61.2751L29.0351 61.1341H29.2457C29.2052 61.1763 29.1706 61.2237 29.1428 61.2751ZM28.6013 55.2742C29.1118 55.0313 29.6869 54.9591 30.2416 55.0684C30.3023 55.178 30.3983 55.264 30.5139 55.3122C31.4972 55.7651 31.9532 56.5789 32.1369 57.4972C32.1606 60.2411 26.7868 60.6924 26.7535 58.0878C26.7409 56.9019 27.5499 55.7746 28.6013 55.2726V55.2742Z" fill="#231F20"/>
<path d="M18.5867 72.5167C20.6023 72.3267 21.1058 69.7807 20.7416 68.1546C20.5421 67.2648 19.9737 66.4383 19.0396 66.2309C18.6876 66.1435 18.3168 66.1736 17.9835 66.3164C17.7848 66.31 17.5865 66.3384 17.3976 66.4003C16.5411 66.6774 16.0423 67.5624 15.8301 68.3826C15.3583 70.2414 16.3241 72.7304 18.5867 72.5167ZM16.9749 69.255C17.005 68.7484 17.2156 68.0913 17.5956 67.7049C17.6758 67.7124 17.7561 67.6911 17.822 67.6448C19.6127 66.3781 20.292 70.7734 18.5709 71.2025C17.4689 71.4796 16.9211 70.1132 16.9749 69.2566V69.255Z" fill="#231F20"/>
<path d="M77.5485 60.3551C79.8142 57.7664 78.4605 52.9134 75.7387 51.1718C74.3232 50.2677 72.6069 50.2392 71.3386 51.2288C68.647 52.4179 67.2441 55.9123 68.259 58.7939C69.5083 62.3422 75.126 63.1228 77.5485 60.3551ZM71.9039 52.6142C72.9425 51.4774 74.4562 51.8463 75.4854 52.7583C75.4544 52.8301 75.44 52.9079 75.4433 52.9861C75.4465 53.0642 75.4674 53.1406 75.5044 53.2095C75.7264 53.6016 75.9139 54.0121 76.0649 54.4366C76.0902 54.6203 76.1203 54.8024 76.1583 54.9844C76 55.8822 75.449 56.6834 74.5116 56.9763C73.4175 57.3199 72.1366 56.7799 71.5508 55.8062C70.965 54.8324 71.1407 53.4518 71.9039 52.6142Z" fill="#231F20"/>
<path d="M78.2959 65.2207C78.4431 66.5317 79.9156 67.4563 81.1585 66.9893C82.3302 66.5491 82.9255 65.0513 82.3397 63.935C81.7364 62.7871 80.142 62.377 79.1461 63.232C79.1 63.2692 79.0621 63.3155 79.0348 63.3682C79.0076 63.4208 78.9915 63.4785 78.9878 63.5376C78.5334 63.9667 78.2278 64.6222 78.2959 65.2207ZM80.2402 63.9983C80.4026 63.9899 80.5648 64.018 80.715 64.0805C80.8651 64.1429 80.9993 64.2382 81.1079 64.3593C81.4419 64.7678 81.2757 65.4598 80.8403 65.7337C80.3764 66.0266 79.6844 65.7052 79.5388 65.1906C79.3931 64.676 79.8 64.2548 80.2402 63.9983Z" fill="#231F20"/>
<path d="M54.7469 67.7841C58.6165 67.021 60.4991 63.7245 61.009 60.0717C61.2929 57.8988 61.364 55.7034 61.2211 53.5167C61.1277 51.8669 60.963 50.149 58.9395 50.0809C56.3714 49.9922 53.732 50.2123 51.1812 50.51C48.6305 50.8076 45.9562 51.1322 43.4989 51.954C43.4484 51.9722 43.4009 51.9978 43.358 52.03C42.9257 51.9255 42.4238 52.1503 42.4634 52.7171C42.7278 56.457 42.2465 60.6338 44.7307 63.7704C47.025 66.6584 51.0609 68.5125 54.7469 67.7841ZM44.2874 58.5533C44.27 58.4298 44.251 58.3047 44.2351 58.1796C44.2567 58.1755 44.2778 58.1697 44.2985 58.1622V58.2065C44.3035 58.2775 44.3206 58.3472 44.3491 58.4124C44.3207 58.4555 44.2998 58.5032 44.2874 58.5533ZM47.918 60.1034C49.4079 60.0701 50.8946 59.9815 52.3782 59.8659C53.8043 59.7603 55.2266 59.6178 56.6453 59.4384C57.305 59.355 57.9642 59.2663 58.6229 59.1724C58.9538 59.1249 59.299 59.0964 59.6362 59.0378C59.3085 61.9495 58.3695 64.9959 55.3121 66.0393C52.1328 67.127 48.594 65.6197 46.36 63.297C45.5014 62.386 44.8909 61.2701 44.5866 60.0559C45.6649 60.2475 46.8666 60.1287 47.918 60.1034Z" fill="#231F20"/>
</svg>
