<svg width="203" height="203" viewBox="0 0 203 203" fill="none" xmlns="http://www.w3.org/2000/svg">
<path d="M82.0154 49.735C78.5982 45.7765 78.7505 40.0688 79.3899 35.1596C79.7756 32.1924 82.0763 31.0996 83.8661 29.0087C84.3837 28.3997 86.4205 24.6104 84.4446 25.6254C82.9658 26.384 81.6069 27.3565 80.4117 28.5113C80.2676 28.6471 80.0836 28.7326 79.8869 28.755C79.6903 28.7775 79.4917 28.7357 79.3208 28.636C79.1498 28.5362 79.0158 28.3839 78.9386 28.2016C78.8614 28.0194 78.8453 27.8171 78.8926 27.6249C79.3201 25.8764 79.6264 24.1004 79.8094 22.3097C79.8952 21.4594 79.9515 20.6068 79.9786 19.7519C79.9955 19.3358 80.1241 18.473 79.9279 17.9148C77.1095 20.1985 76.4802 24.2382 75.9761 27.6486C75.8239 28.6873 74.3352 28.3253 74.2642 27.4185C74.1043 25.2548 73.8082 23.1032 73.3777 20.9767C73.1792 20.0587 72.9672 19.1429 72.7417 18.2294C72.6605 17.9283 72.6131 17.2144 72.4033 16.9877C72.3266 16.4531 72.1552 16.4757 71.8891 17.0554L71.6725 17.4411C69.9132 20.6451 70.8199 24.7288 71.6725 28.058C71.9432 29.1373 70.5831 29.5703 69.9809 28.7685C69.4226 28.0208 68.2892 26.9956 67.2742 27.0261C66.3708 27.0565 66.4487 27.5708 66.7329 28.2881C67.1836 29.3973 67.8578 30.4019 68.7134 31.2395C69.569 32.077 70.5878 32.7296 71.7064 33.1567C71.9356 33.2302 72.1289 33.3872 72.2479 33.5965C72.367 33.8057 72.4031 34.0521 72.3492 34.2867C71.8664 37.9344 72.2075 41.6439 73.3475 45.1424C74.4875 48.6408 76.3974 51.8392 78.9365 54.5021C79.9515 52.9029 80.9778 51.3139 82.0154 49.735Z" fill="white"/>
<path d="M70.0823 81.244C70.1703 81.0782 70.9654 79.8399 70.9722 79.8534C70.9045 79.708 69.5309 79.7418 69.3549 79.7384C68.338 79.7097 67.3203 79.7549 66.3099 79.8737C62.2065 80.3905 58.3059 81.9579 54.9859 84.4243C51.6905 86.8603 48.7741 90.3587 47.458 94.2834C46.487 97.149 48.9602 99.1317 51.0883 100.654C52.9315 101.96 54.9778 102.952 57.1445 103.591C58.5621 101.111 60.2402 98.7561 61.7357 96.3201C63.3146 93.724 64.8461 91.0951 66.3302 88.4336C67.6294 86.0619 68.8305 83.6428 70.0823 81.244Z" fill="#FEEAFF"/>
<path d="M120.508 31.2113C125.921 34.307 131.886 35.6096 138.05 35.4269C138.141 33.2074 138.175 30.9846 138.138 28.7685C132.657 29.4215 126.899 26.9516 122.365 24.1232C120.034 22.6947 118.035 20.7844 116.502 18.5204C115.517 17.0554 114.411 15.066 114.171 13.1476C113.546 13.5446 112.93 13.9551 112.323 14.3792C110.791 15.4741 109.35 16.6928 108.016 18.023C109.522 20.5064 110.899 22.9897 112.915 25.1788C115.121 27.5679 117.682 29.6027 120.508 31.2113Z" fill="white"/>
<path d="M118.247 17.502C119.676 19.5022 121.523 21.1671 123.661 22.3808C128.012 24.9318 132.985 26.84 138.074 26.4103C137.996 24.4344 137.857 22.4586 137.654 20.4962C137.352 17.2697 136.67 14.09 135.624 11.0229C135.127 9.61882 134.569 8.03203 133.486 6.9629C132.241 5.75167 130.563 5.69415 128.949 6.09C125.975 6.81403 123.096 8.42112 120.355 9.75415C118.752 10.5391 117.165 11.368 115.619 12.268C115.977 13.0191 116.234 13.8311 116.576 14.5754C117.045 15.5985 117.605 16.5779 118.247 17.502Z" fill="#FEEAFF"/>
<path d="M71.2632 105.154C70.9417 106.761 71.8552 108.128 72.9717 109.187C75.2859 111.386 78.3377 112.983 81.1729 114.394C84.2179 115.91 87.3577 117.175 90.5177 118.41C92.1519 119.046 93.9586 120.081 95.5487 118.826C96.7024 117.916 97.149 116.485 97.5787 115.104C89.0113 111.321 80.766 106.847 72.9244 101.727C72.3492 102.87 71.5169 103.889 71.2632 105.154Z" fill="white"/>
<path d="M106.609 35.8633C102.765 36.4453 99.6121 39.179 97.9171 42.63C97.309 44.5258 97.0208 46.5096 97.0645 48.5001C97.1129 51.5996 98.0397 54.6218 99.7373 57.2156C101.503 59.8478 104.058 61.8372 107.323 61.9522C110.258 62.0089 113.16 61.3099 115.747 59.9222C118.471 58.4369 120.24 56.0855 120.521 52.9458C120.787 49.6539 120.351 46.3432 119.242 43.2322C117.402 38.2824 111.799 35.075 106.609 35.8633ZM113.085 54.3634C110.696 57.4693 106.271 58.6602 103.107 55.9671C102.847 55.7404 102.604 55.495 102.38 55.2329C102.34 55.2246 102.304 55.2059 102.275 55.1788C101.514 54.5049 100.915 53.6683 100.522 52.7311C100.129 51.794 99.9522 50.7803 100.005 49.7655C100.025 47.6436 100.662 45.5735 101.838 43.8074C104.176 40.4004 108.849 40.4985 111.697 43.2289C114.725 46.125 115.73 50.9293 113.085 54.3634Z" fill="#EBA2EE"/>
<path d="M108.889 43.5909C107.052 42.6402 104.748 42.8567 103.371 44.4773C103.093 44.8062 102.845 45.1595 102.63 45.5329C101.564 48.9907 101.869 54.2518 106.091 55.2972C107.932 55.754 109.847 54.8168 111.071 53.4702C112.584 51.8191 112.882 49.8906 112.181 47.8065C111.609 46.1047 110.52 44.4367 108.889 43.5909Z" fill="white"/>
<path d="M137.925 37.802C131.385 38.2181 124.612 36.2423 119.073 32.8657C116.084 31.0522 113.393 28.788 111.095 26.1532C109.431 24.228 107.631 21.9105 106.673 19.4068C103.966 22.3266 101.581 25.5915 99.2129 28.7922C95.216 34.1829 91.3218 39.6448 87.5302 45.1776C80.1715 55.8893 73.2323 66.831 66.6077 78.0163C67.0137 77.9858 67.4197 77.9621 67.8223 77.9554C69.3753 77.9283 73.2559 77.6576 72.5827 80.2594C72.2003 81.721 71.297 83.1488 70.6169 84.4886C69.9369 85.8284 69.2196 87.1953 68.5024 88.5486C67.4535 90.5064 66.3765 92.4473 65.2713 94.3713C71.9973 98.9117 78.8046 103.276 85.9942 107.069C93.5332 111.051 101.323 114.539 109.316 117.51C109.439 117.559 109.553 117.627 109.654 117.713C110.588 115.471 111.524 113.229 112.462 110.987C113.139 109.363 113.815 107.742 114.516 106.122C115.192 104.562 115.757 102.914 116.664 101.476C116.823 101.075 117.087 100.725 117.429 100.461C118.444 99.7237 119.611 100.241 120.558 100.82C121.603 101.473 122.52 102.309 123.265 103.29C127.589 89.1847 131.947 75.0491 134.812 60.5617C136.358 53.0532 137.397 45.4496 137.925 37.802ZM78.5441 62.7067C77.5968 64.6521 76.2874 66.4656 75.1269 68.2892C73.9664 70.1128 72.8669 72.065 71.5609 73.7905C71.5277 73.8213 71.4854 73.8403 71.4404 73.8447C71.3954 73.849 71.3502 73.8385 71.3117 73.8147C71.2733 73.7908 71.2437 73.755 71.2276 73.7128C71.2115 73.6705 71.2097 73.6241 71.2226 73.5807C72.2714 71.5778 73.5909 69.6899 74.7852 67.7783C75.9017 65.9987 76.9404 64.1108 78.2464 62.4631C78.3817 62.2736 78.6388 62.5172 78.5441 62.7067ZM83.4601 55.2431C82.834 56.5877 81.9232 57.7803 80.7906 58.738C80.6688 58.8395 80.4523 58.7076 80.5572 58.5553C80.9936 57.9328 81.518 57.3678 81.9714 56.752C82.3876 56.1904 82.7597 55.5848 83.1996 55.0401C83.3281 54.8777 83.5311 55.084 83.4601 55.2431ZM115.263 62.798C111.985 64.1514 107.84 64.9532 104.389 63.8604C101.091 62.8183 98.5024 60.0237 96.9224 57.0295C94.0228 51.5349 93.7792 43.5638 98.137 38.7019C98.1969 38.6239 98.2774 38.5642 98.3695 38.5295C98.4616 38.4949 98.5615 38.4866 98.658 38.5057C99.8497 37.06 101.334 35.8831 103.014 35.0527C104.693 34.2222 106.53 33.7571 108.402 33.6878C115.246 33.539 120.819 38.5328 122.22 45.0592C123.001 48.6997 123.573 53.0033 122.098 56.5389C120.849 59.5467 118.2 61.5767 115.25 62.798H115.263ZM125.413 89.5805C124.622 92.2127 123.877 95.1562 122.456 97.5313C122.444 97.5475 122.426 97.559 122.407 97.564C122.387 97.5691 122.366 97.5674 122.347 97.5592C122.329 97.5511 122.313 97.5369 122.304 97.519C122.294 97.501 122.291 97.4804 122.294 97.4603C122.818 94.7367 123.986 92.0706 124.784 89.4046C125.583 86.7385 126.114 83.9236 126.997 81.2609C127.064 81.0511 127.426 81.0748 127.399 81.315C127.075 84.1097 126.198 86.8941 125.396 89.5805H125.413ZM128.147 75.5972C128.056 75.7359 127.809 75.6513 127.87 75.4822C128.32 74.1051 128.56 72.6679 128.58 71.2192C128.577 71.1969 128.579 71.1744 128.585 71.1528C128.591 71.1311 128.601 71.1109 128.614 71.0931C128.628 71.0754 128.645 71.0605 128.664 71.0493C128.684 71.0381 128.705 71.0309 128.727 71.028C128.75 71.0251 128.772 71.0266 128.794 71.0325C128.815 71.0383 128.836 71.0483 128.853 71.062C128.871 71.0757 128.886 71.0927 128.897 71.1121C128.908 71.1315 128.916 71.153 128.919 71.1752C129.091 71.9274 129.109 72.7066 128.974 73.4663C128.838 74.226 128.552 74.9507 128.13 75.5972H128.147Z" fill="white"/>
<path d="M85.754 127.399C87.4456 125.048 88.799 121.648 86.9449 119.232L86.1261 118.894C84.1773 118.078 82.2454 117.226 80.3575 116.278C77.6272 114.925 74.4536 113.318 72.0988 111.139C68.817 110.08 65.2104 110.297 62.3142 112.289C60.9998 113.221 59.915 114.439 59.1423 115.853C58.3696 117.266 57.9293 118.837 57.855 120.447C57.8245 121.076 57.0498 121.726 56.4408 121.259C53.3044 118.84 48.6591 120.01 45.2758 121.276C41.5845 122.653 38.208 125.075 36.1238 128.458C34.0938 131.744 33.2717 135.824 34.4965 139.549C35.613 142.956 38.3974 145.822 41.9195 146.654C42.9683 146.904 42.7552 148.234 41.9195 148.572C38.2689 150.051 36.8445 155.302 36.7058 158.851C36.5415 162.718 37.7388 166.521 40.0891 169.596C44.907 175.734 54.1739 177.09 60.7613 173.125C60.9213 173.035 61.102 172.987 61.2858 172.988C61.4696 172.989 61.6501 173.037 61.8095 173.129C61.9689 173.22 62.1018 173.351 62.195 173.51C62.2883 173.668 62.3387 173.848 62.3413 174.032C61.9759 183.505 66.4859 193.219 75.604 196.944C83.6428 200.226 93.8164 197.12 97.1592 188.665C97.5889 187.575 99.1283 187.778 99.3583 188.634C100.627 190.965 103.642 191.916 106.088 190.911C108.95 189.737 110.232 186.483 110.029 183.576C109.968 182.703 111.044 182.152 111.758 182.585C115.142 184.656 118.779 186.726 122.852 185.488C126.178 184.473 128.881 181.705 130.252 178.562C132.014 174.502 131.297 170.49 128.411 167.191C126.016 164.454 122.257 162.17 118.576 163.594C117.713 163.933 116.826 162.745 117.354 162.004C120.301 157.86 120.508 152.081 117.622 147.835C115.849 145.223 113.267 143.957 110.121 144.556C107.283 145.158 104.569 146.241 102.095 147.757C101.239 148.261 100.316 147.419 100.502 146.532C101.412 142.134 101.872 137.397 98.4719 133.922C95.4269 130.793 90.8932 129.206 86.6302 128.902C85.9366 128.854 85.2803 128.066 85.754 127.399ZM55.5306 134.017C55.6355 133.912 55.7709 134.065 55.6863 134.173C53.7679 136.602 52.286 140.06 54.2145 142.942C55.8419 145.375 61.6376 146.799 62.9604 143.392C63.045 143.183 63.407 143.189 63.3901 143.45C63.0924 147.459 56.6877 146.065 54.7017 144.384C51.3421 141.542 52.8341 136.687 55.5306 134.017ZM74.0442 160.989C73.4183 163.983 72.0515 166.961 69.135 168.314C66.4284 169.573 63.2176 169.295 60.3925 168.588C57.5674 167.881 54.8574 166.636 53.3755 164.038C53.3647 164.019 53.3618 163.996 53.3676 163.975C53.3733 163.954 53.3871 163.937 53.4059 163.926C53.4248 163.915 53.4471 163.912 53.468 163.918C53.489 163.924 53.5068 163.937 53.5176 163.956C55.0028 166.514 57.9666 167.566 60.7241 168.145C63.4815 168.723 66.584 168.91 69.1519 167.573C72.0142 166.088 73.0766 162.803 73.5503 159.825C74.1187 156.33 73.5773 153.059 72.8736 149.645C72.8582 149.585 72.8671 149.521 72.8983 149.467C72.9295 149.414 72.9806 149.374 73.0405 149.358C73.1004 149.341 73.1643 149.349 73.2185 149.379C73.2727 149.41 73.3129 149.46 73.3304 149.52C74.819 153.025 74.8123 157.325 74.0442 160.989ZM72.6165 135.208C70.8571 136.051 68.9253 135.499 67.5922 134.193C67.4907 134.095 67.643 133.946 67.7479 134.038C68.4087 134.626 69.2381 134.99 70.1181 135.08C70.9982 135.17 71.8842 134.981 72.6503 134.538C74.1085 133.642 74.342 132.17 74.5991 130.624C74.6329 130.431 74.8935 130.471 74.9374 130.624C75.5667 132.37 74.183 134.457 72.6165 135.208ZM109.085 156.124C111.254 155.762 112.628 157.89 112.956 159.785C113.311 161.859 112.648 164.389 110.899 165.678C110.703 165.824 110.418 165.536 110.561 165.34C111.552 163.956 112.367 162.633 112.371 160.854C112.371 158.905 111.383 156.439 109.119 156.378C108.981 156.371 108.943 156.148 109.085 156.124ZM89.0798 186.797C87.0971 187.034 86.0348 185.251 85.4055 183.668C85.3547 183.542 85.5543 183.468 85.6152 183.58C86.4814 185.082 87.7603 186.75 89.6989 185.931C91.2789 185.254 91.7289 183.502 92.4225 182.111C92.5206 181.912 92.7778 182.064 92.7608 182.247C92.4563 184.199 91.2756 186.533 89.0798 186.797ZM90.5583 173.416C94.0161 172.421 96.8344 170.882 97.9001 167.242C98.8013 163.959 98.9172 160.511 98.2384 157.176C97.5618 153.938 95.6434 151.323 92.5951 149.966C92.3447 149.855 92.5342 149.493 92.7744 149.547C96.3912 150.349 98.4753 154.019 99.1012 157.423C99.7542 160.986 99.6324 165.442 98.1573 168.808C96.6077 172.34 92.7169 173.883 89.1001 174.445C85.8893 174.932 82.0797 173.89 81.0342 170.462C81.0038 170.358 81.1695 170.283 81.2169 170.388C82.8544 174.072 87.1411 174.401 90.5583 173.416Z" fill="white"/>
<path d="M120.305 103.073C119.966 102.806 119.147 102.089 118.701 102.197C118.39 102.271 118.363 102.721 118.231 103.002C118.02 103.49 117.689 103.917 117.27 104.244C116.475 106.534 115.345 108.791 114.448 110.967L110.906 119.56C109.955 121.871 108.226 124.75 109.945 127.098C111.329 128.983 113.815 130.113 115.896 131.026C117.821 131.872 121.489 133.804 122.896 131.365C124.053 129.362 124.392 126.554 124.781 124.31C125.677 119.124 125.684 113.68 123.908 108.676C123.153 106.575 122.05 104.491 120.305 103.073Z" fill="#FEEAFF"/>
<path d="M156.486 63.4578C155.515 63.4037 155.072 62.1045 155.975 61.5767C157.007 60.9812 158.11 60.7241 159.233 60.3587C160.069 60.0846 161.602 59.5636 161.558 58.4437C161.49 56.3833 155.846 58.1054 154.811 58.4978C154.047 58.7854 153.204 57.7264 153.708 57.0633C154.473 56.0483 159.172 48.7877 155.799 48.835C154.385 48.835 152.903 50.5064 151.969 51.4199C150.863 52.5059 149.976 53.6698 149.679 55.216C149.489 56.2107 148.17 55.9942 147.875 55.216C147.537 54.3296 147.117 53.0743 146.218 52.577C145.87 52.3589 145.45 52.2871 145.05 52.3774C144.441 52.6074 144.374 53.2807 144.347 53.8661C144.201 55.8588 145.314 57.7366 146.742 59.0222C146.931 59.2124 147.037 59.4697 147.037 59.7378C147.037 60.006 146.931 60.2632 146.742 60.4534C143.436 63.424 139.711 66.09 135.557 67.731C134.9 70.5933 134.195 73.4443 133.442 76.284C136.744 75.8339 139.911 74.6801 142.729 72.9007C144.32 71.8928 145.79 70.7041 147.107 69.3583C148.041 68.4042 148.931 66.6517 150.308 66.293C151.861 65.9006 153.241 67.4163 154.534 68.0151C156.275 68.8578 158.214 69.2087 160.14 69.0301C162.045 68.7865 163.391 67.3385 162.17 65.4946C160.949 63.6507 158.435 63.5627 156.486 63.4578Z" fill="white"/>
<path d="M162.762 63.1601C162.12 62.6501 161.386 62.2676 160.6 62.0334C161.123 61.8406 161.616 61.5728 162.062 61.2383C163.195 60.3688 163.862 58.9614 163.459 57.5336C162.752 55.0265 159.48 55.2025 156.851 55.8216C158.672 52.7428 160.573 48.0839 156.743 47.025C154.767 46.4769 152.883 48.0196 151.523 49.241C150.403 50.183 149.442 51.2991 148.677 52.5465C148.259 51.7966 147.624 51.1896 146.857 50.8041C145.737 50.2696 144.228 50.3237 143.311 51.2338C142.181 52.3537 142.34 54.3431 142.635 55.7641C142.933 57.2126 143.599 58.5603 144.566 59.6786C141.914 61.9793 139.021 63.8604 136.02 65.6604C136.132 65.1596 136.243 64.6454 136.358 64.1582C138.243 55.3615 139.664 46.3111 140.148 37.2573C140.339 37.0426 140.45 36.7687 140.463 36.4816C140.476 36.1945 140.39 35.9117 140.219 35.6806C140.327 33.089 140.358 30.494 140.297 27.899C140.376 27.656 140.369 27.3929 140.276 27.1546C140.225 25.4968 140.135 23.8423 140.009 22.1913C139.789 18.8444 139.229 15.5287 138.338 12.295C137.57 9.65265 136.582 6.37082 134.2 4.71637C131.635 2.93335 128.418 3.76903 125.765 4.87877C122.835 6.10015 119.943 7.47378 117.131 8.93877C113.381 10.8879 109.92 13.3473 106.846 16.2468C106.507 16.0539 105.976 16.2129 106.02 16.6832C106.02 16.7915 106.047 16.8964 106.061 17.0013C104.668 18.3833 103.36 19.8476 102.143 21.3861C97.8562 26.7656 93.8469 32.3988 89.9087 38.0388C87.6193 41.3207 85.3638 44.6352 83.142 47.9824C81.3387 45.6141 81.0173 42.5454 81.0884 39.6188C81.1256 38.0422 81.129 36.2863 81.4707 34.7401C81.8327 33.0856 83.5345 32.1518 84.6341 30.9981C86.0314 29.5297 88.4403 26.0957 86.7554 24.0487C85.869 22.9695 84.5292 23.4837 83.4939 24.0115C82.677 24.4314 81.8962 24.918 81.1594 25.4664C81.4323 23.9084 81.6142 22.3359 81.7041 20.7568C81.7955 19.126 82.1237 16.9302 80.4963 15.9355C80.3603 15.8558 80.2056 15.8138 80.048 15.8138C79.8904 15.8138 79.7356 15.8558 79.5997 15.9355C77.3362 17.4309 76.0912 19.6572 75.3265 22.1372C75.1269 21.0071 74.8969 19.8839 74.6228 18.7538C74.2845 17.3464 73.7364 13.8615 71.4357 15.0322C69.6493 15.949 69.0978 18.9433 68.932 20.7162C68.8045 22.4357 68.9115 24.1647 69.2501 25.8554C68.6355 25.5389 67.9702 25.3328 67.2844 25.2464C65.7619 25.0468 64.5202 25.8419 64.6217 27.493C64.8213 30.6327 67.7039 33.3123 70.4647 34.598C70.078 38.4814 70.5575 42.4023 71.8686 46.0781C73.1797 49.754 75.2897 53.0933 78.0467 55.8554C73.4319 63.1747 69.0335 70.6181 64.8517 78.1854C56.3494 79.4779 48.3377 85.5205 45.5667 93.7488C44.4638 96.9934 46.4329 99.3685 48.8384 101.338C51.3007 103.355 54.161 104.831 57.2325 105.668C57.3903 105.719 57.5589 105.725 57.7199 105.686C57.881 105.647 58.0283 105.565 58.146 105.448C58.2497 105.389 58.3406 105.31 58.4133 105.215C60.4433 102.647 62.1045 99.7204 63.7758 96.9088C64.0059 96.5231 64.2326 96.1307 64.4525 95.7416C66.7735 97.5122 69.152 99.2117 71.588 100.84C70.4219 101.829 69.6507 103.205 69.4152 104.716C69.1798 106.226 69.4959 107.772 70.3057 109.069C63.8164 107.735 57.3847 112.306 56.1532 118.88C53.6698 117.652 50.7737 117.811 48.0332 118.413C44.5104 119.163 41.2103 120.722 38.3941 122.967C32.9435 127.416 30.1455 135.3 33.38 141.87C34.6515 144.459 36.7556 146.547 39.3549 147.798C37.2742 149.432 36.0054 152.105 35.3119 154.605C34.3866 158.019 34.444 161.625 35.4776 165.009C37.555 171.812 43.3777 176.448 50.4117 177.287C53.7598 177.7 57.157 177.174 60.2233 175.768C60.3316 183.434 63.3597 191.108 69.5207 195.912C75.6818 200.716 84.1469 202.107 91.191 198.358C94.2606 196.726 96.7787 194.222 98.4279 191.162C99.4726 192.242 100.806 192.999 102.269 193.343C103.732 193.687 105.263 193.603 106.68 193.1C109.87 191.926 111.846 188.824 112.269 185.552C115.033 187.152 118.021 188.492 121.282 188.147C124.544 187.802 127.613 185.995 129.768 183.509C132.048 180.876 133.55 177.419 133.527 173.903C133.503 170.138 131.402 166.7 128.634 164.264C126.391 162.288 123.448 160.806 120.467 160.965C122.7 156.246 122.284 150.322 119.09 146.109C117.131 143.528 114.353 141.904 111.031 142.218C108.27 142.479 105.523 143.484 103.012 144.766C103.645 140.469 103.432 136.135 100.272 132.715C97.2438 129.433 92.7575 127.64 88.349 127.061C89.3403 125.369 90.0204 123.458 89.77 121.462C89.7217 121.067 89.6344 120.678 89.5095 120.301C90.4162 120.673 91.3331 121.022 92.2567 121.316C96.1814 122.527 98.5565 119.286 99.4937 115.947C102.55 117.266 105.629 118.507 108.73 119.669L108.852 119.706C108.669 120.146 108.483 120.585 108.304 121.025C107.228 123.647 106.778 126.215 108.7 128.557C110.429 130.658 113.149 131.94 115.602 132.982C117.889 133.946 121.188 135.499 123.461 133.726C125.528 132.112 125.951 128.651 126.449 126.283C127.721 120.173 127.951 113.612 125.708 107.675C125.414 106.904 125.075 106.152 124.693 105.421C127.596 96.4352 130.444 87.422 132.914 78.3039C137.039 77.8781 141.001 76.4696 144.468 74.1965C146.307 72.984 147.971 71.5258 149.415 69.8625C149.736 69.4869 150.051 68.8881 150.43 68.5937C150.998 68.164 151.191 68.3941 151.766 68.7595C152.641 69.3362 153.573 69.8214 154.547 70.2075C157.545 71.3579 163.635 72.0515 164.586 67.7918C164.988 66.0596 164.092 64.2427 162.762 63.1601ZM120.355 9.75415C123.096 8.42112 125.975 6.81403 128.949 6.09C130.563 5.69415 132.241 5.75167 133.489 6.97643C134.572 8.04557 135.13 9.63235 135.628 11.0364C136.674 14.1036 137.355 17.2832 137.658 20.5098C137.861 22.4721 137.996 24.448 138.077 26.4238C133.002 26.8535 128.015 24.9453 123.664 22.3943C121.527 21.1806 119.679 19.5157 118.251 17.5155C117.608 16.5915 117.049 15.6121 116.58 14.5889C116.241 13.8446 115.981 13.0326 115.622 12.2815C117.165 11.368 118.755 10.5391 120.355 9.75415ZM112.327 14.3792C112.931 13.9529 113.547 13.5424 114.174 13.1476C114.414 15.066 115.527 17.0554 116.505 18.5204C118.037 20.784 120.035 22.6943 122.365 24.1232C126.899 26.9516 132.657 29.435 138.138 28.7583C138.175 30.9744 138.138 33.1973 138.05 35.4167C131.886 35.6164 125.924 34.2969 120.508 31.2011C117.682 29.5925 115.121 27.5578 112.915 25.1686C110.885 22.9796 109.532 20.4962 108.016 18.0129C109.352 16.686 110.793 15.4707 112.327 14.3792ZM72.3492 34.2935C72.4031 34.0588 72.367 33.8125 72.2479 33.6032C72.1289 33.394 71.9356 33.237 71.7064 33.1634C70.5797 32.7404 69.5526 32.0889 68.6897 31.2498C67.8268 30.4108 67.1468 29.4025 66.6923 28.2881C66.4081 27.5708 66.3303 27.0565 67.2336 27.0261C68.2486 26.9956 69.3854 28.0208 69.9403 28.7685C70.5391 29.5703 71.8992 29.1373 71.6319 28.058C70.7929 24.7288 69.8861 20.6451 71.6319 17.4411L71.8485 17.0554C72.1124 16.478 72.2838 16.4554 72.3627 16.9877C72.5827 17.2246 72.63 17.9283 72.7011 18.2294C72.9492 19.1316 73.1668 20.0519 73.3541 20.9902C73.7914 23.1073 74.0953 25.2498 74.2642 27.405C74.3352 28.3084 75.8239 28.6738 75.9761 27.6351C76.4803 24.2247 77.1096 20.1917 79.9279 17.9012C80.1241 18.4595 79.9955 19.3222 79.9786 19.7384C79.9516 20.5955 79.8952 21.4481 79.8095 22.2962C79.6264 24.0869 79.3201 25.8628 78.8926 27.6114C78.8453 27.8036 78.8614 28.0059 78.9386 28.1881C79.0158 28.3703 79.1499 28.5227 79.3208 28.6224C79.4917 28.7222 79.6903 28.7639 79.887 28.7415C80.0836 28.719 80.2677 28.6335 80.4117 28.4978C81.6069 27.3429 82.9658 26.3705 84.4446 25.6118C86.4205 24.5968 84.3837 28.3997 83.8661 28.9952C82.0763 31.0928 79.7756 32.1789 79.3899 35.1461C78.7505 40.0553 78.5982 45.763 82.0154 49.7215C80.9801 51.3004 79.9538 52.8939 78.9366 54.5021C76.3983 51.8399 74.489 48.6427 73.3491 45.1455C72.2091 41.6483 71.8674 37.9401 72.3492 34.2935ZM61.7289 96.3201C60.2335 98.7561 58.5554 101.111 57.1377 103.591C54.9734 102.952 52.9294 101.959 51.0883 100.654C48.967 99.1384 46.4938 97.149 47.4513 94.2834C48.7674 90.3587 51.6838 86.8603 54.9792 84.4243C58.3021 81.9563 62.2063 80.3888 66.3133 79.8737C67.3237 79.7549 68.3414 79.7097 69.3583 79.7384C69.5343 79.7384 70.9079 79.708 70.9756 79.8534C70.9756 79.8534 70.1737 81.0782 70.0858 81.244C68.8339 83.6428 67.6328 86.0619 66.3269 88.4336C64.854 91.0974 63.3213 93.7262 61.7289 96.3201ZM98.4719 133.922C101.855 137.411 101.402 142.137 100.502 146.532C100.316 147.432 101.239 148.261 102.095 147.757C104.569 146.241 107.283 145.158 110.121 144.556C113.267 143.957 115.849 145.233 117.622 147.835C120.508 152.081 120.301 157.86 117.354 162.004C116.827 162.745 117.713 163.926 118.576 163.594C122.257 162.17 126.019 164.454 128.411 167.191C131.297 170.49 132.014 174.512 130.252 178.562C128.881 181.705 126.192 184.48 122.852 185.488C118.792 186.726 115.142 184.656 111.758 182.585C111.051 182.152 109.968 182.703 110.029 183.576C110.232 186.483 108.95 189.737 106.088 190.911C103.642 191.926 100.627 190.965 99.3584 188.634C99.1283 187.778 97.5889 187.575 97.1592 188.665C93.8165 197.123 83.6428 200.226 75.604 196.944C66.469 193.222 61.9759 183.488 62.3413 174.032C62.3387 173.848 62.2883 173.668 62.195 173.51C62.1018 173.351 61.9689 173.22 61.8095 173.129C61.6501 173.037 61.4696 172.989 61.2859 172.988C61.1021 172.987 60.9213 173.035 60.7613 173.125C54.1739 177.09 44.907 175.734 40.0891 169.596C37.7388 166.521 36.5415 162.718 36.7058 158.851C36.8377 155.302 38.2689 150.054 41.9195 148.572C42.7552 148.234 42.9683 146.904 41.9195 146.654C38.3975 145.815 35.613 142.949 34.4965 139.549C33.2717 135.827 34.0972 131.744 36.1239 128.458C38.208 125.075 41.5846 122.653 45.2758 121.276C48.6591 120.01 53.2943 118.84 56.4408 121.259C57.0498 121.726 57.8246 121.076 57.855 120.447C57.9296 118.836 58.3707 117.264 59.1446 115.85C59.9185 114.436 61.0049 113.217 62.321 112.286C65.2171 110.293 68.8238 110.077 72.1056 111.136C74.4739 113.315 77.634 114.905 80.3643 116.275C82.2522 117.222 84.1841 118.075 86.1329 118.89L86.9517 119.229C88.8091 121.651 87.4355 125.045 85.7607 127.396C85.2871 128.073 85.9367 128.851 86.6235 128.898C90.8933 129.206 95.4337 130.793 98.4719 133.922ZM95.5487 118.826C93.9586 120.081 92.1654 119.046 90.5177 118.41C87.3577 117.175 84.2078 115.91 81.1729 114.394C78.3377 112.983 75.2859 111.386 72.9717 109.187C71.8552 108.128 70.9417 106.761 71.2632 105.154C71.5169 103.889 72.3492 102.87 72.9278 101.74C80.7694 106.861 89.0147 111.335 97.5821 115.118C97.149 116.485 96.7024 117.916 95.5487 118.826ZM124.781 124.31C124.392 126.554 124.053 129.362 122.896 131.365C121.489 133.804 117.821 131.872 115.896 131.026C113.815 130.113 111.329 128.996 109.945 127.098C108.226 124.75 109.945 121.871 110.906 119.56L114.448 110.973C115.345 108.798 116.478 106.541 117.27 104.251C117.689 103.924 118.02 103.497 118.231 103.009C118.363 102.728 118.39 102.278 118.701 102.204C119.147 102.095 119.976 102.813 120.305 103.08C122.05 104.498 123.167 106.595 123.908 108.683C125.684 113.68 125.677 119.124 124.781 124.31ZM123.289 103.266C122.543 102.286 121.626 101.449 120.582 100.796C119.635 100.218 118.461 99.7001 117.452 100.438C117.111 100.701 116.847 101.052 116.688 101.453C115.781 102.891 115.203 104.538 114.539 106.098C113.863 107.719 113.162 109.339 112.486 110.963C111.552 113.205 110.616 115.447 109.678 117.689C109.577 117.603 109.462 117.535 109.339 117.486C101.347 114.516 93.5569 111.028 86.0179 107.045C78.8317 103.253 72.021 98.8881 65.295 94.3476C66.4024 92.4236 67.4795 90.4827 68.526 88.5249C69.2433 87.1851 69.9482 85.8318 70.6406 84.4649C71.3173 83.1116 72.224 81.6973 72.6063 80.2357C73.283 77.634 69.3989 77.9046 67.846 77.9317C67.4434 77.9317 67.0374 77.9622 66.6314 77.9926C73.2559 66.8276 80.1952 55.8656 87.5539 45.154C91.3387 39.6369 95.2251 34.1829 99.2129 28.7922C101.581 25.5915 103.95 22.3266 106.673 19.4068C107.631 21.9105 109.431 24.2281 111.095 26.1532C113.393 28.7881 116.084 31.0522 119.073 32.8657C124.612 36.249 131.385 38.2181 137.925 37.802C137.404 45.4411 136.372 53.0368 134.836 60.538C131.97 75.0254 127.613 89.161 123.289 103.266ZM160.14 69.02C158.214 69.1986 156.275 68.8476 154.534 68.005C153.241 67.4062 151.861 65.8904 150.308 66.2829C148.931 66.6212 148.041 68.3941 147.107 69.3482C145.79 70.6964 144.321 71.8873 142.729 72.8973C139.911 74.6767 136.744 75.8305 133.442 76.2806C134.193 73.4386 134.898 70.5876 135.557 67.7276C139.711 66.0866 143.436 63.4206 146.742 60.45C146.931 60.2598 147.037 60.0026 147.037 59.7344C147.037 59.4663 146.931 59.209 146.742 59.0189C145.314 57.7332 144.201 55.8554 144.347 53.8627C144.387 53.2773 144.441 52.6041 145.05 52.374C145.45 52.2838 145.87 52.3555 146.218 52.5736C147.117 53.071 147.54 54.3262 147.875 55.2126C148.17 55.9908 149.489 56.2073 149.679 55.2126C149.976 53.6664 150.863 52.506 151.969 51.4165C152.903 50.503 154.385 48.8486 155.799 48.8317C159.182 48.7843 154.473 56.0584 153.708 57.0599C153.204 57.7366 154.047 58.782 154.811 58.4944C155.846 58.102 161.49 56.3799 161.558 58.4403C161.595 59.5602 160.069 60.0812 159.233 60.3553C158.11 60.7207 157.007 60.9778 155.975 61.5733C155.072 62.0943 155.515 63.4003 156.486 63.4544C158.435 63.5593 160.982 63.6439 162.18 65.4675C163.378 67.2911 162.062 68.7629 160.14 69.02Z" fill="#231F20"/>
<path d="M111.704 43.2289C108.855 40.4985 104.183 40.4004 101.845 43.8074C100.669 45.5689 100.03 47.634 100.005 49.7519C99.9522 50.7668 100.129 51.7804 100.522 52.7176C100.915 53.6547 101.514 54.4913 102.275 55.1653C102.304 55.1924 102.34 55.2111 102.38 55.2194C102.604 55.4814 102.847 55.7268 103.107 55.9536C106.271 58.6602 110.696 57.4558 113.085 54.3499C115.73 50.9293 114.725 46.125 111.704 43.2289ZM111.071 53.4567C109.847 54.81 107.932 55.7404 106.091 55.2837C101.869 54.2382 101.564 48.9771 102.63 45.5194C102.845 45.146 103.093 44.7927 103.371 44.4638C104.748 42.8432 107.052 42.6266 108.889 43.5773C110.52 44.4232 111.596 46.0912 112.181 47.793C112.882 49.8906 112.584 51.8191 111.071 53.4567Z" fill="#231F20"/>
<path d="M122.22 45.0592C120.819 38.5328 115.246 33.539 108.402 33.6879C106.527 33.7552 104.688 34.2194 103.006 35.0499C101.324 35.8804 99.8377 37.0583 98.6445 38.5057C98.548 38.4866 98.448 38.4949 98.356 38.5295C98.2639 38.5642 98.1834 38.6239 98.1234 38.702C93.7657 43.5638 94.0093 51.5349 96.9088 57.0295C98.4888 60.0237 101.077 62.8184 104.376 63.8604C107.827 64.9532 111.971 64.1446 115.25 62.7981C118.2 61.5834 120.849 59.5568 122.098 56.5389C123.563 53.0033 123.001 48.6997 122.22 45.0592ZM120.528 52.9356C120.247 56.0754 118.478 58.4268 115.754 59.9121C113.166 61.2997 110.265 61.9988 107.329 61.9421C104.065 61.8338 101.51 59.8444 99.7441 57.2054C98.0465 54.6116 97.1196 51.5895 97.0712 48.4899C97.0265 46.5033 97.3124 44.523 97.9171 42.63C99.6087 39.1959 102.765 36.4622 106.609 35.8633C111.799 35.075 117.415 38.2824 119.242 43.2221C120.351 46.333 120.787 49.6438 120.521 52.9356H120.528Z" fill="#231F20"/>
<path d="M78.2294 62.4631C76.9235 64.1108 75.8848 65.9987 74.7683 67.7783C73.5672 69.6899 72.2545 71.5778 71.2056 73.5807C71.1928 73.6241 71.1946 73.6705 71.2107 73.7128C71.2268 73.755 71.2564 73.7908 71.2948 73.8147C71.3332 73.8385 71.3784 73.849 71.4235 73.8447C71.4685 73.8403 71.5108 73.8213 71.544 73.7905C72.8499 72.0481 73.9461 70.1264 75.11 68.2892C76.2739 66.4521 77.5798 64.6521 78.5272 62.7067C78.6388 62.5172 78.3817 62.2736 78.2294 62.4631Z" fill="#231F20"/>
<path d="M83.1996 55.0401C82.7597 55.5848 82.3876 56.1904 81.9714 56.752C81.518 57.3678 80.9936 57.9328 80.5572 58.5554C80.4523 58.7076 80.6688 58.8396 80.7906 58.7381C81.9232 57.7803 82.834 56.5877 83.4601 55.2431C83.5311 55.0841 83.3281 54.8777 83.1996 55.0401Z" fill="#231F20"/>
<path d="M126.98 81.2609C126.097 83.9236 125.559 86.7114 124.767 89.4046C123.975 92.0977 122.815 94.7333 122.277 97.4603C122.274 97.4804 122.277 97.501 122.287 97.519C122.296 97.5369 122.312 97.5511 122.331 97.5592C122.349 97.5674 122.37 97.5691 122.39 97.5641C122.41 97.559 122.427 97.5475 122.439 97.5313C123.86 95.163 124.605 92.2127 125.396 89.5805C126.205 86.8941 127.088 84.1097 127.383 81.315C127.41 81.0748 127.048 81.0511 126.98 81.2609Z" fill="#231F20"/>
<path d="M128.567 71.2192C128.546 72.6679 128.307 74.1051 127.856 75.4822C127.802 75.6513 128.042 75.7359 128.134 75.5972C128.552 74.9495 128.836 74.2242 128.968 73.4645C129.101 72.7049 129.079 71.9263 128.905 71.1752C128.902 71.153 128.895 71.1315 128.884 71.1121C128.873 71.0927 128.858 71.0757 128.84 71.062C128.822 71.0483 128.802 71.0383 128.78 71.0325C128.759 71.0266 128.736 71.0251 128.714 71.028C128.692 71.0309 128.67 71.0381 128.651 71.0493C128.631 71.0605 128.614 71.0754 128.601 71.0931C128.587 71.1109 128.577 71.1311 128.571 71.1528C128.565 71.1744 128.564 71.1969 128.567 71.2192Z" fill="#231F20"/>
<path d="M72.8838 149.645C73.5875 153.065 74.1288 156.33 73.5604 159.825C73.0766 162.803 72.0142 166.088 69.1621 167.573C66.5941 168.91 63.4848 168.723 60.7342 168.145C57.9835 167.566 55.013 166.514 53.5277 163.956C53.5169 163.937 53.4991 163.924 53.4782 163.918C53.4572 163.912 53.4349 163.915 53.4161 163.926C53.3972 163.937 53.3834 163.954 53.3777 163.975C53.372 163.996 53.3748 164.019 53.3856 164.038C54.8675 166.636 57.6046 167.888 60.4026 168.588C63.2007 169.288 66.4317 169.573 69.1452 168.314C72.0616 166.961 73.4285 163.983 74.0544 160.989C74.8224 157.315 74.8292 153.025 73.3507 149.52C73.3424 149.489 73.3283 149.46 73.3089 149.435C73.2896 149.41 73.2655 149.389 73.238 149.373C73.2105 149.357 73.1802 149.347 73.1487 149.343C73.1172 149.338 73.0853 149.341 73.0546 149.349C73.024 149.357 72.9952 149.371 72.97 149.391C72.9449 149.41 72.9237 149.434 72.9079 149.461C72.892 149.489 72.8817 149.519 72.8776 149.551C72.8734 149.582 72.8755 149.614 72.8838 149.645Z" fill="#231F20"/>
<path d="M54.7017 144.384C56.6878 146.075 63.0924 147.459 63.3901 143.45C63.3901 143.189 63.0518 143.183 62.9605 143.392C61.6376 146.799 55.8555 145.375 54.2145 142.942C52.286 140.06 53.7679 136.602 55.6863 134.173C55.7709 134.065 55.6355 133.912 55.5307 134.017C52.8341 136.687 51.3421 141.542 54.7017 144.384Z" fill="#231F20"/>
<path d="M74.5991 130.614C74.342 132.15 74.1085 133.632 72.6503 134.528C71.8842 134.97 70.9982 135.16 70.1182 135.07C69.2381 134.98 68.4087 134.615 67.7479 134.027C67.643 133.936 67.4907 134.085 67.5922 134.183C68.9253 135.499 70.8572 136.051 72.6165 135.198C74.183 134.447 75.5668 132.359 74.9442 130.603C74.8935 130.461 74.633 130.421 74.5991 130.614Z" fill="#231F20"/>
<path d="M81.2304 170.388C81.1831 170.283 81.0173 170.358 81.0477 170.462C82.0932 173.903 85.9028 174.918 89.1136 174.445C92.7304 173.897 96.6212 172.34 98.1708 168.808C99.6459 165.442 99.7677 160.986 99.1147 157.423C98.4888 154.019 96.4081 150.349 92.7879 149.547C92.5477 149.493 92.3582 149.855 92.6086 149.966C95.6536 151.32 97.5652 153.938 98.252 157.176C98.9307 160.511 98.8148 163.959 97.9137 167.242C96.8479 170.882 94.0296 172.421 90.5718 173.416C87.1141 174.411 82.8544 174.073 81.2304 170.388Z" fill="#231F20"/>
<path d="M109.119 156.378C111.383 156.439 112.377 158.905 112.371 160.854C112.371 162.623 111.552 163.956 110.561 165.34C110.418 165.536 110.703 165.824 110.899 165.678C112.648 164.389 113.311 161.859 112.956 159.785C112.618 157.89 111.264 155.762 109.085 156.124C108.943 156.148 108.981 156.371 109.119 156.378Z" fill="#231F20"/>
<path d="M92.4225 182.111C91.7222 183.502 91.279 185.265 89.6989 185.931C87.7603 186.75 86.4814 185.082 85.6153 183.58C85.5544 183.468 85.3547 183.542 85.4055 183.668C86.0416 185.251 87.0972 187.034 89.0798 186.797C91.2756 186.533 92.4631 184.199 92.7507 182.247C92.7778 182.064 92.5206 181.912 92.4225 182.111Z" fill="#231F20"/>
</svg>
