<svg width="148" height="148" viewBox="0 0 148 148" fill="none" xmlns="http://www.w3.org/2000/svg">
<path d="M71.2447 124.651C79.6314 123.861 88.0279 123.093 96.4343 122.347C97.5147 122.253 98.2843 123.296 98.3435 124.256C98.5498 127.965 99.2866 131.626 100.531 135.126C100.906 136.167 101.518 138.151 102.714 138.543C104.194 139.021 105.936 137.063 106.888 136.103C110.874 132.083 112.899 126.579 114.251 121.19C117.655 107.623 118.812 93.2128 119.027 79.2564C119.362 57.3031 117.132 31.8397 98.7998 16.9484C82.2337 3.49031 56.6667 7.99692 41.7557 21.9311C33.5713 29.5778 29.4988 39.7725 28.7687 50.8602C27.9769 62.8802 29.8368 75.2308 32.3232 86.9648C34.8617 98.9969 38.5908 110.747 43.4552 122.041C45.7591 127.364 48.0383 133.572 51.8024 138.074C52.6436 139.078 54.2962 140.95 55.791 140.092C56.7777 139.527 56.9528 137.872 56.9701 136.87C57.0046 134.791 56.5113 132.867 56.6642 130.859C55.236 128.612 57.6854 126.357 59.8018 125.8C61.4989 125.351 63.4254 125.395 65.1619 125.23L71.2447 124.651ZM33.2186 51.4127C30.8629 51.4127 30.8678 47.7571 33.2186 47.7571C35.5693 47.7571 35.5718 51.4127 33.2186 51.4127ZM37.1332 44.1385C34.6369 43.2875 33.2482 40.0562 34.6936 37.7474C35.0357 37.1957 35.5058 36.7348 36.064 36.4037C36.6223 36.0726 37.2522 35.8811 37.9003 35.8456C40.367 34.775 43.1 37.7178 42.9446 40.145C42.7596 42.883 39.7848 45.0438 37.1332 44.1385ZM104.833 40.3472C105.061 40.2141 105.32 40.1435 105.584 40.1425C105.848 40.1415 106.107 40.2102 106.336 40.3416C106.565 40.4729 106.755 40.6624 106.888 40.8907C107.02 41.1191 107.089 41.3783 107.089 41.6423C107.089 41.9062 107.02 42.1654 106.888 42.3938C106.755 42.6221 106.565 42.8116 106.336 42.9429C106.107 43.0743 105.848 43.143 105.584 43.142C105.32 43.141 105.061 43.0704 104.833 42.9372L104.636 42.8213C104.433 42.6986 104.265 42.5254 104.148 42.3186C104.031 42.1119 103.97 41.8784 103.97 41.641C103.97 41.4036 104.031 41.1702 104.148 40.9634C104.265 40.7566 104.433 40.5835 104.636 40.4607L104.833 40.3472ZM97.4777 29.7702C98.1256 29.3263 98.8783 29.0598 99.6612 28.997C100.444 28.9343 101.23 29.0775 101.94 29.4125C104.592 30.7198 105.332 34.664 103.215 36.773C101.138 38.845 97.1916 38.3172 95.9015 35.626C95.6258 35.0281 95.4996 34.372 95.534 33.7144C95.1714 32.1653 96.2 30.6236 97.4876 29.7702H97.4777ZM50.7738 71.5481C47.397 66.2004 47.2366 58.2528 48.1493 52.1527C49.0126 46.3807 52.2193 41.4079 56.9602 38.0335C65.1471 32.2048 76.3655 33.3814 83.6002 40.219C91.612 47.799 92.9859 62.0736 88.5336 71.7923C84.2342 81.2002 73.7089 86.7724 63.6893 83.139C57.8162 81.0152 53.4107 76.7651 50.7738 71.5481Z" fill="white"/>
<path d="M100.758 34.3434C101.217 33.8846 100.948 32.814 100.381 32.5624C99.5891 32.2122 99.0415 33.0755 98.7332 33.7588C98.7455 33.8081 98.7554 33.8574 98.7726 33.9092C99.0119 34.6073 100.223 34.8737 100.758 34.3434Z" fill="white"/>
<path d="M39.0129 39.2644C38.6477 39.01 38.2504 38.8051 37.8314 38.6552C37.5997 38.8239 37.4313 39.0653 37.3528 39.3409C37.1604 40.0809 37.7648 41.1119 38.5862 40.9195C39.5112 40.7 39.7134 39.8046 39.0129 39.2644Z" fill="white"/>
<path d="M86.4592 66.4249C88.6299 57.8211 86.5406 46.4177 78.9038 41.0823C75.4833 38.6525 71.3056 37.5283 67.1276 37.9134C62.9497 38.2985 59.0478 40.1674 56.1291 43.1815C51.1119 48.3072 50.2091 55.7615 50.7641 62.9148C53.5613 70.9413 58.3392 78.5461 67.2439 80.327C76.452 82.1647 84.3083 74.9398 86.4592 66.4249ZM77.7815 72.9739C74.7154 75.1717 70.5172 75.3789 66.9282 74.5846C63.5587 73.8446 60.3372 71.9724 58.3368 69.1209C55.9071 65.6676 56.1834 61.2819 56.472 57.2587C56.5851 55.7039 56.8268 54.161 57.1947 52.6461C57.1965 52.5478 57.2097 52.4502 57.2342 52.355C58.1394 48.9189 58.8202 44.1928 61.9085 41.9506C65.2607 39.5185 70.9612 40.6137 74.6488 41.7459C83.2822 44.3951 84.55 54.9154 83.2526 62.6681C82.6162 66.5211 81.0671 70.6157 77.7815 72.9739Z" fill="#8DC63F"/>
<path d="M78.7779 62.419C76.6812 61.6173 74.6166 61.1191 72.3646 61.1413C71.4928 61.1714 70.6249 61.2729 69.7696 61.4447C70.9407 62.4642 71.9082 63.6962 72.6211 65.0756C73.5486 66.9675 70.6996 68.6251 69.7943 66.7307C68.8063 64.589 67.0436 62.9012 64.861 62.0071C63.1072 61.2917 61.4471 61.3707 59.6982 61.3139C59.7648 64.1531 60.3272 66.7184 62.6262 68.6745C64.6612 70.4011 67.4238 71.2941 70.0706 71.3607C73.4696 71.4445 76.2372 70.2383 77.885 67.1945C78.6598 65.7327 79.2016 64.159 79.4908 62.53C79.2478 62.5486 79.0037 62.5106 78.7779 62.419Z" fill="white"/>
<path d="M69.7352 44.6467C67.8926 44.4 66.0821 44.2175 64.6391 44.8613C63.584 45.7479 62.719 46.8386 62.096 48.0679C61.6865 49.1311 61.356 50.2016 60.8626 51.1858C60.2229 53.5094 59.8521 55.8988 59.7576 58.3071C62.0072 57.6238 64.5281 58.1591 66.7802 59.3455C70.2014 56.9973 76.267 57.8532 79.6488 59.2469C79.7228 59.2797 79.7945 59.3176 79.8634 59.3603C79.8905 58.8275 79.9078 58.2997 79.9028 57.7767C79.8831 54.6416 79.4095 50.5864 77.5496 47.9421C75.8279 45.5273 72.4831 45.0019 69.7352 44.6467Z" fill="#231F20"/>
<path d="M61.6888 129.438C62.4066 129.335 63.1392 129.305 63.862 129.239L68.6374 128.797L77.7641 127.956C83.4177 127.433 89.0688 126.892 94.7175 126.333C94.9959 129.12 95.5402 131.875 96.343 134.559C97.0978 137.026 97.9735 139.86 100.105 141.495C104.962 145.225 110.438 138.691 112.889 134.996C116.062 130.215 117.709 124.525 118.861 118.962C120.252 112.045 121.282 105.06 121.947 98.0352C123.37 83.8272 123.743 69.2196 121.831 55.0387C120.156 42.6191 116.158 30.4313 108.097 20.6608C100.563 11.5341 90.0037 5.61414 78.0897 5.10107C66.5136 4.59047 54.6317 8.10053 45.1005 14.6619C35.4534 21.3021 28.6256 30.9986 26.27 42.5352C23.5566 55.8182 25.53 70.0139 27.9794 83.1933C30.5292 96.7599 34.5541 110.007 39.9822 122.699C42.5352 128.681 45.1054 135.526 49.3678 140.514C51.0131 142.445 53.4822 144.283 56.1734 143.592C58.3292 143.04 59.644 141.029 60.083 138.952C60.6109 136.458 59.6736 133.982 59.7303 131.515C60.3371 131.113 60.717 130.442 60.4703 129.707C60.5024 129.69 60.5344 129.673 60.5714 129.648C60.9194 129.482 61.3045 129.41 61.6888 129.438ZM59.8043 125.8C57.6879 126.357 55.2385 128.612 56.6667 130.859C56.5138 132.867 57.0071 134.791 56.9726 136.87C56.9553 137.857 56.7802 139.527 55.7935 140.092C54.2987 140.95 52.646 139.078 51.8049 138.074C48.0408 133.585 45.7616 127.376 43.4577 122.041C38.5932 110.747 34.8642 98.997 32.3256 86.9648C29.8466 75.2333 27.9794 62.8852 28.7712 50.8651C29.5112 39.7651 33.5738 29.5877 41.7582 21.9361C56.6692 8.00187 82.2361 3.49527 98.8023 16.9534C117.132 31.8447 119.362 57.3007 119.029 79.2614C118.814 93.2129 117.657 107.628 114.253 121.195C112.902 126.584 110.877 132.088 106.89 136.108C105.938 137.068 104.199 139.026 102.717 138.548C101.511 138.156 100.909 136.172 100.534 135.131C99.289 131.631 98.5522 127.97 98.346 124.261C98.2868 123.301 97.5172 122.258 96.4368 122.352C88.0386 123.093 79.642 123.861 71.2472 124.655L65.1668 125.228C63.4278 125.388 61.5014 125.344 59.8043 125.8Z" fill="#231F20"/>
<path d="M74.6561 41.7458C70.9561 40.6136 65.2679 39.5258 61.9157 41.9506C58.8275 44.1928 58.1467 48.9189 57.2414 52.355C57.217 52.4501 57.2038 52.5478 57.2019 52.646C56.8341 54.161 56.5923 55.7038 56.4792 57.2587C56.1906 61.2818 55.9143 65.6577 58.344 69.1209C60.3445 71.9724 63.5659 73.8396 66.9354 74.5846C70.517 75.3788 74.7153 75.1716 77.7887 72.9738C81.0743 70.6157 82.6234 66.521 83.2672 62.6681C84.5573 54.9154 83.3017 44.4 74.6561 41.7458ZM77.8899 67.1944C76.2323 70.2383 73.4745 71.4445 70.0755 71.3606C67.4287 71.294 64.6661 70.4085 62.6311 68.6744C60.3321 66.7184 59.7697 64.153 59.7031 61.3139C61.452 61.3706 63.1121 61.2917 64.8659 62.007C67.0485 62.9011 68.8112 64.589 69.7992 66.7307C70.7045 68.6251 73.5535 66.9774 72.626 65.0756C71.9131 63.6962 70.9456 62.4642 69.7745 61.4446C70.6298 61.2728 71.4977 61.1714 72.3695 61.1412C74.6265 61.119 76.6911 61.6173 78.7828 62.419C79.0102 62.5114 79.256 62.5494 79.5006 62.53C79.2099 64.1592 78.6664 65.733 77.8899 67.1944ZM79.8632 59.3751C79.7944 59.3324 79.7227 59.2945 79.6486 59.2616C76.2668 57.868 70.2013 57.012 66.78 59.3603C64.5279 58.1738 62.007 57.6336 59.7574 58.3218C59.852 55.9136 60.2228 53.5242 60.8625 51.2006C61.3558 50.2139 61.6863 49.1458 62.0958 48.0827C62.7188 46.8534 63.5838 45.7627 64.6389 44.876C66.0819 44.2322 67.8925 44.4271 69.7351 44.6614C72.4829 45.0117 75.8278 45.5371 77.5495 47.9668C79.4192 50.611 79.8829 54.6662 79.9027 57.8014C79.9199 58.3144 79.8903 58.8423 79.8632 59.3751Z" fill="#231F20"/>
<path d="M88.5212 71.78C92.9612 62.0564 91.5922 47.7818 83.5879 40.2066C76.3655 33.369 65.1471 32.1924 56.9602 38.0212C52.2193 41.3956 49.0126 46.3684 48.1493 52.1404C47.2366 58.2404 47.4093 66.188 50.7738 71.5358C53.4107 76.7528 57.8161 81.0028 63.6769 83.1291C73.6965 86.7674 84.2218 81.1952 88.5212 71.78ZM67.2437 80.3122C58.3391 78.5312 53.5611 70.9265 50.7639 62.9C50.2089 55.7466 51.1117 48.2998 56.1289 43.1666C59.0477 40.1526 62.9495 38.2837 67.1275 37.8986C71.3054 37.5135 75.4832 38.6377 78.9037 41.0675C86.5503 46.4029 88.6297 57.8063 86.4591 66.41C84.3081 74.9398 76.4518 82.1646 67.2437 80.3196V80.3122Z" fill="#231F20"/>
<path d="M37.893 35.8456C37.2449 35.8812 36.615 36.0727 36.0567 36.4038C35.4985 36.7348 35.0284 37.1958 34.6863 37.7474C33.2409 40.0562 34.6296 43.2876 37.1259 44.1386C39.7775 45.0438 42.7523 42.883 42.9299 40.145C43.0927 37.7178 40.372 34.78 37.893 35.8456ZM38.5985 40.9196C37.7647 41.112 37.1604 40.0883 37.3651 39.3409C37.4436 39.0653 37.612 38.8239 37.8437 38.6552C38.2627 38.8051 38.66 39.01 39.0252 39.2644C39.7134 39.8046 39.5111 40.7 38.5985 40.9196Z" fill="#231F20"/>
<path d="M95.9115 35.6261C97.2016 38.3172 101.148 38.8328 103.225 36.7731C105.342 34.6641 104.602 30.7199 101.95 29.4126C101.24 29.0776 100.454 28.9343 99.6712 28.9971C98.8883 29.0598 98.1356 29.3264 97.4877 29.7702C96.205 30.6237 95.1715 32.1654 95.544 33.7169C95.5101 34.3737 95.6362 35.0289 95.9115 35.6261ZM100.393 32.56C100.961 32.8067 101.23 33.8822 100.771 34.341C100.236 34.8713 99.0245 34.6049 98.7852 33.9068C98.7679 33.855 98.758 33.8057 98.7457 33.7564C99.0417 33.0756 99.5893 32.2122 100.393 32.56Z" fill="#231F20"/>
<path d="M104.646 42.8213L104.843 42.9373C105.071 43.0704 105.33 43.141 105.594 43.142C105.858 43.143 106.117 43.0743 106.346 42.9429C106.575 42.8116 106.765 42.6221 106.897 42.3938C107.03 42.1654 107.099 41.9062 107.099 41.6423C107.099 41.3783 107.03 41.1191 106.897 40.8907C106.765 40.6624 106.575 40.4729 106.346 40.3416C106.117 40.2102 105.858 40.1415 105.594 40.1425C105.33 40.1435 105.071 40.2141 104.843 40.3473L104.646 40.4607C104.443 40.5835 104.274 40.7566 104.158 40.9634C104.041 41.1702 103.98 41.4036 103.98 41.641C103.98 41.8784 104.041 42.1119 104.158 42.3186C104.274 42.5254 104.443 42.6986 104.646 42.8213Z" fill="#231F20"/>
<path d="M33.2185 47.7571C30.8678 47.7571 30.8628 51.4127 33.2185 51.4127C35.5742 51.4127 35.5742 47.7571 33.2185 47.7571Z" fill="#231F20"/>
</svg>
