<svg width="244" height="233" viewBox="0 0 244 233" fill="none" xmlns="http://www.w3.org/2000/svg">
<path d="M76.911 119.253C93.1177 122.443 109.784 122.924 126.246 122.126C134.358 121.736 142.453 121.026 150.513 120.15C152.597 119.925 154.794 119.856 156.839 119.409C159.006 118.937 159.634 117.338 160.306 115.384C160.306 115.34 160.332 115.301 160.345 115.258C142.754 117.484 124.984 117.942 107.301 116.627C98.6341 116 90.0122 114.959 81.4351 113.503C76.8547 112.727 70.6017 112.017 67.538 108.108C67.3936 109.935 67.5399 111.774 67.9714 113.555C69.0157 117.624 73.31 118.543 76.911 119.253Z" fill="white"/>
<path d="M53.3898 183.569C52.8698 187.161 52.0898 190.961 52.3888 194.614C52.7614 198.969 55.7731 202.081 60.3534 200.889C64.4701 199.819 66.8144 195.893 68.6951 192.4C68.7306 192.34 68.7696 192.282 68.8121 192.227C67.9454 169.563 67.4731 146.813 68.0624 124.15C64.5741 130.295 62.9751 137.51 61.2461 144.274C59.065 152.802 57.1872 161.396 55.6128 170.057C54.7865 174.552 54.0455 179.056 53.3898 183.569Z" fill="white"/>
<path d="M68.8206 97.7773C72.4303 99.008 76.0053 100.13 79.6279 101.084C78.8133 92.2697 79.7753 82.9877 80.6073 74.2517C81.3959 66.0183 81.9636 57.005 84.7586 49.153C85.8853 45.9897 87.5926 42.276 90.5783 40.4387C92.9616 38.9697 95.8823 39.26 97.6546 41.4787C99.4876 43.7753 99.4703 47.0297 99.3879 49.8073C99.2406 53.7536 99.0803 57.6983 98.9069 61.6417C103.929 60.4413 109.359 60.1337 114.446 59.982C119.758 59.8479 125.071 60.1377 130.337 60.8487C131.255 54.7517 133.972 48.204 138.86 44.382C141.027 42.6833 143.826 42.107 146.205 43.7493C148.866 45.5867 149.408 48.9493 149.304 51.948C149 60.7533 148.147 69.5717 147.57 78.3813C146.993 87.0827 146.399 95.784 145.789 104.485L149.377 104.325C151.518 104.217 153.659 104.1 155.799 103.961C157.45 103.853 158.963 103.827 160.341 102.817C160.472 102.723 160.619 102.651 160.774 102.605C171.434 87.0783 174.818 67.0713 169.345 48.984C167.967 44.4253 166.126 39.884 163.036 36.1703C160.38 32.994 157.16 30.2337 153.936 27.651C147.156 22.1644 139.566 17.7615 131.437 14.599C116.054 8.736 98.8506 8.346 84.0956 16.2283C70.3416 23.595 59.9719 36.8377 56.8866 52.195C53.6843 68.1417 58.2213 85.3103 68.7686 97.6603C68.7878 97.6984 68.8052 97.7375 68.8206 97.7773ZM160.731 78.624C160.414 79.1743 159.673 78.7757 159.769 78.2167C160.25 75.4087 161.017 72.878 160.8 69.9833C160.8 69.8907 160.833 69.8012 160.894 69.7315C160.955 69.6618 161.039 69.6166 161.131 69.6044C161.223 69.5922 161.316 69.6138 161.393 69.6652C161.47 69.7166 161.526 69.7942 161.55 69.8837C162.1 72.683 162.217 76.0587 160.731 78.624ZM140.923 28.7907C148.511 31.8977 154.985 36.4563 158.503 44.07C161.489 50.5353 163.11 59.2367 161.346 66.2697C161.311 66.3886 161.234 66.491 161.13 66.5583C161.025 66.6256 160.9 66.6534 160.777 66.6367C160.654 66.6199 160.541 66.5597 160.459 66.467C160.376 66.3743 160.33 66.2551 160.328 66.131C160.146 62.5473 160.445 58.9897 160.011 55.4103C159.599 51.767 158.639 48.2068 157.164 44.85C155.781 41.7094 153.817 38.8586 151.375 36.4477C148.277 33.4447 144.407 31.4167 140.78 29.133C140.611 29.0333 140.724 28.717 140.923 28.7993V28.7907Z" fill="#CDCDFF"/>
<path d="M143.376 159.033C142.6 162.777 140.91 164.667 137.019 165.1C131.819 165.694 126.445 165.663 121.202 165.854C110.464 166.244 99.5569 166.855 88.8146 166.4C85.6469 166.266 82.1542 165.793 79.6149 163.726C76.4906 161.178 76.3996 157.274 76.6336 153.552C77.2619 143.403 77.5349 133.046 78.8522 122.945C76.1916 122.512 73.4529 122.005 71.0002 120.961C71.0851 121.162 71.1279 121.379 71.1259 121.598C71.128 121.618 71.128 121.638 71.1259 121.658C71.1302 121.697 71.1302 121.736 71.1259 121.775C71.1259 134.832 71.0176 147.884 71.2039 160.94C71.5419 184.311 72.4721 207.665 73.9946 231.001C74.1939 233.987 74.3846 236.977 74.6142 239.963C74.8136 242.48 75.0476 245.366 76.7809 247.329C78.9996 249.812 82.1152 249.063 83.7142 246.367C85.0532 244.105 85.0489 241.245 85.2266 238.706C86.0384 227.214 86.8357 215.723 87.6186 204.234C84.6375 203.259 81.8208 201.839 79.2639 200.022C78.3192 199.329 78.8609 197.448 80.1306 197.96C84.2386 199.624 88.2339 201.288 92.5759 202.267C97.0029 203.236 101.517 203.751 106.048 203.805C110.845 203.869 115.641 203.678 120.418 203.233C124.877 202.848 129.357 202.674 133.569 201.093C134.969 200.568 135.662 202.432 134.869 203.359C134.169 204.164 133.274 204.776 132.269 205.136C133.067 218.387 134.731 231.5 137.903 244.409C138.496 246.848 138.86 251.021 141.179 252.495C144.312 254.484 146.119 249.392 146.738 247.156C148.229 241.774 147.978 235.82 148.251 230.282C148.828 218.345 149.422 206.407 150.032 194.467C151.228 170.72 152.455 146.978 153.715 123.24C151.548 123.483 149.382 123.712 147.241 123.929C147.025 135.724 145.731 147.474 143.376 159.033Z" fill="white"/>
<path d="M152.801 107.636C148.519 107.884 144.235 108.073 139.948 108.203C131.377 108.463 122.803 108.497 114.225 108.303C99.2321 107.961 82.5661 107.332 68.6734 100.936C68.4438 102.054 68.2098 103.203 68.0061 104.364C68.1813 104.457 68.3303 104.593 68.4394 104.758C70.3028 107.523 73.2321 108.658 76.3781 109.391C79.9141 110.188 83.5454 110.691 87.1334 111.206C95.2801 112.399 103.473 113.207 111.712 113.629C127.965 114.437 144.258 113.847 160.41 111.865C160.634 111.834 160.861 111.852 161.077 111.917C161.301 110.072 161.261 108.204 160.96 106.37C158.581 107.679 155.461 107.467 152.801 107.636Z" fill="white"/>
<path d="M157.385 122.815L157.19 122.85C156.41 138.161 155.622 153.456 154.824 168.736L154.447 175.99C158.867 183.04 162.442 191.837 169.272 196.79C172.552 199.164 179.451 201.656 181.435 196.4C183.229 191.633 179.29 185.787 177.488 181.545C169.441 162.798 162.715 143.511 157.359 123.825C157.262 123.494 157.271 123.141 157.385 122.815Z" fill="white"/>
<path d="M90.8298 78.8666C90.7932 79.0318 90.8168 79.2045 90.8962 79.3538C90.9757 79.5032 91.1057 79.6193 91.2631 79.6813C91.7354 79.7853 92.2034 79.2133 92.1601 78.78C92.1323 78.5579 92.0352 78.3501 91.8828 78.1863C91.4018 78.3076 90.9338 78.4983 90.8298 78.8666Z" fill="white"/>
<path d="M95.3319 43.823C92.8662 39.897 89.0529 47.06 88.2339 49.0577C87.0552 51.9393 86.4356 55.0203 85.9199 58.0797C84.6502 65.5763 83.7792 73.1467 83.1986 80.73C82.6656 87.7067 82.8172 94.7613 82.2019 101.721C84.9709 102.379 87.7832 102.921 90.6649 103.32C98.1399 104.355 105.697 104.676 113.233 104.836C121.322 105.01 129.403 104.987 137.478 104.767C139.12 104.724 140.767 104.663 142.409 104.602C143.276 91.013 144.26 77.4237 145.204 63.8343C145.447 60.3287 145.72 56.823 145.937 53.313C146.088 50.8083 145.854 43.9703 141.465 46.4967C138.912 47.9657 137.097 51.1723 135.831 53.7377C134.465 56.5366 133.622 59.562 133.344 62.6643C133.337 62.9123 133.274 63.1556 133.161 63.3763C133.048 63.597 132.887 63.7897 132.689 63.94C132.492 64.0904 132.263 64.1948 132.021 64.2455C131.778 64.2962 131.527 64.2919 131.286 64.233C125.548 63.3932 119.75 63.0366 113.952 63.167C108.297 63.284 102.816 64.259 97.2082 64.7833C97.0472 64.805 96.8834 64.7901 96.7288 64.7399C96.5743 64.6896 96.4331 64.6052 96.3156 64.493C96.0653 64.3647 95.859 64.1646 95.7231 63.9183C95.5872 63.672 95.528 63.3908 95.5529 63.1107C95.6916 59.4707 95.8562 55.8263 96.0122 52.1863C96.1076 49.6643 96.7662 46.1153 95.3319 43.823ZM91.1416 82.615C89.1179 82.5023 87.6749 80.4483 88.0086 78.5113C88.2512 77.1463 89.2176 76.4053 90.3789 76.0587C90.4325 75.8588 90.5345 75.6752 90.6758 75.5241C90.8171 75.3729 90.9934 75.2589 91.1892 75.192C93.3819 74.4033 95.2452 77.1073 95.1499 79.0313C95.0765 80.0317 94.6176 80.9645 93.8698 81.633C93.122 82.3016 92.1439 82.6536 91.1416 82.615ZM123.802 79.339C123.925 78.6013 124.284 77.9234 124.825 77.4063C125.292 76.9622 125.861 76.6406 126.483 76.4705C127.104 76.3003 127.759 76.2869 128.387 76.4313C130.852 77.0423 131.975 80.223 130.588 82.29C129.132 84.4567 125.54 84.4263 124.192 82.1513C123.709 81.2977 123.569 80.2919 123.802 79.339ZM103.167 82.7667C103.431 81.4927 105.489 81.7917 105.424 83.0743C105.346 84.6473 105.359 86.2247 105.424 87.7977C105.455 88.5863 105.26 89.0977 106.022 89.3967C106.558 89.5422 107.127 89.5103 107.643 89.3057C110.676 88.3177 110.217 85.2843 110.442 82.784C110.546 81.614 112.154 80.9597 112.8 82.1427C114.88 85.9647 112.128 91.3423 107.99 92.2393C106.165 92.6337 103.656 92.2393 102.85 90.2937C101.971 88.1443 102.733 84.9333 103.167 82.7667Z" fill="white"/>
<path d="M83.6406 163.965C87.3412 165.143 91.5012 164.771 95.3406 164.732C104.637 164.642 113.926 164.402 123.208 164.012C127.75 163.822 132.404 163.843 136.915 163.293C138.466 163.107 139.541 162.838 140.49 161.534C141.3 160.42 141.469 159.41 141.738 158.067C142.191 155.805 142.601 153.537 142.968 151.264C144.41 142.276 145.231 133.199 145.425 124.098C128.733 125.736 111.916 126.533 95.1932 125.112C90.5392 124.713 85.9069 124.125 81.2962 123.348L80.1262 123.158C80.0786 133.28 78.8652 143.464 78.2629 153.556C77.9812 158.245 78.6789 162.383 83.6406 163.965ZM104.965 148.443C104.839 149.188 104.718 149.938 104.597 150.683C104.506 151.233 104.51 151.983 104.137 152.442C103.487 153.235 101.906 152.876 101.017 152.876C100.008 152.876 99.2276 152.733 99.1712 151.576C99.1155 150.144 99.188 148.709 99.3879 147.29C99.4356 146.943 99.7562 146.917 99.9902 147.06C100.088 147.004 100.198 146.973 100.311 146.969C101.732 146.897 103.154 147.115 104.488 147.611C104.657 147.665 104.8 147.78 104.888 147.934C104.976 148.088 105.004 148.27 104.965 148.443ZM118.216 152.876C118.174 153.02 118.086 153.148 117.966 153.239C117.846 153.33 117.7 153.381 117.549 153.383C116.375 153.404 115.196 153.439 114.022 153.443C113.367 153.443 112.722 153.443 112.202 152.975C110.967 151.892 111.985 150.219 112.098 148.893C112.061 148.788 112.05 148.676 112.066 148.566C112.081 148.456 112.123 148.351 112.186 148.26C112.25 148.169 112.335 148.095 112.433 148.043C112.532 147.991 112.641 147.963 112.752 147.962H115.928C116.526 147.962 117.28 147.853 117.774 148.282C118.875 149.218 118.507 151.667 118.216 152.876ZM121.445 139.629C121.986 134.827 127.511 131.122 132.122 132.674C132.167 132.689 132.207 132.715 132.239 132.75C132.271 132.785 132.293 132.827 132.304 132.873C133.399 133.392 134.343 134.182 135.048 135.167C135.752 136.153 136.193 137.302 136.33 138.506C136.975 143.364 134.943 149.218 129.154 148.711C124.656 148.326 120.933 144.183 121.445 139.629ZM97.8929 135.876C97.8906 135.483 97.9596 135.092 98.0966 134.723C98.1432 134.561 98.2409 134.418 98.3752 134.316C98.5094 134.214 98.6731 134.158 98.8419 134.156C104.475 134.589 110.139 135.148 115.79 135.646C117.042 135.759 118.333 135.59 118.78 136.92C119.083 137.835 118.862 139.013 118.858 139.954C118.858 141.47 118.847 142.987 118.827 144.504C118.827 144.706 118.747 144.901 118.604 145.045C118.461 145.188 118.267 145.27 118.065 145.271C111.553 144.725 105.027 144.384 98.4866 144.248C98.3137 144.244 98.1492 144.173 98.0273 144.05C97.9054 143.927 97.8355 143.762 97.8322 143.589C97.5862 141.023 97.6065 138.438 97.8929 135.876ZM85.4302 133.9C87.2589 133.35 89.4342 133.826 91.2542 134.268C91.4153 134.315 91.5571 134.412 91.6585 134.546C91.76 134.679 91.8158 134.842 91.8176 135.009C91.7699 137.462 92.1512 140.417 91.5706 142.809C91.1676 144.456 89.8069 145.31 88.1342 145.149C86.6652 145.006 84.5766 144.304 84.3339 142.645C84.0046 140.378 84.6069 137.241 85.2482 134.962C85.1623 134.893 85.0964 134.803 85.0574 134.7C85.0183 134.597 85.0075 134.486 85.0261 134.377C85.0446 134.269 85.0919 134.167 85.163 134.083C85.2341 134 85.3264 133.936 85.4302 133.9ZM84.2516 148.369C84.3369 148.331 84.4291 148.312 84.5224 148.312C84.6157 148.312 84.7079 148.331 84.7932 148.369C86.8819 147.823 89.2956 148.209 91.4146 148.3C91.5985 148.303 91.7741 148.378 91.9042 148.508C92.0343 148.638 92.1089 148.813 92.1122 148.997C92.1122 150.982 92.1223 152.97 92.1426 154.96C92.1403 155.154 92.0624 155.339 91.9256 155.475C91.7887 155.612 91.6038 155.69 91.4102 155.692C88.9749 155.796 86.5396 155.905 84.1042 155.996C83.9398 155.997 83.7797 155.943 83.6488 155.844C83.5179 155.744 83.4236 155.604 83.3806 155.445C83.1119 153.647 82.0286 149.322 84.2516 148.356V148.369Z" fill="white"/>
<path d="M100.333 148.339C100.38 148.971 100.402 149.604 100.415 150.241C100.415 150.419 100.307 151.485 100.415 151.567C100.523 151.649 101.156 151.567 101.377 151.567C101.81 151.602 102.244 151.602 102.677 151.567C102.911 151.675 103.063 151.632 103.11 151.437C103.158 151.242 103.188 150.939 103.223 150.687C103.323 150.033 103.427 149.387 103.526 148.724C102.491 148.416 101.411 148.285 100.333 148.339Z" fill="white"/>
<path d="M127.962 80.522C128.033 80.3421 128.041 80.1438 127.986 79.9585C127.931 79.7732 127.816 79.6116 127.659 79.4993C127.533 79.4626 127.4 79.4626 127.275 79.4995C127.15 79.5364 127.038 79.6085 126.952 79.7073C126.914 79.786 126.881 79.8671 126.853 79.95C126.803 80.0472 126.782 80.1563 126.791 80.2651C126.8 80.3738 126.84 80.4778 126.905 80.5653C127.058 80.6843 127.248 80.7453 127.441 80.7373C127.635 80.7294 127.819 80.6531 127.962 80.522Z" fill="white"/>
<path d="M129.717 140.963C130.519 140.963 131.195 139.975 130.727 139.26C130.293 138.632 129.639 138.801 129.037 138.576C128.805 138.727 128.627 138.95 128.53 139.209C128.433 139.469 128.422 139.753 128.498 140.02C128.574 140.287 128.733 140.522 128.953 140.692C129.172 140.862 129.44 140.957 129.717 140.963Z" fill="white"/>
<path d="M116.327 149.357C115.257 149.296 114.16 149.357 113.09 149.357C113.114 149.572 113.114 149.788 113.09 150.003C113.034 150.518 112.735 151.181 112.943 151.684C113.203 152.312 114.481 152.052 115.066 152.039L116.986 151.996C117.085 151.468 117.112 150.928 117.064 150.393C116.994 149.717 117.033 149.4 116.327 149.357Z" fill="white"/>
<path d="M128.3 147.069C137.4 149.106 136.967 131.083 127.433 134.147C127.353 134.174 127.268 134.18 127.185 134.164C127.102 134.148 127.025 134.111 126.961 134.056C124.734 135.278 122.961 137.471 122.745 139.806C122.45 143.256 124.976 146.324 128.3 147.069ZM127.355 139.143C127.464 138.798 127.653 138.484 127.907 138.226C128.161 137.969 128.472 137.775 128.816 137.661C129.834 136.513 131.823 137.856 132.209 139.022C132.316 139.41 132.332 139.817 132.256 140.213C132.181 140.608 132.015 140.981 131.773 141.302C131.53 141.623 131.217 141.884 130.858 142.065C130.498 142.246 130.102 142.342 129.7 142.346C129.322 142.322 128.954 142.216 128.622 142.034C128.29 141.852 128.002 141.599 127.779 141.293C127.556 140.988 127.403 140.636 127.332 140.265C127.26 139.893 127.271 139.51 127.364 139.143H127.355Z" fill="white"/>
<path d="M117.332 143.693C117.449 141.83 117.766 138.927 116.799 137.839C115.729 136.643 112.548 136.912 110.945 136.769C107.08 136.431 103.206 136.114 99.3402 135.75C99.2433 135.929 99.1333 136.1 99.0109 136.262C98.9386 136.358 98.8412 136.433 98.7292 136.478C98.8636 138.645 98.9242 140.79 99.0976 142.944C105.187 142.981 111.266 143.231 117.332 143.693Z" fill="white"/>
<path d="M87.3933 143.433C88.494 143.602 89.9197 142.532 90.1493 141.483C90.2267 140.764 90.2412 140.039 90.1927 139.317L90.2707 135.599C88.9707 135.356 87.6273 135.339 86.3187 135.165C86.0327 137.518 84.7153 143.039 87.3933 143.433Z" fill="white"/>
<path d="M90.6822 154.267C90.6822 152.738 90.6923 151.209 90.7126 149.678C89.1798 149.688 87.6486 149.581 86.1322 149.357C86.0183 149.445 85.8813 149.497 85.7379 149.509C85.4656 149.526 85.1923 149.501 84.9276 149.435C84.0219 150.484 84.4682 152.971 84.7326 154.483C86.7143 154.391 88.6976 154.319 90.6822 154.267Z" fill="white"/>
<path d="M53.7277 163.479C52.0752 171.765 50.7074 180.101 49.624 188.487C48.922 193.93 48.831 201.114 54.8587 203.589C60.6394 205.963 65.692 202.393 69.0374 197.873C69.0836 199.011 69.1327 200.151 69.1847 201.292C69.748 214.318 70.3764 227.379 71.4684 240.374C71.8367 244.768 72.9287 249.96 77.5913 251.719C81.7427 253.283 85.6167 250.38 87.1247 246.597C88.3033 243.668 88.3077 240.344 88.5244 237.237C88.7844 233.591 89.0415 229.945 89.2957 226.3C89.7926 219.265 90.2938 212.235 90.7994 205.209C95.9994 206.535 101.49 207.003 106.542 207.112C111.83 207.165 117.117 206.915 122.376 206.362C124.326 206.18 126.987 206.232 129.448 205.851C129.798 218.487 131.431 231.054 134.323 243.36C135.346 247.81 136.139 255.147 141.69 256.208C146.617 257.144 149.156 251.008 150.058 247.204C151.431 241.414 151.241 235.183 151.566 229.272C151.93 222.541 152.295 215.814 152.662 209.092C153.165 199.824 153.656 190.554 154.135 181.281C156.874 186.684 160.011 192.079 164.076 196.387C168.141 200.694 176.149 205.331 181.817 201.036C188.728 195.797 182.714 185.735 180.261 179.825C176.63 171.071 173.25 162.217 170.121 153.261C166.607 143.251 163.508 133.116 160.588 122.928C160.487 122.537 160.24 122.199 159.899 121.983C160.078 121.88 160.252 121.768 160.419 121.645C161.901 120.545 162.655 118.794 163.283 117.113C164.82 112.929 165.022 108.373 163.864 104.069C173.999 89.518 177.605 70.8544 174.073 53.5124C172.136 44.031 168.271 35.7457 161.073 29.1807C154.335 22.9523 146.694 17.7777 138.41 13.832C122.376 6.30936 103.843 4.04736 87.2417 11.0674C72.166 17.446 59.9417 30.4157 55.0494 46.098C49.3814 64.246 53.8187 84.89 66.121 99.294C64.7212 103.455 64.2118 107.863 64.626 112.233C64.873 115.037 65.926 117.433 67.9194 119.128C63.5514 124.696 61.5277 131.495 59.686 138.255C57.398 146.595 55.4119 155.003 53.7277 163.479ZM150.045 194.463C149.444 206.402 148.85 218.341 148.264 230.278C147.991 235.816 148.242 241.77 146.751 247.152C146.132 249.388 144.325 254.479 141.192 252.49C138.873 251.017 138.509 246.857 137.916 244.404C134.757 231.495 133.093 218.383 132.282 205.131C133.287 204.772 134.182 204.16 134.882 203.355C135.654 202.427 134.96 200.564 133.582 201.088C129.37 202.67 124.89 202.843 120.431 203.229C115.661 203.683 110.87 203.884 106.079 203.831C101.547 203.777 97.0333 203.262 92.6064 202.293C88.273 201.314 84.269 199.65 80.161 197.986C78.887 197.474 78.3454 199.355 79.2944 200.048C81.8513 201.865 84.6679 203.285 87.649 204.26C86.8546 215.752 86.0572 227.243 85.257 238.732C85.0793 241.271 85.0837 244.131 83.7447 246.393C82.1544 249.089 79.0387 249.838 76.8113 247.355C75.0477 245.375 74.8223 242.489 74.6447 239.989C74.415 237.003 74.2114 234.013 74.025 231.027C72.4852 207.705 71.555 184.352 71.2344 160.966C71.048 147.91 71.1694 134.858 71.1564 121.801C71.1606 121.762 71.1606 121.723 71.1564 121.684C71.1584 121.664 71.1584 121.644 71.1564 121.624C71.1583 121.405 71.1156 121.188 71.0307 120.987C73.4834 122.031 76.2307 122.538 78.8827 122.971C77.5827 133.072 77.2924 143.429 76.664 153.578C76.43 157.3 76.521 161.204 79.6454 163.752C82.1847 165.819 85.6773 166.292 88.845 166.426C99.5874 166.881 110.512 166.27 121.232 165.88C126.476 165.689 131.836 165.72 137.049 165.126C140.949 164.693 142.63 162.808 143.406 159.059C145.765 147.502 147.064 135.753 147.284 123.959C149.451 123.743 151.618 123.526 153.758 123.27C152.49 146.991 151.252 170.722 150.045 194.463ZM80.1264 123.158L81.2964 123.348C85.9012 124.125 90.5336 124.713 95.1934 125.112C111.916 126.542 128.72 125.736 145.408 124.107C145.214 133.208 144.393 142.284 142.951 151.272C142.581 153.549 142.171 155.817 141.72 158.076C141.452 159.41 141.287 160.42 140.472 161.542C139.523 162.842 138.449 163.115 136.897 163.302C132.386 163.852 127.732 163.83 123.191 164.021C113.909 164.411 104.62 164.651 95.3233 164.74C91.5014 164.779 87.3414 165.174 83.6233 163.973C78.6617 162.392 77.964 158.253 78.2457 153.573C78.8654 143.464 80.0787 133.28 80.1264 123.158ZM177.488 181.532C179.29 185.774 183.229 191.637 181.435 196.387C179.451 201.643 172.552 199.151 169.272 196.777C162.442 191.837 158.872 183.04 154.447 175.977L154.824 168.723C155.622 153.412 156.41 138.116 157.19 122.837L157.385 122.802C157.274 123.124 157.265 123.472 157.359 123.799C162.715 143.489 169.441 162.78 177.488 181.532ZM161.095 111.913C160.879 111.848 160.651 111.83 160.427 111.861C144.275 113.843 127.983 114.433 111.729 113.624C103.505 113.191 95.3118 112.384 87.1507 111.202C83.5627 110.678 79.9314 110.184 76.3954 109.386C73.2494 108.676 70.3287 107.519 68.4567 104.754C68.3476 104.588 68.1986 104.453 68.0233 104.36C68.227 103.198 68.4567 102.05 68.6907 100.932C82.5834 107.332 99.2494 107.961 114.243 108.299C122.814 108.492 131.388 108.459 139.965 108.199C144.255 108.072 148.54 107.883 152.818 107.631C155.479 107.475 158.599 107.675 160.995 106.362C161.291 108.198 161.324 110.067 161.095 111.913ZM96.307 64.493C96.4245 64.6053 96.5658 64.6896 96.7203 64.7399C96.8748 64.7902 97.0387 64.805 97.1997 64.7834C102.807 64.259 108.289 63.284 113.944 63.167C119.741 63.0366 125.539 63.3932 131.277 64.233C131.518 64.2919 131.769 64.2962 132.012 64.2455C132.255 64.1948 132.483 64.0905 132.681 63.9401C132.878 63.7897 133.039 63.5971 133.152 63.3764C133.266 63.1556 133.328 62.9124 133.335 62.6644C133.613 59.562 134.456 56.5367 135.823 53.7377C137.092 51.1724 138.908 47.9657 141.456 46.4967C145.846 43.9704 146.08 50.83 145.928 53.313C145.711 56.823 145.438 60.3287 145.196 63.8344C144.251 77.4237 143.285 91.013 142.401 104.602C140.758 104.663 139.112 104.724 137.469 104.767C129.38 104.992 121.299 105.015 113.224 104.836C105.689 104.676 98.1314 104.355 90.6564 103.32C87.7747 102.921 84.9624 102.379 82.1934 101.721C82.8087 94.7614 82.657 87.7067 83.19 80.73C83.7707 73.1467 84.6417 65.5634 85.9114 58.0797C86.427 55.0204 87.0467 51.9394 88.2254 49.0577C89.0444 47.06 92.8577 39.897 95.3233 43.823C96.7577 46.1154 96.099 49.6644 95.995 52.1864C95.839 55.8264 95.6744 59.4707 95.5357 63.1107C95.5115 63.3918 95.5721 63.6737 95.7096 63.92C95.847 64.1664 96.0551 64.366 96.307 64.493ZM56.8434 52.1777C59.9287 36.8204 70.2984 23.5777 84.0524 16.211C98.8074 8.3287 116.011 8.7187 131.394 14.5817C139.523 17.7442 147.112 22.1471 153.893 27.6337C157.121 30.2337 160.341 32.9767 162.993 36.153C166.082 39.845 167.924 44.3864 169.302 48.9667C174.775 67.0584 171.391 87.061 160.731 102.587C160.576 102.634 160.429 102.705 160.297 102.8C158.919 103.809 157.407 103.835 155.756 103.944C153.615 104.082 151.475 104.199 149.334 104.308L145.746 104.468C146.364 95.7667 146.958 87.0654 147.527 78.364C148.116 69.576 148.97 60.7577 149.26 51.9524C149.364 48.9537 148.827 45.591 146.162 43.7537C143.783 42.1114 140.992 42.6877 138.817 44.3864C133.929 48.204 131.212 54.7517 130.293 60.853C125.028 60.1421 119.714 59.8523 114.403 59.9864C109.316 60.138 103.886 60.4457 98.8637 61.646C99.0399 57.7027 99.2002 53.7579 99.3447 49.8117C99.4487 47.034 99.466 43.7797 97.6114 41.483C95.839 39.2644 92.9184 38.974 90.535 40.443C87.5494 42.2804 85.842 45.994 84.7154 49.1574C81.9203 57.0094 81.3527 66.014 80.564 74.256C79.732 82.992 78.77 92.274 79.5847 101.088C75.962 100.135 72.387 99.0124 68.7774 97.7817C68.7484 97.7349 68.7166 97.6901 68.682 97.6474C58.178 85.293 53.641 68.1244 56.8434 52.1777ZM67.538 108.108C70.5714 112.008 76.8547 112.727 81.435 113.503C90.0035 114.947 98.6254 115.989 107.301 116.627C124.99 117.947 142.768 117.491 160.367 115.267C160.367 115.31 160.345 115.349 160.328 115.392C159.669 117.347 159.028 118.946 156.861 119.418C154.816 119.851 152.619 119.934 150.534 120.159C142.461 121.026 134.367 121.745 126.268 122.135C109.801 122.932 93.1394 122.451 76.9327 119.262C73.3317 118.551 69.0374 117.633 67.9844 113.564C67.5475 111.78 67.3969 109.939 67.538 108.108ZM68.0624 124.141C67.473 146.805 67.928 169.555 68.812 192.218C68.7696 192.273 68.7305 192.331 68.695 192.391C66.8144 195.884 64.47 199.81 60.3533 200.88C55.773 202.072 52.7614 198.961 52.3887 194.606C52.0767 190.953 52.8697 187.152 53.3897 183.56C54.0426 179.045 54.7792 174.541 55.5997 170.049C57.177 161.382 59.0548 152.788 61.233 144.265C62.975 137.51 64.574 130.295 68.0667 124.15L68.0624 124.141Z" fill="#231F20"/>
<path d="M107.99 92.2263C112.128 91.3293 114.88 85.9516 112.8 82.1296C112.154 80.9466 110.546 81.601 110.442 82.771C110.217 85.2713 110.694 88.3046 107.643 89.2926C107.127 89.4973 106.558 89.5292 106.022 89.3836C105.26 89.076 105.455 88.5733 105.424 87.7846C105.364 86.2116 105.351 84.6343 105.424 83.0613C105.489 81.7613 103.431 81.4796 103.167 82.7536C102.733 84.9203 101.966 88.1443 102.846 90.2806C103.643 92.2133 106.165 92.6206 107.99 92.2263Z" fill="#231F20"/>
<path d="M130.588 82.29C131.975 80.223 130.852 77.0424 128.387 76.4314C127.759 76.2869 127.104 76.3004 126.483 76.4705C125.861 76.6407 125.292 76.9622 124.825 77.4064C124.284 77.9234 123.925 78.6014 123.802 79.339C123.569 80.2919 123.709 81.2978 124.192 82.1514C125.54 84.4264 129.132 84.461 130.588 82.29ZM126.853 79.95C126.881 79.8671 126.914 79.7861 126.952 79.7074C127.038 79.6086 127.15 79.5364 127.275 79.4996C127.4 79.4627 127.533 79.4626 127.659 79.4994C127.816 79.6116 127.931 79.7732 127.986 79.9585C128.041 80.1438 128.033 80.3422 127.962 80.522C127.819 80.6532 127.635 80.7295 127.441 80.7374C127.248 80.7453 127.058 80.6844 126.905 80.5654C126.839 80.4779 126.8 80.3739 126.791 80.2651C126.782 80.1564 126.803 80.0472 126.853 79.95Z" fill="#231F20"/>
<path d="M91.1893 75.192C90.9935 75.2589 90.8171 75.3729 90.6758 75.524C90.5345 75.6752 90.4325 75.8588 90.3789 76.0586C89.2176 76.4053 88.2513 77.1463 88.0086 78.5113C87.6663 80.4656 89.1179 82.5023 91.1416 82.615C92.1439 82.6536 93.1221 82.3015 93.8698 81.633C94.6176 80.9644 95.0765 80.0317 95.1499 79.0313C95.2453 77.1073 93.3819 74.4033 91.1893 75.192ZM91.2629 79.69C91.1056 79.628 90.9755 79.5119 90.8961 79.3625C90.8166 79.2132 90.7931 79.0404 90.8296 78.8753C90.9336 78.4983 91.4016 78.3076 91.8826 78.195C92.0351 78.3588 92.1321 78.5665 92.1599 78.7886C92.2033 79.222 91.7353 79.794 91.2629 79.69Z" fill="#231F20"/>
<path d="M140.78 29.1416C144.407 31.4253 148.277 33.4749 151.375 36.4563C153.817 38.8672 155.781 41.718 157.164 44.8586C158.639 48.2154 159.599 51.7756 160.011 55.4189C160.445 58.9983 160.146 62.556 160.328 66.1396C160.33 66.2637 160.377 66.3829 160.459 66.4756C160.542 66.5684 160.655 66.6285 160.778 66.6453C160.901 66.662 161.025 66.6342 161.13 66.5669C161.234 66.4996 161.311 66.3972 161.346 66.2783C163.11 59.2583 161.489 50.5439 158.503 44.0786C154.985 36.4649 148.511 31.9063 140.923 28.7993C140.724 28.7169 140.611 29.0333 140.78 29.1416Z" fill="#231F20"/>
<path d="M160.8 69.9704C161.017 72.878 160.25 75.4087 159.769 78.2037C159.673 78.7627 160.414 79.1614 160.731 78.611C162.217 76.0457 162.091 72.67 161.55 69.8577C161.526 69.7669 161.469 69.6882 161.39 69.6366C161.312 69.5851 161.217 69.5643 161.124 69.5782C161.031 69.5922 160.947 69.6399 160.887 69.7123C160.827 69.7846 160.796 69.8765 160.8 69.9704Z" fill="#231F20"/>
<path d="M84.334 142.636C84.5766 144.296 86.6653 144.998 88.1343 145.141C89.807 145.301 91.1676 144.447 91.5706 142.801C92.1513 140.404 91.77 137.449 91.8176 135.001C91.8158 134.833 91.7601 134.67 91.6586 134.537C91.5571 134.403 91.4154 134.306 91.2543 134.26C89.4343 133.826 87.259 133.341 85.4303 133.891C85.3255 133.927 85.2323 133.99 85.1605 134.075C85.0886 134.159 85.0409 134.261 85.0223 134.37C85.0036 134.479 85.0148 134.591 85.0546 134.695C85.0944 134.798 85.1613 134.889 85.2483 134.957C84.607 137.232 84.0046 140.37 84.334 142.636ZM86.3186 135.174C87.6186 135.352 88.9533 135.369 90.2706 135.607L90.1926 139.325C90.2412 140.047 90.2267 140.772 90.1493 141.492C89.9196 142.541 88.494 143.611 87.3933 143.442C84.7153 143.039 86.0326 137.518 86.3186 135.174Z" fill="#231F20"/>
<path d="M129.167 148.724C134.956 149.231 136.967 143.377 136.343 138.519C136.206 137.315 135.765 136.166 135.061 135.18C134.356 134.194 133.412 133.405 132.317 132.886C132.306 132.84 132.284 132.798 132.252 132.763C132.22 132.728 132.18 132.702 132.135 132.687C127.507 131.135 121.999 134.853 121.458 139.642C120.933 144.183 124.656 148.326 129.167 148.724ZM122.779 139.806C122.996 137.471 124.768 135.278 126.996 134.056C127.06 134.111 127.137 134.148 127.22 134.164C127.303 134.18 127.388 134.174 127.468 134.147C136.971 131.083 137.435 149.106 128.335 147.069C124.976 146.324 122.45 143.256 122.766 139.806H122.779Z" fill="#231F20"/>
<path d="M129.708 142.346C130.111 142.342 130.507 142.246 130.866 142.065C131.226 141.884 131.539 141.623 131.782 141.302C132.024 140.981 132.189 140.608 132.265 140.213C132.34 139.817 132.324 139.41 132.217 139.022C131.832 137.856 129.843 136.513 128.824 137.661C128.481 137.775 128.169 137.969 127.915 138.226C127.662 138.484 127.473 138.798 127.364 139.143C127.271 139.511 127.26 139.894 127.332 140.267C127.404 140.639 127.558 140.991 127.782 141.296C128.006 141.602 128.295 141.855 128.628 142.037C128.961 142.218 129.33 142.323 129.708 142.346ZM128.499 139.364C128.577 139.045 128.768 138.765 129.037 138.576C129.639 138.801 130.311 138.632 130.727 139.26C131.195 139.975 130.519 140.946 129.717 140.963C129.528 140.948 129.344 140.894 129.177 140.803C129.011 140.712 128.865 140.587 128.75 140.436C128.635 140.285 128.554 140.112 128.51 139.927C128.467 139.742 128.463 139.551 128.499 139.364Z" fill="#231F20"/>
<path d="M98.4867 144.252C105.027 144.379 111.553 144.72 118.065 145.275C118.267 145.274 118.461 145.193 118.604 145.049C118.747 144.905 118.827 144.711 118.827 144.508C118.827 142.991 118.837 141.475 118.858 139.958C118.858 139.013 119.083 137.835 118.78 136.925C118.346 135.594 117.046 135.763 115.79 135.651C110.156 135.152 104.493 134.611 98.842 134.16C98.6732 134.162 98.5096 134.218 98.3753 134.32C98.241 134.423 98.1433 134.565 98.0967 134.728C97.9597 135.096 97.8907 135.487 97.893 135.88C97.6063 138.444 97.586 141.03 97.8324 143.598C97.8367 143.77 97.9071 143.934 98.0289 144.056C98.1506 144.178 98.3145 144.248 98.4867 144.252ZM99.011 136.262C99.1334 136.1 99.2434 135.929 99.3404 135.75C103.206 136.114 107.08 136.431 110.945 136.769C112.548 136.912 115.712 136.643 116.799 137.839C117.779 138.931 117.449 141.83 117.332 143.693C111.266 143.225 105.187 142.975 99.0977 142.944C98.9243 140.777 98.8637 138.632 98.7294 136.478C98.8413 136.433 98.9388 136.358 99.011 136.262Z" fill="#231F20"/>
<path d="M104.488 147.602C103.154 147.106 101.733 146.888 100.311 146.961C100.198 146.964 100.088 146.995 99.9903 147.052C99.7563 146.909 99.4356 146.935 99.3879 147.281C99.188 148.701 99.1155 150.135 99.1713 151.567C99.2276 152.72 100.008 152.867 101.017 152.867C101.884 152.867 103.487 153.24 104.137 152.434C104.51 151.979 104.506 151.225 104.597 150.674C104.718 149.929 104.839 149.179 104.965 148.434C105.004 148.261 104.976 148.079 104.888 147.925C104.8 147.771 104.657 147.656 104.488 147.602ZM103.245 150.7C103.21 150.952 103.171 151.203 103.132 151.45C103.093 151.697 102.915 151.688 102.699 151.58C102.266 151.615 101.831 151.615 101.399 151.58C101.178 151.58 100.606 151.684 100.437 151.58C100.268 151.476 100.437 150.432 100.437 150.254C100.437 149.617 100.402 148.984 100.354 148.352C101.441 148.3 102.528 148.435 103.57 148.75C103.448 149.392 103.344 150.046 103.245 150.7Z" fill="#231F20"/>
<path d="M115.928 147.953H112.752C112.641 147.954 112.532 147.982 112.433 148.034C112.335 148.086 112.25 148.16 112.186 148.251C112.123 148.342 112.081 148.447 112.066 148.557C112.05 148.667 112.061 148.78 112.098 148.885C111.985 150.211 110.967 151.883 112.202 152.967C112.717 153.422 113.367 153.435 114.022 153.435C115.196 153.435 116.375 153.396 117.549 153.374C117.7 153.372 117.846 153.321 117.966 153.23C118.086 153.139 118.174 153.012 118.216 152.867C118.507 151.675 118.875 149.21 117.783 148.265C117.28 147.845 116.526 147.953 115.928 147.953ZM116.981 152.013L115.062 152.057C114.477 152.057 113.198 152.33 112.938 151.701C112.73 151.199 113.029 150.536 113.086 150.02C113.109 149.805 113.109 149.589 113.086 149.374C114.16 149.374 115.252 149.296 116.323 149.374C117.016 149.418 116.99 149.734 117.055 150.427C117.103 150.957 117.078 151.49 116.981 152.013Z" fill="#231F20"/>
<path d="M84.0999 156C86.5353 155.909 88.9706 155.801 91.4059 155.697C91.5995 155.694 91.7844 155.616 91.9213 155.48C92.0582 155.343 92.136 155.158 92.1383 154.964C92.1383 152.977 92.1282 150.989 92.1079 149.002C92.1046 148.818 92.03 148.642 91.8999 148.512C91.7698 148.382 91.5943 148.307 91.4103 148.304C89.2913 148.213 86.8776 147.827 84.7889 148.373C84.7036 148.336 84.6114 148.316 84.5181 148.316C84.4249 148.316 84.3326 148.336 84.2473 148.373C82.0243 149.34 83.1076 153.664 83.3806 155.454C83.4242 155.611 83.5182 155.75 83.6482 155.848C83.7781 155.947 83.9368 156 84.0999 156ZM84.9233 149.426C85.188 149.492 85.4613 149.517 85.7336 149.5C85.877 149.489 86.014 149.436 86.1279 149.348C87.6443 149.572 89.1756 149.679 90.7083 149.669C90.7083 151.197 90.6982 152.727 90.6779 154.258C88.6933 154.327 86.7101 154.4 84.7283 154.475C84.4683 152.967 84.0219 150.462 84.9276 149.413L84.9233 149.426Z" fill="#231F20"/>
</svg>
