<svg width="300" height="300" viewBox="0 0 300 300" fill="none" xmlns="http://www.w3.org/2000/svg">
<path d="M86.765 53.89C78.37 63.11 70.675 72.815 64.93 83.93C59.43 94.55 56.2 105.9 53.075 117.385C52.79 118.42 51.075 118.23 51.175 117.125C51.7 109.24 53.675 101.42 56.525 93.93C57.1764 88.4464 56.9842 82.8954 55.955 77.47C55.398 74.6263 54.5915 71.8372 53.545 69.135C52.655 66.845 51.38 63.285 48.93 62.17C46.125 60.89 43.52 64.14 42.19 66.21C40.8088 68.5256 39.7777 71.0328 39.13 73.65C37.5218 79.7026 36.3224 85.8565 35.54 92.07C32.335 114.925 30.04 137.995 33.68 160.94C37.1 182.635 44.075 203.72 51.18 224.44C57.785 243.74 65.96 263.23 81.065 277.495C87.65 283.715 95.7899 289.245 104.64 291.59C108.385 292.59 113.675 293.09 116.245 289.475C118.875 285.795 116.93 280.35 115.7 276.51C115.649 276.361 115.615 276.207 115.6 276.05C113.267 275.383 110.967 274.633 108.7 273.8C104.873 272.4 101.118 270.828 97.4349 269.085C93.6999 267.32 89.7049 265.525 86.4049 263.025C86.2664 262.935 86.1638 262.799 86.1151 262.642C86.0664 262.484 86.0745 262.314 86.1382 262.162C86.2019 262.009 86.317 261.884 86.4636 261.808C86.6101 261.732 86.7787 261.71 86.94 261.745C91.28 262.7 95.4399 264.715 99.5899 266.285C103.74 267.855 107.735 269.365 111.895 270.66C119.535 273.121 127.478 274.513 135.5 274.795C143.21 274.931 150.918 274.448 158.55 273.35C165.095 272.46 171.63 271.095 177.81 268.735C180.875 267.574 183.814 266.103 186.58 264.345C189.37 262.56 191.675 260.275 194.25 258.225C195.875 256.935 198.685 258.6 197.35 260.62C194.65 264.705 190.35 267.79 185.805 270.15C186.062 270.331 186.256 270.588 186.359 270.885C186.462 271.182 186.47 271.504 186.38 271.805C185.265 276.615 182.68 285.58 189.2 288.015C191.89 289.015 195.385 287.67 197.945 286.735C200.599 285.74 203.133 284.45 205.5 282.89C214.34 277.155 220.685 268.49 226 259.555C231.66 250 236.88 240 240.27 229.385C243.66 218.77 245.42 207.675 246.315 196.565C247.21 185.455 246.945 174.285 247.885 163.185C247.918 162.744 248.117 162.331 248.442 162.03C248.766 161.73 249.192 161.562 249.635 161.562C250.077 161.562 250.504 161.73 250.828 162.03C251.153 162.331 251.352 162.744 251.385 163.185C252.385 177.335 251.605 191.9 249.76 205.96C248.26 217.35 245.63 228.485 241.26 239.09C249.57 239.76 254.815 230.255 257.63 223.555C260.965 215.64 262.435 207.055 262.76 198.52C263.365 182.48 260.44 166.345 256.9 150.76C253.107 134.107 247.985 117.785 241.585 101.95C235.5 86.9 228.28 72 218.245 59.13C213.648 53.2434 208.42 47.8781 202.655 43.13C197.5 38.845 191.725 35.705 186 32.395C185.699 33.6225 185.119 34.7638 184.305 35.73C180.74 40 175 40.025 170 38.835C164.525 37.53 158.9 35.335 154.58 31.655C152.905 30.235 155.055 28.105 156.74 28.86C160.455 30.5 164 32.455 167.9 33.7C171.37 34.81 175.94 36.25 179.345 34.245C183.375 31.875 181.675 27.995 178.595 25.705C175.559 23.5256 171.787 22.6277 168.095 23.205C165.86 23.5 165.135 20.035 166.975 19.06C168.546 18.2359 170.068 17.3227 171.535 16.325C172.56 15.62 175.235 14.16 175.71 12.87C176.975 9.44504 168.71 9.61504 167.075 9.59504C160.185 9.52004 153.425 10.985 146.91 13.15C141.153 15.1426 135.519 17.4717 130.035 20.125C124.245 22.845 118.425 25.59 113.095 29.15C103.06 35.845 94.8349 45 86.765 53.89ZM249.61 146.89C250.42 148.68 251.61 150.485 251.925 152.455C251.948 152.554 251.935 152.657 251.889 152.747C251.843 152.837 251.766 152.908 251.673 152.947C251.58 152.987 251.476 152.992 251.38 152.962C251.283 152.933 251.2 152.87 251.145 152.785C249.98 151.165 249.575 149.035 248.9 147.19C248.745 146.795 249.43 146.5 249.61 146.91V146.89ZM230.765 90.09C234.48 97.9 238.085 105.665 241.135 113.77C242.645 117.77 244.073 121.812 245.42 125.895C246.84 130.215 248.475 134.645 249.095 139.165C249.155 139.63 248.475 140.05 248.245 139.525C246.58 135.7 245.59 131.595 244.315 127.63C243 123.57 241.625 119.5 240.16 115.5C237.095 107.09 233.88 98.625 230.16 90.5C229.96 90.06 230.565 89.695 230.765 90.11V90.09ZM57.655 218.645C52.93 208.75 49.655 198.02 46.86 187.435C44.09 177 41.28 165.845 40.77 155C40.7701 154.9 40.8066 154.803 40.8727 154.727C40.9388 154.652 41.03 154.603 41.1294 154.589C41.2289 154.576 41.3298 154.599 41.4136 154.654C41.4973 154.71 41.5582 154.793 41.585 154.89C42.8 160.37 43.5 166 44.62 171.5C45.6866 176.72 46.9183 181.903 48.315 187.05C51.185 197.665 55.055 207.865 58.665 218.235C58.69 218.362 58.6703 218.493 58.609 218.606C58.5477 218.72 58.4488 218.809 58.3293 218.857C58.2098 218.906 58.077 218.911 57.954 218.872C57.8309 218.834 57.7252 218.753 57.655 218.645ZM66.7149 242.1C64.5199 238.2 63.12 233.465 61.81 229.2C61.67 228.745 62.375 228.44 62.585 228.875C64.525 232.875 66.7299 237.32 67.7699 241.65C67.8047 241.784 67.7901 241.927 67.7288 242.051C67.6676 242.176 67.5637 242.274 67.436 242.329C67.3083 242.383 67.1654 242.39 67.033 242.348C66.9007 242.306 66.7879 242.218 66.7149 242.1ZM83.0449 72.1C82.0061 72.2382 81.0263 72.6626 80.2148 73.3257C79.4033 73.9888 78.7923 74.8646 78.4499 75.855C77.6912 77.8363 77.6242 80.0159 78.26 82.04C78.805 83.64 80.1899 84.7 81.0899 86.08C81.2117 86.2958 81.2449 86.5505 81.1824 86.7903C81.1198 87.0301 80.9666 87.2362 80.7549 87.365C77.8399 89.165 75.5299 85.915 74.6699 83.365C74.1497 81.7432 73.957 80.0342 74.1029 78.3372C74.2488 76.6403 74.7305 74.9892 75.5199 73.48C76.2332 72.0852 77.3076 70.9072 78.6312 70.0691C79.9548 69.231 81.4791 68.7634 83.0449 68.715C85.0449 68.715 89.01 69.89 88.39 72.59C88.358 72.6984 88.2922 72.7937 88.2023 72.8621C88.1124 72.9304 88.0029 72.9683 87.89 72.97C86.235 73.08 84.8099 71.885 83.0449 72.09V72.1ZM200.445 202.48C199.175 210.04 194.18 216.48 189.415 222.215C184.727 227.997 179.296 233.137 173.265 237.5C167.365 241.675 160.67 244.885 153.52 246.175C145.44 247.63 137.215 246.465 129.415 244.105C114.915 239.72 100.6 231.23 94.1549 216.925C91.3499 210.7 89.885 203.155 91.955 196.48C93.665 190.98 98.49 186.48 104.3 186.79C103.398 182.649 103.442 178.357 104.43 174.235C106.54 165.455 112.705 158.06 120.11 153.12C128.865 147.285 138.675 145.505 148.505 149.76C164.64 156.76 175.32 173.62 176.35 190.95C180.115 185.83 185.165 181.705 192 184.5C199.145 187.4 201.645 195.325 200.445 202.47V202.48ZM212.54 63.25C214.144 63.4435 215.672 64.0446 216.978 64.996C218.284 65.9474 219.324 67.2174 220 68.685C221.38 71.745 221.045 75.47 218.75 78.01C216.805 80.16 213.385 81.835 211.015 79.51C210.901 79.3931 210.815 79.2519 210.763 79.097C210.711 78.9422 210.695 78.7776 210.716 78.6157C210.737 78.4537 210.794 78.2985 210.883 78.1616C210.972 78.0247 211.09 77.9096 211.23 77.825C212.73 76.825 214.785 76.68 215.975 75.22C217.235 73.675 217.185 71.46 216.235 69.775C215.76 68.9927 215.116 68.3271 214.349 67.8277C213.582 67.3283 212.712 67.0078 211.805 66.89C210.709 66.6996 209.582 66.8173 208.55 67.23C207.99 67.47 207.6 67.88 206.975 67.98C206.825 67.9879 206.675 67.9727 206.53 67.935C206.243 67.8589 205.99 67.6902 205.809 67.4551C205.628 67.22 205.53 66.9317 205.53 66.635C205.835 63.365 209.88 62.88 212.54 63.24V63.25ZM132.225 26.75C133.565 25.57 135.465 24.285 137.345 24.45C137.453 24.4623 137.555 24.5096 137.633 24.5848C137.712 24.6599 137.765 24.7588 137.782 24.8663C137.8 24.9739 137.782 25.0843 137.731 25.1806C137.68 25.2769 137.599 25.354 137.5 25.4C136.725 25.715 135.875 25.82 135.09 26.115C134.243 26.4196 133.434 26.8223 132.68 27.315C132.32 27.535 131.93 27 132.225 26.76V26.75ZM132.695 50.585C135.75 49.91 138.815 49.24 141.82 48.355C151.35 45.56 160.79 44.02 170.705 45.535C179.608 46.8556 187.95 50.689 194.75 56.585C201.08 62.125 205.89 69.62 207.79 77.85C209.535 85.405 208.89 94.06 203.325 99.685C204.785 102.185 204.37 105.415 202.39 107.86C199.825 111.04 195.75 111.31 191.89 110.86C192.915 117.595 188.22 124.12 181.515 126.205C173.015 128.84 164.75 124.985 157.8 120.235C155.85 125.05 150.075 127.77 144.85 127.08C141.165 126.58 137.85 124.74 134.94 122.515C133.41 121.345 131.65 120.08 130.385 118.62C129.465 117.55 129.725 116.99 129.06 118.41C128.659 119.262 128.185 120.079 127.645 120.85C123.615 126.575 116.365 129.735 109.445 128.35C102.865 127.05 97.4449 121.755 95.6549 115.35C89.8349 113.965 85.9949 108.67 85.1549 102.76C84.1549 95.79 86.195 87.825 88.605 81.31C90.8399 75.3769 94.6079 70.1425 99.525 66.14C103.655 62.69 108.3 59.98 113.075 57.53C115.491 55.9393 118.091 54.6497 120.82 53.69C124.62 52 128.6 50.555 132.695 50.595V50.585ZM107.76 38.785C112.685 34.87 118.79 30.54 124.985 29.015C125.094 28.9838 125.211 28.9936 125.313 29.0425C125.416 29.0915 125.497 29.1762 125.541 29.2808C125.585 29.3853 125.59 29.5024 125.554 29.61C125.518 29.7177 125.443 29.8084 125.345 29.865C122.42 31.57 119.225 32.775 116.29 34.485C113.393 36.1699 110.622 38.0633 108 40.15C102.87 44.23 98.4999 49.05 94.4349 54.185C94.2499 54.425 93.8699 54.115 94.0199 53.865C97.6994 48.0891 102.348 42.991 107.76 38.795V38.785Z" fill="white"/>
<path d="M113.09 60.935C107.405 64.245 101.815 68.025 97.5299 73.08C92.5299 78.97 90.4399 86.54 89.1599 94.02C88.0649 100.41 88.7899 110.97 97.2249 111.895C97.6391 111.901 98.0404 112.04 98.3698 112.291C98.6992 112.542 98.9393 112.892 99.0549 113.29C100.345 119.435 105.61 124.545 112.025 124.91C115.124 125.043 118.182 124.165 120.74 122.41C123.54 120.53 124.57 118.175 126.24 115.41C127.815 112.81 130.66 113.77 132.56 115.41C135.13 117.605 137.475 119.95 140.47 121.59C143.225 123.09 146.33 123.885 149.395 122.865C152.09 121.97 154.475 119.905 154.525 116.905C154.55 115.52 156.255 114.245 157.525 115.18C163.26 119.38 169.76 123.545 177.19 122.98C183.565 122.48 190.59 116.38 187.41 109.48C187.222 109.134 187.138 108.741 187.169 108.349C187.2 107.956 187.344 107.581 187.584 107.269C187.824 106.957 188.149 106.721 188.52 106.59C188.891 106.458 189.292 106.438 189.675 106.53C192.32 107.005 195.78 107.735 198.26 106.26C199.635 105.445 201.335 102.525 199.615 101.21C198.345 100.24 198.35 98.74 199.615 97.77C207.22 91.93 205.17 79.575 201.615 72.095C194.615 57.305 178.99 49.095 162.99 48.86C153.94 48.73 145.775 51.59 137.135 53.86C132.93 54.955 128.605 55.36 124.375 56.325C121.018 57.1427 117.776 58.3773 114.725 60L113.09 60.935ZM108.255 90C107.564 90.362 106.794 90.5433 106.014 90.5268C105.235 90.5103 104.472 90.2966 103.798 89.9057C103.123 89.5148 102.559 88.9593 102.157 88.2912C101.755 87.6231 101.529 86.8641 101.5 86.085C101.5 85.6336 101.562 85.1843 101.685 84.75C101.71 83.25 102.91 82.14 104.335 81.61C105.082 81.3274 105.89 81.2443 106.679 81.3688C107.468 81.4933 108.211 81.8211 108.835 82.32C111.26 84.305 111.07 88.5 108.255 90ZM181.785 75.865L181.87 75.785C181.902 75.7427 181.937 75.7026 181.975 75.665C184.605 72.98 189.145 74.415 190.095 77.96C190.315 78.7691 190.331 79.6203 190.141 80.437C189.951 81.2538 189.561 82.0106 189.007 82.6396C188.452 83.2686 187.75 83.75 186.963 84.0406C186.177 84.3313 185.33 84.4221 184.5 84.305C180.46 83.76 178.95 78.715 181.785 75.87V75.865ZM135.785 87.66C135.884 87.4486 136.046 87.2737 136.25 87.16C138.965 85.66 142.33 85.625 145.38 85.375C148.88 85.095 152.38 84.92 155.85 84.875C156.397 84.8802 156.921 85.1 157.308 85.487C157.695 85.8741 157.915 86.3976 157.92 86.945C157.76 92.125 155.07 97.945 149.255 98.445C146.445 98.69 143.12 97.66 140.63 96.405C139.704 95.9344 138.86 95.3182 138.13 94.58C137.571 94.4336 137.079 94.0978 136.74 93.63C135.938 92.4846 135.316 91.2234 134.895 89.89C134.749 89.4731 134.761 89.0175 134.926 88.6081C135.092 88.1988 135.4 87.8636 135.795 87.665L135.785 87.66Z" fill="#BFFBFF"/>
<path d="M106.32 85.2599C106.189 85.2234 106.051 85.2165 105.917 85.2399C105.783 85.2632 105.656 85.3162 105.545 85.3949C105.261 85.5853 104.989 85.7923 104.73 86.0149C104.765 86.2003 104.845 86.3744 104.963 86.5217C105.081 86.6691 105.233 86.7854 105.406 86.8604C105.579 86.9354 105.768 86.9668 105.956 86.9519C106.144 86.937 106.326 86.8762 106.485 86.7749C106.585 86.6696 106.66 86.544 106.706 86.4066C106.753 86.2692 106.769 86.1234 106.753 85.9793C106.737 85.8352 106.69 85.6962 106.616 85.572C106.541 85.4478 106.44 85.3413 106.32 85.2599Z" fill="white"/>
<path d="M192.545 186.805C189.465 185.095 185.85 184.92 182.81 186.805C179.955 188.555 178.075 191.54 176.31 194.305C176.203 194.475 176.044 194.607 175.856 194.68C175.669 194.753 175.463 194.764 175.269 194.712C175.075 194.659 174.902 194.545 174.778 194.388C174.653 194.23 174.582 194.036 174.575 193.835C174.589 184.406 171.777 175.189 166.5 167.375C161.625 160.135 154.575 153.955 146.365 150.81C136.96 147.215 127.715 149.725 119.745 155.42C112.745 160.42 107.115 167.8 105.605 176.385C104.999 179.902 105.106 183.505 105.92 186.98L106.22 187.04C107.105 187.245 107 188.34 106.375 188.685C107.607 192.803 109.874 196.537 112.96 199.53C113.345 199.895 112.79 200.41 112.395 200.095C108.742 197.133 106.091 193.118 104.8 188.595C96.0601 187.345 92.5201 197.72 92.9601 204.83C93.4101 212.125 96.6251 219.105 101.23 224.71C109.775 235.115 123.2 241.21 136.16 243.865C149.63 246.635 162.285 243.24 173.27 235.185C178.373 231.355 183.017 226.95 187.11 222.055C191.51 216.91 196.11 211.215 198.05 204.62C199.895 198.25 198.845 190.3 192.545 186.805Z" fill="white"/>
<path d="M185.855 79.9999C185.97 79.8763 186.05 79.7243 186.088 79.5594C186.125 79.3946 186.118 79.2228 186.067 79.0617C186.016 78.9005 185.923 78.7557 185.798 78.6421C185.673 78.5285 185.52 78.4501 185.355 78.4149C185.095 78.3715 184.829 78.3938 184.58 78.4799C184.437 78.7446 184.348 79.0354 184.32 79.3349C184.303 79.5197 184.344 79.7051 184.439 79.8648C184.533 80.0245 184.676 80.1502 184.846 80.224C185.017 80.2977 185.206 80.3158 185.387 80.2755C185.568 80.2353 185.732 80.1388 185.855 79.9999Z" fill="white"/>
<path d="M152.71 91.3999H152.395C152.138 91.9185 151.848 92.4196 151.525 92.8999C151.306 93.2179 151.011 93.476 150.667 93.6507C150.323 93.8254 149.941 93.911 149.555 93.8999L149.335 94.2349C150.076 94.0492 150.764 93.6975 151.349 93.2063C151.934 92.7152 152.399 92.0974 152.71 91.3999Z" fill="white"/>
<path d="M113.08 57.605C108.305 60.055 103.66 62.765 99.5299 66.215C94.6128 70.2175 90.8448 75.4519 88.6099 81.385C86.1999 87.885 84.1549 95.885 85.1599 102.835C86.0099 108.745 89.8499 114.04 95.6599 115.425C97.4499 121.815 102.87 127.11 109.45 128.425C116.37 129.785 123.62 126.625 127.65 120.925C128.19 120.154 128.664 119.337 129.065 118.485C129.73 117.065 129.47 117.625 130.39 118.695C131.655 120.155 133.415 121.42 134.945 122.59C137.865 124.815 141.17 126.665 144.855 127.155C150.08 127.845 155.855 125.125 157.805 120.31C164.755 125.06 173.035 128.915 181.52 126.28C188.225 124.195 192.92 117.67 191.895 110.935C195.74 111.36 199.815 111.09 202.395 107.935C204.395 105.49 204.79 102.26 203.33 99.76C208.895 94.135 209.54 85.48 207.795 77.925C205.895 69.695 201.085 62.2 194.755 56.66C187.954 50.764 179.613 46.9306 170.71 45.61C160.795 44.11 151.355 45.61 141.825 48.43C138.825 49.315 135.755 49.985 132.7 50.66C128.605 50.62 124.625 52.065 120.83 53.83C118.103 54.7689 115.5 56.0366 113.08 57.605ZM137.135 53.835C145.775 51.59 153.94 48.73 162.99 48.835C178.99 49.06 194.61 57.28 201.615 72.07C205.16 79.57 207.21 91.905 199.615 97.745C198.35 98.715 198.345 100.215 199.615 101.185C201.335 102.5 199.615 105.42 198.26 106.235C195.76 107.71 192.32 106.98 189.675 106.505C189.292 106.413 188.891 106.433 188.52 106.565C188.149 106.696 187.824 106.932 187.584 107.244C187.344 107.556 187.2 107.931 187.169 108.324C187.138 108.716 187.222 109.109 187.41 109.455C190.59 116.355 183.565 122.455 177.19 122.955C169.76 123.52 163.26 119.355 157.525 115.155C156.25 114.22 154.525 115.495 154.525 116.88C154.475 119.88 152.09 121.945 149.395 122.84C146.33 123.84 143.225 123.08 140.47 121.565C137.47 119.925 135.13 117.565 132.56 115.385C130.66 113.76 127.815 112.8 126.24 115.385C124.585 118.13 123.555 120.485 120.74 122.385C118.182 124.14 115.124 125.018 112.025 124.885C105.61 124.52 100.345 119.41 99.0549 113.265C98.9393 112.867 98.6992 112.517 98.3697 112.266C98.0403 112.015 97.639 111.876 97.2249 111.87C88.7899 110.945 88.0649 100.37 89.1599 93.995C90.4399 86.495 92.5299 78.945 97.5299 73.055C101.815 68 107.405 64.22 113.09 60.91L114.725 59.95C117.776 58.3273 121.017 57.0927 124.375 56.275C128.605 55.325 132.93 54.93 137.135 53.835Z" fill="#231F20"/>
<path d="M108.84 82.3199C108.216 81.821 107.473 81.4932 106.684 81.3687C105.895 81.2442 105.087 81.3273 104.34 81.6099C102.915 82.1399 101.715 83.2549 101.69 84.7499C101.567 85.1842 101.505 85.6335 101.505 86.0849C101.534 86.8633 101.76 87.6215 102.162 88.289C102.563 88.9565 103.127 89.5115 103.801 89.9023C104.475 90.2931 105.237 90.507 106.015 90.5241C106.794 90.5411 107.565 90.3608 108.255 89.9999C111.07 88.4999 111.26 84.3049 108.84 82.3199ZM106.5 86.7749C106.341 86.8762 106.159 86.937 105.971 86.9519C105.783 86.9668 105.594 86.9353 105.421 86.8604C105.248 86.7854 105.096 86.6691 104.978 86.5217C104.86 86.3743 104.78 86.2003 104.745 86.0149C105.004 85.7923 105.276 85.5852 105.56 85.3949C105.671 85.3162 105.798 85.2632 105.932 85.2399C106.066 85.2165 106.204 85.2234 106.335 85.2599C106.455 85.3413 106.556 85.4477 106.63 85.572C106.705 85.6962 106.752 85.8351 106.768 85.9793C106.783 86.1234 106.768 86.2692 106.721 86.4065C106.675 86.5439 106.6 86.6696 106.5 86.7749Z" fill="#231F20"/>
<path d="M184.5 84.305C185.331 84.4246 186.179 84.3358 186.967 84.0466C187.755 83.7574 188.459 83.2768 189.015 82.6481C189.571 82.0194 189.963 81.2623 190.154 80.4448C190.345 79.6273 190.33 78.7752 190.11 77.965C189.16 74.42 184.61 72.965 181.99 75.67C181.952 75.7076 181.917 75.7477 181.885 75.79L181.8 75.87C178.95 78.715 180.46 83.76 184.5 84.305ZM184.6 78.49C184.849 78.4039 185.115 78.3815 185.375 78.425C185.54 78.4601 185.693 78.5385 185.818 78.6522C185.943 78.7658 186.036 78.9106 186.087 79.0717C186.138 79.2329 186.145 79.4047 186.108 79.5695C186.071 79.7343 185.99 79.8863 185.875 80.01C185.752 80.1468 185.588 80.2414 185.408 80.2804C185.228 80.3194 185.04 80.3008 184.871 80.2274C184.702 80.1539 184.56 80.0292 184.466 79.8709C184.372 79.7126 184.329 79.5286 184.345 79.345C184.369 79.0502 184.45 78.7631 184.585 78.5L184.6 78.49Z" fill="#231F20"/>
<path d="M136.75 93.6349C137.089 94.1027 137.581 94.4385 138.14 94.5849C138.87 95.3231 139.714 95.9393 140.64 96.4099C143.14 97.6649 146.455 98.6949 149.265 98.4499C155.08 97.9499 157.765 92.1249 157.93 86.9499C157.925 86.4025 157.705 85.879 157.318 85.4919C156.931 85.1049 156.407 84.8851 155.86 84.8799C152.36 84.9199 148.86 85.0949 145.39 85.3799C142.34 85.6299 138.975 85.6499 136.26 87.1649C136.056 87.2786 135.893 87.4535 135.795 87.6649C135.401 87.8653 135.094 88.202 134.93 88.6123C134.766 89.0226 134.757 89.4785 134.905 89.8949C135.326 91.2283 135.948 92.4895 136.75 93.6349Z" fill="#231F20"/>
<path d="M87.89 72.9601C88.0029 72.9583 88.1124 72.9205 88.2023 72.8521C88.2923 72.7838 88.358 72.6884 88.39 72.5801C89.01 69.8801 85.07 68.6851 83.045 68.7051C81.4757 68.7499 79.9472 69.2158 78.6198 70.0541C77.2924 70.8925 76.2148 72.0723 75.5 73.4701C74.7105 74.9793 74.2288 76.6303 74.0829 78.3273C73.937 80.0242 74.1297 81.7333 74.65 83.3551C75.51 85.9051 77.82 89.1551 80.735 87.3551C80.9466 87.2262 81.0999 87.0201 81.1624 86.7803C81.2249 86.5406 81.1918 86.2859 81.07 86.0701C80.17 84.6901 78.785 83.6301 78.24 82.0301C77.6043 80.0059 77.6712 77.8264 78.43 75.8451C78.7723 74.8546 79.3834 73.9789 80.1948 73.3158C81.0063 72.6526 81.9862 72.2283 83.025 72.0901C84.81 71.8851 86.235 73.0801 87.89 72.9601Z" fill="#231F20"/>
<path d="M206.5 67.9499C206.645 67.9876 206.795 68.0028 206.945 67.995C207.57 67.895 207.945 67.495 208.52 67.245C209.552 66.8322 210.679 66.7145 211.775 66.905C212.682 67.0227 213.552 67.3432 214.319 67.8426C215.086 68.342 215.73 69.0076 216.205 69.79C217.155 71.475 217.205 73.69 215.945 75.235C214.755 76.695 212.72 76.8599 211.2 77.8399C211.06 77.9246 210.942 78.0396 210.853 78.1765C210.764 78.3134 210.707 78.4686 210.686 78.6306C210.665 78.7926 210.681 78.9571 210.733 79.112C210.785 79.2668 210.871 79.408 210.985 79.525C213.355 81.835 216.775 80.16 218.72 78.025C221.015 75.485 221.35 71.7599 219.97 68.6999C219.297 67.2325 218.259 65.9617 216.956 65.0086C215.653 64.0555 214.127 63.4518 212.525 63.255C209.865 62.895 205.82 63.38 205.525 66.665C205.527 66.9558 205.623 67.2382 205.798 67.4698C205.974 67.7015 206.22 67.87 206.5 67.9499Z" fill="#231F20"/>
<path d="M91.9701 42.68C82.2551 52.985 72.6351 63.62 65.3751 75.845C63.5401 78.935 61.8001 82.135 60.2101 85.43C60.2101 77.875 58.5301 70.225 54.9451 63.75C52.8351 59.94 48.8751 56.855 44.4751 59.14C40.2401 61.34 37.8751 66.165 36.4351 70.475C32.4351 82.375 31.3501 95.475 29.8351 107.845C28.2351 120.92 27.2001 134.105 28.0901 147.275C29.7901 172.435 37.5001 196.685 45.3901 220.47C52.5801 242.135 61.0501 264.5 78.0451 280.5C85.8801 287.885 96.4751 295.215 107.47 296.385C112.26 296.885 117.385 295.645 120.04 291.3C122.695 286.955 121.645 281.775 120.115 277.22C124.237 278.181 128.428 278.818 132.65 279.125C141.085 279.715 149.65 279.01 158.02 277.945C165.02 277.05 172.02 275.745 178.675 273.27C180.13 272.73 181.63 272.12 183.125 271.44C181.405 276.325 180.31 281.94 182.865 286.715C185.365 291.38 189.92 292.5 194.815 291.49C205.625 289.265 214.765 281.905 221.505 273.45C228.71 264.4 234.565 253.885 239.38 243.35C246.59 245.105 253.21 240.025 257.125 234.275C261.655 227.63 264.42 219.665 265.89 211.805C268.965 195.335 266.84 178.41 263.8 162.1C260.459 144.106 255.56 126.436 249.16 109.29C243.05 93 235.9 76.68 225.855 62.365C220.55 54.805 214.445 47.755 207.355 41.805C201.2 36.63 193.92 31.5 186.055 29.22C185.596 26.9936 184.439 24.9719 182.75 23.45C180.659 21.5039 178.134 20.0847 175.385 19.31C178.74 16.935 181.485 13.81 179.885 10.03C177.42 4.25497 168.66 4.89997 163.585 5.24997C149.785 6.20497 136.925 12.095 124.65 18.04C118.23 21.145 112.09 24.6 106.48 29.04C101.25 33.15 96.5251 37.85 91.9701 42.68ZM130.035 20.115C135.519 17.4616 141.153 15.1326 146.91 13.14C153.41 10.975 160.185 9.50997 167.075 9.58497C168.705 9.58497 176.975 9.43497 175.71 12.86C175.235 14.15 172.56 15.61 171.535 16.315C170.076 17.3119 168.562 18.225 167 19.05C165.16 20.025 165.885 23.49 168.12 23.195C171.813 22.6176 175.584 23.5156 178.62 25.695C181.7 27.985 183.4 31.865 179.37 34.235C175.965 36.235 171.395 34.8 167.925 33.69C164 32.455 160.455 30.5 156.745 28.86C155.06 28.105 152.91 30.235 154.585 31.655C158.905 35.315 164.53 37.53 170.005 38.835C175.005 40.025 180.74 40 184.28 35.73C185.103 34.7662 185.692 33.6246 186 32.395C191.75 35.705 197.5 38.845 202.68 43.11C208.445 47.858 213.673 53.2234 218.27 59.11C228.28 72 235.5 86.9 241.57 101.95C247.971 117.785 253.092 134.107 256.885 150.76C260.425 166.345 263.35 182.5 262.745 198.5C262.42 207.045 260.95 215.62 257.615 223.535C254.8 230.235 249.555 239.74 241.245 239.07C245.635 228.465 248.27 217.33 249.745 205.94C251.59 191.88 252.36 177.315 251.37 163.165C251.337 162.724 251.138 162.311 250.813 162.01C250.489 161.71 250.063 161.542 249.62 161.542C249.178 161.542 248.751 161.71 248.427 162.01C248.102 162.311 247.903 162.724 247.87 163.165C246.93 174.265 247.19 185.435 246.3 196.545C245.41 207.655 243.65 218.73 240.255 229.365C236.86 240 231.66 250 226 259.555C220.695 268.49 214.35 277.155 205.5 282.89C203.137 284.45 200.606 285.739 197.955 286.735C195.395 287.67 191.9 289.02 189.21 288.015C182.71 285.58 185.275 276.615 186.39 271.805C186.48 271.504 186.473 271.182 186.369 270.885C186.266 270.588 186.072 270.331 185.815 270.15C190.365 267.79 194.66 264.705 197.36 260.62C198.695 258.62 195.885 256.935 194.26 258.225C191.685 260.275 189.38 262.56 186.59 264.345C183.824 266.103 180.885 267.574 177.82 268.735C171.64 271.095 165.105 272.46 158.56 273.35C150.928 274.448 143.22 274.931 135.51 274.795C127.482 274.516 119.531 273.127 111.885 270.665C107.725 269.37 103.65 267.84 99.5801 266.29C95.5101 264.74 91.2701 262.705 86.9301 261.75C86.7688 261.715 86.6002 261.737 86.4537 261.813C86.3072 261.889 86.192 262.014 86.1283 262.167C86.0647 262.319 86.0565 262.489 86.1052 262.647C86.154 262.804 86.2566 262.94 86.3951 263.03C89.6951 265.53 93.6901 267.325 97.4251 269.09C101.16 270.855 104.865 272.405 108.69 273.805C110.963 274.638 113.263 275.388 115.59 276.055C115.605 276.212 115.639 276.366 115.69 276.515C116.92 280.355 118.865 285.8 116.235 289.48C113.665 293.085 108.375 292.59 104.63 291.595C95.7801 289.25 87.6301 283.72 81.0551 277.5C65.9501 263.235 57.7751 243.745 51.1701 224.445C44.0801 203.72 37.1051 182.635 33.6701 160.945C30.0451 138 32.3251 114.945 35.5301 92.075C36.3125 85.8614 37.5119 79.7076 39.1201 73.655C39.7678 71.0377 40.7989 68.5306 42.1801 66.215C43.5101 64.145 46.1151 60.895 48.9201 62.175C51.3701 63.29 52.6451 66.85 53.5351 69.14C54.5816 71.8421 55.3881 74.6312 55.9451 77.475C56.9743 82.9004 57.1666 88.4514 56.5151 93.935C53.6551 101.435 51.6901 109.245 51.1651 117.13C51.0901 118.235 52.7801 118.425 53.0651 117.39C56.1901 105.89 59.4301 94.555 64.9201 83.935C70.6651 72.82 78.3601 63.115 86.7551 53.895C94.8251 45.025 103.05 35.85 113.085 29.145C118.425 25.58 124.245 22.835 130.035 20.115Z" fill="#231F20"/>
<path d="M192 184.5C185.165 181.705 180.115 185.83 176.35 190.95C175.32 173.62 164.64 156.75 148.505 149.76C138.675 145.505 128.865 147.26 120.11 153.12C112.705 158.06 106.54 165.455 104.43 174.235C103.442 178.357 103.398 182.649 104.3 186.79C98.4899 186.47 93.6649 190.965 91.9549 196.48C89.8849 203.155 91.3499 210.7 94.1549 216.925C100.6 231.23 114.93 239.72 129.415 244.105C137.215 246.465 145.44 247.63 153.52 246.175C160.67 244.885 167.365 241.675 173.265 237.5C179.296 233.14 184.726 228.004 189.415 222.225C194.18 216.48 199.175 210.05 200.445 202.49C201.645 195.325 199.145 187.4 192 184.5ZM198.025 204.64C196.085 211.235 191.485 216.93 187.085 222.075C182.992 226.97 178.348 231.375 173.245 235.205C162.245 243.26 149.605 246.655 136.135 243.885C123.175 241.215 109.75 235.135 101.205 224.73C96.5999 219.125 93.3849 212.145 92.9349 204.85C92.4949 197.74 96.0349 187.35 104.775 188.615C106.065 193.138 108.717 197.153 112.37 200.115C112.765 200.43 113.32 199.915 112.935 199.55C109.849 196.557 107.582 192.823 106.35 188.705C106.975 188.36 107.08 187.265 106.195 187.06L105.895 187C105.081 183.525 104.973 179.922 105.58 176.405C107.08 167.82 112.735 160.43 119.72 155.44C127.69 149.745 136.935 147.235 146.34 150.83C154.55 153.975 161.6 160.155 166.475 167.395C171.756 175.2 174.577 184.407 174.575 193.83C174.581 194.031 174.652 194.225 174.777 194.383C174.902 194.54 175.074 194.654 175.269 194.707C175.463 194.759 175.669 194.748 175.856 194.675C176.044 194.602 176.203 194.47 176.31 194.3C178.075 191.54 179.955 188.555 182.81 186.8C185.85 184.935 189.465 185.11 192.545 186.8C198.845 190.3 199.895 198.25 198.025 204.62V204.64Z" fill="#231F20"/>
<path d="M240.16 115.5C241.625 119.525 243 123.585 244.315 127.665C245.59 131.63 246.58 135.735 248.245 139.56C248.475 140.085 249.155 139.665 249.095 139.2C248.475 134.7 246.84 130.25 245.42 125.93C244.087 121.86 242.658 117.818 241.135 113.805C238.085 105.7 234.48 97.9351 230.765 90.1251C230.565 89.7101 229.96 90.0751 230.15 90.4851C233.88 98.6101 237.095 107.075 240.16 115.5Z" fill="#231F20"/>
<path d="M248.9 147.21C249.575 149.055 249.98 151.185 251.145 152.805C251.2 152.89 251.283 152.953 251.38 152.982C251.476 153.012 251.58 153.007 251.674 152.967C251.767 152.928 251.843 152.857 251.889 152.767C251.935 152.677 251.948 152.574 251.925 152.475C251.625 150.505 250.425 148.7 249.61 146.91C249.43 146.5 248.745 146.795 248.9 147.21Z" fill="#231F20"/>
<path d="M48.315 187.035C46.925 181.888 45.6934 176.705 44.62 171.485C43.49 165.985 42.8 160.37 41.585 154.885C41.5583 154.788 41.4974 154.705 41.4137 154.649C41.3299 154.594 41.229 154.571 41.1295 154.584C41.0301 154.598 40.9388 154.647 40.8727 154.722C40.8067 154.798 40.7702 154.895 40.77 154.995C41.27 165.845 44.09 176.995 46.86 187.435C49.665 198.02 52.93 208.75 57.655 218.645C57.7278 218.75 57.8344 218.826 57.9569 218.861C58.0795 218.897 58.2104 218.889 58.3277 218.839C58.4451 218.789 58.5417 218.7 58.6013 218.588C58.6609 218.475 58.6799 218.345 58.655 218.22C55.055 207.85 51.185 197.65 48.315 187.035Z" fill="#231F20"/>
<path d="M62.5852 228.875C62.3752 228.44 61.6702 228.745 61.8102 229.2C63.1202 233.465 64.5202 238.2 66.7152 242.1C66.7882 242.218 66.901 242.306 67.0333 242.348C67.1656 242.39 67.3086 242.383 67.4363 242.329C67.5639 242.274 67.6679 242.176 67.7291 242.051C67.7904 241.927 67.805 241.784 67.7702 241.65C66.7302 237.32 64.5252 232.885 62.5852 228.875Z" fill="#231F20"/>
<path d="M94.4449 54.1849C98.4999 49.0499 102.88 44.2299 108 40.1499C110.623 38.0683 113.393 36.18 116.29 34.4999C119.225 32.7899 122.42 31.5849 125.345 29.8799C125.443 29.8232 125.517 29.7325 125.554 29.6249C125.59 29.5173 125.585 29.4002 125.541 29.2956C125.497 29.1911 125.416 29.1063 125.313 29.0574C125.211 29.0085 125.094 28.9987 124.985 29.0299C118.79 30.5549 112.685 34.8849 107.76 38.7999C102.351 42.9967 97.7063 48.0947 94.0299 53.8699C93.8799 54.1149 94.2599 54.4249 94.4449 54.1849Z" fill="#231F20"/>
<path d="M132.655 27.3149C133.409 26.8222 134.218 26.4195 135.065 26.1149C135.85 25.8199 136.7 25.7149 137.475 25.3999C137.569 25.3535 137.646 25.2785 137.696 25.1858C137.745 25.093 137.763 24.9871 137.749 24.883C137.735 24.779 137.688 24.6822 137.615 24.6062C137.543 24.5303 137.448 24.4791 137.345 24.4599C135.465 24.2949 133.565 25.5799 132.225 26.7599C131.93 26.9999 132.32 27.5349 132.655 27.3149Z" fill="#231F20"/>
</svg>
