<svg preserveAspectRatio="none" width="100%" height="100%" overflow="visible" style="display: block;" viewBox="0 0 300 300" fill="none" xmlns="http://www.w3.org/2000/svg">
<g id="doodle-28 1">
<path id="Vector" d="M86.765 53.89C78.37 63.11 70.675 72.815 64.93 83.93C59.43 94.55 56.2 105.9 53.075 117.385C52.79 118.42 51.075 118.23 51.175 117.125C51.7 109.24 53.675 101.42 56.525 93.93C57.1765 88.4464 56.9843 82.8954 55.955 77.47C55.398 74.6263 54.5916 71.8372 53.545 69.135C52.655 66.845 51.38 63.285 48.93 62.17C46.125 60.89 43.52 64.14 42.19 66.21C40.8088 68.5256 39.7777 71.0327 39.13 73.65C37.5218 79.7026 36.3224 85.8565 35.54 92.07C32.335 114.925 30.04 137.995 33.68 160.94C37.1 182.635 44.075 203.72 51.18 224.44C57.785 243.74 65.96 263.23 81.065 277.495C87.65 283.715 95.79 289.245 104.64 291.59C108.385 292.59 113.675 293.09 116.245 289.475C118.875 285.795 116.93 280.35 115.7 276.51C115.649 276.361 115.615 276.207 115.6 276.05C113.267 275.383 110.967 274.633 108.7 273.8C104.873 272.4 101.118 270.828 97.435 269.085C93.7 267.32 89.705 265.525 86.405 263.025C86.2665 262.935 86.1639 262.799 86.1151 262.642C86.0664 262.484 86.0746 262.314 86.1383 262.162C86.2019 262.009 86.3171 261.884 86.4636 261.808C86.6101 261.732 86.7787 261.71 86.94 261.745C91.28 262.7 95.44 264.715 99.59 266.285C103.74 267.855 107.735 269.365 111.895 270.66C119.535 273.121 127.479 274.513 135.5 274.795C143.21 274.931 150.918 274.448 158.55 273.35C165.095 272.46 171.63 271.095 177.81 268.735C180.875 267.574 183.814 266.103 186.58 264.345C189.37 262.56 191.675 260.275 194.25 258.225C195.875 256.935 198.685 258.6 197.35 260.62C194.65 264.705 190.35 267.79 185.805 270.15C186.062 270.331 186.256 270.588 186.359 270.885C186.462 271.182 186.47 271.504 186.38 271.805C185.265 276.615 182.68 285.58 189.2 288.015C191.89 289.015 195.385 287.67 197.945 286.735C200.599 285.74 203.133 284.45 205.5 282.89C214.34 277.155 220.685 268.49 226 259.555C231.66 250 236.88 240 240.27 229.385C243.66 218.77 245.42 207.675 246.315 196.565C247.21 185.455 246.945 174.285 247.885 163.185C247.918 162.744 248.117 162.331 248.442 162.03C248.766 161.73 249.192 161.562 249.635 161.562C250.078 161.562 250.504 161.73 250.828 162.03C251.153 162.331 251.352 162.744 251.385 163.185C252.385 177.335 251.605 191.9 249.76 205.96C248.26 217.35 245.63 228.485 241.26 239.09C249.57 239.76 254.815 230.255 257.63 223.555C260.965 215.64 262.435 207.055 262.76 198.52C263.365 182.48 260.44 166.345 256.9 150.76C253.107 134.107 247.986 117.785 241.585 101.95C235.5 86.9 228.28 72 218.245 59.13C213.648 53.2434 208.42 47.8781 202.655 43.13C197.5 38.845 191.725 35.705 186 32.395C185.7 33.6224 185.119 34.7638 184.305 35.73C180.74 40 175 40.025 170 38.835C164.525 37.53 158.9 35.335 154.58 31.655C152.905 30.235 155.055 28.105 156.74 28.86C160.455 30.5 164 32.455 167.9 33.7C171.37 34.81 175.94 36.25 179.345 34.245C183.375 31.875 181.675 27.995 178.595 25.705C175.559 23.5256 171.787 22.6277 168.095 23.205C165.86 23.5 165.135 20.035 166.975 19.06C168.546 18.2358 170.068 17.3227 171.535 16.325C172.56 15.62 175.235 14.16 175.71 12.87C176.975 9.445 168.71 9.615 167.075 9.595C160.185 9.52 153.425 10.985 146.91 13.15C141.153 15.1426 135.519 17.4716 130.035 20.125C124.245 22.845 118.425 25.59 113.095 29.15C103.06 35.845 94.835 45 86.765 53.89ZM249.61 146.89C250.42 148.68 251.61 150.485 251.925 152.455C251.948 152.554 251.935 152.657 251.889 152.747C251.843 152.837 251.767 152.908 251.673 152.947C251.58 152.987 251.476 152.992 251.38 152.962C251.283 152.933 251.2 152.87 251.145 152.785C249.98 151.165 249.575 149.035 248.9 147.19C248.745 146.795 249.43 146.5 249.61 146.91V146.89ZM230.765 90.09C234.48 97.9 238.085 105.665 241.135 113.77C242.645 117.77 244.073 121.812 245.42 125.895C246.84 130.215 248.475 134.645 249.095 139.165C249.155 139.63 248.475 140.05 248.245 139.525C246.58 135.7 245.59 131.595 244.315 127.63C243 123.57 241.625 119.5 240.16 115.5C237.095 107.09 233.88 98.625 230.16 90.5C229.96 90.06 230.565 89.695 230.765 90.11V90.09ZM57.655 218.645C52.93 208.75 49.655 198.02 46.86 187.435C44.09 177 41.28 165.845 40.77 155C40.7701 154.9 40.8066 154.803 40.8727 154.727C40.9388 154.652 41.03 154.603 41.1295 154.589C41.2289 154.576 41.3299 154.599 41.4136 154.654C41.4974 154.71 41.5583 154.793 41.585 154.89C42.8 160.37 43.5 166 44.62 171.5C45.6867 176.72 46.9183 181.903 48.315 187.05C51.185 197.665 55.055 207.865 58.665 218.235C58.6901 218.362 58.6703 218.493 58.6091 218.606C58.5478 218.72 58.4489 218.809 58.3293 218.857C58.2098 218.906 58.0771 218.911 57.954 218.872C57.831 218.834 57.7252 218.753 57.655 218.645ZM66.715 242.1C64.52 238.2 63.12 233.465 61.81 229.2C61.67 228.745 62.375 228.44 62.585 228.875C64.525 232.875 66.73 237.32 67.77 241.65C67.8048 241.784 67.7902 241.927 67.7289 242.051C67.6676 242.176 67.5637 242.274 67.436 242.329C67.3084 242.383 67.1654 242.39 67.0331 242.348C66.9008 242.306 66.7879 242.218 66.715 242.1ZM83.045 72.1C82.0062 72.2382 81.0263 72.6626 80.2148 73.3257C79.4034 73.9888 78.7923 74.8645 78.45 75.855C77.6912 77.8363 77.6243 80.0159 78.26 82.04C78.805 83.64 80.19 84.7 81.09 86.08C81.2118 86.2958 81.2449 86.5505 81.1824 86.7903C81.1199 87.03 80.9666 87.2361 80.755 87.365C77.84 89.165 75.53 85.915 74.67 83.365C74.1498 81.7432 73.957 80.0341 74.1029 78.3372C74.2488 76.6402 74.7305 74.9892 75.52 73.48C76.2332 72.0851 77.3077 70.9072 78.6313 70.0691C79.9549 69.2309 81.4791 68.7633 83.045 68.715C85.045 68.715 89.01 69.89 88.39 72.59C88.358 72.6984 88.2923 72.7937 88.2023 72.862C88.1124 72.9304 88.003 72.9682 87.89 72.97C86.235 73.08 84.81 71.885 83.045 72.09V72.1ZM200.445 202.48C199.175 210.04 194.18 216.48 189.415 222.215C184.727 227.997 179.296 233.137 173.265 237.5C167.365 241.675 160.67 244.885 153.52 246.175C145.44 247.63 137.215 246.465 129.415 244.105C114.915 239.72 100.6 231.23 94.155 216.925C91.35 210.7 89.885 203.155 91.955 196.48C93.665 190.98 98.49 186.48 104.3 186.79C103.398 182.649 103.442 178.357 104.43 174.235C106.54 165.455 112.705 158.06 120.11 153.12C128.865 147.285 138.675 145.505 148.505 149.76C164.64 156.76 175.32 173.62 176.35 190.95C180.115 185.83 185.165 181.705 192 184.5C199.145 187.4 201.645 195.325 200.445 202.47V202.48ZM212.54 63.25C214.144 63.4435 215.672 64.0445 216.978 64.996C218.284 65.9474 219.324 67.2174 220 68.685C221.38 71.745 221.045 75.47 218.75 78.01C216.805 80.16 213.385 81.835 211.015 79.51C210.901 79.393 210.815 79.2519 210.763 79.097C210.711 78.9421 210.695 78.7776 210.716 78.6156C210.737 78.4537 210.794 78.2984 210.883 78.1615C210.972 78.0247 211.09 77.9096 211.23 77.825C212.73 76.825 214.785 76.68 215.975 75.22C217.235 73.675 217.185 71.46 216.235 69.775C215.76 68.9926 215.116 68.3271 214.349 67.8277C213.582 67.3283 212.713 67.0078 211.805 66.89C210.709 66.6995 209.583 66.8172 208.55 67.23C207.99 67.47 207.6 67.88 206.975 67.98C206.825 67.9879 206.675 67.9727 206.53 67.935C206.243 67.8589 205.99 67.6902 205.809 67.4551C205.628 67.2199 205.53 66.9316 205.53 66.635C205.835 63.365 209.88 62.88 212.54 63.24V63.25ZM132.225 26.75C133.565 25.57 135.465 24.285 137.345 24.45C137.453 24.4623 137.555 24.5096 137.634 24.5847C137.712 24.6599 137.765 24.7588 137.782 24.8663C137.8 24.9739 137.782 25.0842 137.731 25.1806C137.68 25.2769 137.599 25.354 137.5 25.4C136.725 25.715 135.875 25.82 135.09 26.115C134.243 26.4196 133.434 26.8223 132.68 27.315C132.32 27.535 131.93 27 132.225 26.76V26.75ZM132.695 50.585C135.75 49.91 138.815 49.24 141.82 48.355C151.35 45.56 160.79 44.02 170.705 45.535C179.608 46.8556 187.95 50.689 194.75 56.585C201.08 62.125 205.89 69.62 207.79 77.85C209.535 85.405 208.89 94.06 203.325 99.685C204.785 102.185 204.37 105.415 202.39 107.86C199.825 111.04 195.75 111.31 191.89 110.86C192.915 117.595 188.22 124.12 181.515 126.205C173.015 128.84 164.75 124.985 157.8 120.235C155.85 125.05 150.075 127.77 144.85 127.08C141.165 126.58 137.85 124.74 134.94 122.515C133.41 121.345 131.65 120.08 130.385 118.62C129.465 117.55 129.725 116.99 129.06 118.41C128.659 119.262 128.185 120.079 127.645 120.85C123.615 126.575 116.365 129.735 109.445 128.35C102.865 127.05 97.445 121.755 95.655 115.35C89.835 113.965 85.995 108.67 85.155 102.76C84.155 95.79 86.195 87.825 88.605 81.31C90.84 75.3769 94.608 70.1424 99.525 66.14C103.655 62.69 108.3 59.98 113.075 57.53C115.491 55.9393 118.092 54.6497 120.82 53.69C124.62 52 128.6 50.555 132.695 50.595V50.585ZM107.76 38.785C112.685 34.87 118.79 30.54 124.985 29.015C125.094 28.9838 125.211 28.9936 125.313 29.0425C125.416 29.0914 125.497 29.1762 125.541 29.2807C125.585 29.3853 125.59 29.5024 125.554 29.61C125.518 29.7176 125.443 29.8083 125.345 29.865C122.42 31.57 119.225 32.775 116.29 34.485C113.393 36.1699 110.622 38.0632 108 40.15C102.87 44.23 98.5 49.05 94.435 54.185C94.25 54.425 93.87 54.115 94.02 53.865C97.6995 48.089 102.348 42.991 107.76 38.795V38.785Z" fill="var(--fill-0, white)"/>
<path id="Vector_2" d="M113.09 60.935C107.405 64.245 101.815 68.025 97.53 73.08C92.53 78.97 90.44 86.54 89.16 94.02C88.065 100.41 88.79 110.97 97.225 111.895C97.6392 111.901 98.0405 112.04 98.3699 112.291C98.6993 112.542 98.9395 112.892 99.055 113.29C100.345 119.435 105.61 124.545 112.025 124.91C115.124 125.043 118.182 124.165 120.74 122.41C123.54 120.53 124.57 118.175 126.24 115.41C127.815 112.81 130.66 113.77 132.56 115.41C135.13 117.605 137.475 119.95 140.47 121.59C143.225 123.09 146.33 123.885 149.395 122.865C152.09 121.97 154.475 119.905 154.525 116.905C154.55 115.52 156.255 114.245 157.525 115.18C163.26 119.38 169.76 123.545 177.19 122.98C183.565 122.48 190.59 116.38 187.41 109.48C187.222 109.134 187.138 108.741 187.169 108.349C187.2 107.956 187.344 107.581 187.584 107.269C187.824 106.957 188.149 106.721 188.52 106.59C188.891 106.458 189.292 106.438 189.675 106.53C192.32 107.005 195.78 107.735 198.26 106.26C199.635 105.445 201.335 102.525 199.615 101.21C198.345 100.24 198.35 98.74 199.615 97.77C207.22 91.93 205.17 79.575 201.615 72.095C194.615 57.305 178.99 49.095 162.99 48.86C153.94 48.73 145.775 51.59 137.135 53.86C132.93 54.955 128.605 55.36 124.375 56.325C121.018 57.1427 117.776 58.3773 114.725 60L113.09 60.935ZM108.255 90C107.565 90.3621 106.794 90.5433 106.014 90.5268C105.235 90.5103 104.472 90.2966 103.798 89.9057C103.123 89.5148 102.559 88.9593 102.157 88.2912C101.755 87.6231 101.529 86.8641 101.5 86.085C101.5 85.6336 101.562 85.1843 101.685 84.75C101.71 83.25 102.91 82.14 104.335 81.61C105.082 81.3274 105.89 81.2443 106.679 81.3688C107.468 81.4933 108.211 81.8211 108.835 82.32C111.26 84.305 111.07 88.5 108.255 90ZM181.785 75.865L181.87 75.785C181.902 75.7427 181.937 75.7026 181.975 75.665C184.605 72.98 189.145 74.415 190.095 77.96C190.315 78.7691 190.331 79.6203 190.141 80.4371C189.951 81.2538 189.561 82.0106 189.007 82.6396C188.452 83.2686 187.75 83.75 186.963 84.0406C186.177 84.3313 185.33 84.4222 184.5 84.305C180.46 83.76 178.95 78.715 181.785 75.87V75.865ZM135.785 87.66C135.884 87.4486 136.046 87.2737 136.25 87.16C138.965 85.66 142.33 85.625 145.38 85.375C148.88 85.095 152.38 84.92 155.85 84.875C156.397 84.8802 156.921 85.1 157.308 85.4871C157.695 85.8741 157.915 86.3976 157.92 86.945C157.76 92.125 155.07 97.945 149.255 98.445C146.445 98.69 143.12 97.66 140.63 96.405C139.704 95.9344 138.86 95.3182 138.13 94.58C137.571 94.4336 137.08 94.0978 136.74 93.63C135.938 92.4846 135.316 91.2234 134.895 89.89C134.75 89.4731 134.761 89.0175 134.926 88.6081C135.092 88.1988 135.401 87.8636 135.795 87.665L135.785 87.66Z" fill="var(--fill-0, #BFFBFF)"/>
<path id="Vector_3" d="M106.32 85.26C106.189 85.2235 106.051 85.2166 105.917 85.24C105.783 85.2633 105.656 85.3163 105.545 85.395C105.261 85.5853 104.989 85.7924 104.73 86.015C104.765 86.2004 104.845 86.3744 104.963 86.5218C105.081 86.6692 105.233 86.7855 105.406 86.8605C105.579 86.9354 105.768 86.9669 105.956 86.952C106.144 86.9371 106.326 86.8763 106.485 86.775C106.585 86.6697 106.66 86.544 106.706 86.4066C106.753 86.2693 106.769 86.1235 106.753 85.9793C106.737 85.8352 106.69 85.6963 106.616 85.5721C106.541 85.4478 106.44 85.3414 106.32 85.26Z" fill="var(--fill-0, white)"/>
<path id="Vector_4" d="M192.545 186.805C189.465 185.095 185.85 184.92 182.81 186.805C179.955 188.555 178.075 191.54 176.31 194.305C176.203 194.475 176.044 194.607 175.856 194.68C175.669 194.753 175.463 194.764 175.269 194.712C175.074 194.659 174.902 194.545 174.777 194.388C174.653 194.23 174.582 194.036 174.575 193.835C174.589 184.406 171.777 175.189 166.5 167.375C161.625 160.135 154.575 153.955 146.365 150.81C136.96 147.215 127.715 149.725 119.745 155.42C112.745 160.42 107.115 167.8 105.605 176.385C104.999 179.902 105.106 183.505 105.92 186.98L106.22 187.04C107.105 187.245 107 188.34 106.375 188.685C107.607 192.803 109.874 196.537 112.96 199.53C113.345 199.895 112.79 200.41 112.395 200.095C108.742 197.133 106.09 193.117 104.8 188.595C96.06 187.345 92.52 197.72 92.96 204.83C93.41 212.125 96.625 219.105 101.23 224.71C109.775 235.115 123.2 241.21 136.16 243.865C149.63 246.635 162.285 243.24 173.27 235.185C178.373 231.355 183.017 226.949 187.11 222.055C191.51 216.91 196.11 211.215 198.05 204.62C199.895 198.25 198.845 190.3 192.545 186.805Z" fill="var(--fill-0, white)"/>
<path id="Vector_5" d="M185.855 80C185.97 79.8763 186.05 79.7243 186.088 79.5595C186.125 79.3947 186.118 79.2229 186.067 79.0618C186.016 78.9006 185.923 78.7558 185.798 78.6422C185.673 78.5286 185.52 78.4502 185.355 78.415C185.095 78.3715 184.829 78.3939 184.58 78.48C184.437 78.7447 184.349 79.0354 184.32 79.335C184.303 79.5198 184.344 79.7052 184.439 79.8649C184.534 80.0246 184.676 80.1503 184.846 80.224C185.017 80.2978 185.206 80.3159 185.387 80.2756C185.568 80.2354 185.732 80.1389 185.855 80Z" fill="var(--fill-0, white)"/>
<path id="Vector_6" d="M152.71 91.4H152.395C152.138 91.9186 151.848 92.4197 151.525 92.9C151.306 93.218 151.011 93.4761 150.667 93.6508C150.323 93.8255 149.941 93.9111 149.555 93.9L149.335 94.235C150.076 94.0493 150.764 93.6976 151.349 93.2064C151.934 92.7153 152.399 92.0975 152.71 91.4Z" fill="var(--fill-0, white)"/>
<path id="Vector_7" d="M113.08 57.605C108.305 60.055 103.66 62.765 99.53 66.215C94.613 70.2174 90.845 75.4519 88.61 81.385C86.2 87.885 84.155 95.885 85.16 102.835C86.01 108.745 89.85 114.04 95.66 115.425C97.45 121.815 102.87 127.11 109.45 128.425C116.37 129.785 123.62 126.625 127.65 120.925C128.19 120.154 128.664 119.337 129.065 118.485C129.73 117.065 129.47 117.625 130.39 118.695C131.655 120.155 133.415 121.42 134.945 122.59C137.865 124.815 141.17 126.665 144.855 127.155C150.08 127.845 155.855 125.125 157.805 120.31C164.755 125.06 173.035 128.915 181.52 126.28C188.225 124.195 192.92 117.67 191.895 110.935C195.74 111.36 199.815 111.09 202.395 107.935C204.395 105.49 204.79 102.26 203.33 99.76C208.895 94.135 209.54 85.48 207.795 77.925C205.895 69.695 201.085 62.2 194.755 56.66C187.955 50.764 179.613 46.9306 170.71 45.61C160.795 44.11 151.355 45.61 141.825 48.43C138.825 49.315 135.755 49.985 132.7 50.66C128.605 50.62 124.625 52.065 120.83 53.83C118.103 54.7688 115.5 56.0365 113.08 57.605ZM137.135 53.835C145.775 51.59 153.94 48.73 162.99 48.835C178.99 49.06 194.61 57.28 201.615 72.07C205.16 79.57 207.21 91.905 199.615 97.745C198.35 98.715 198.345 100.215 199.615 101.185C201.335 102.5 199.615 105.42 198.26 106.235C195.76 107.71 192.32 106.98 189.675 106.505C189.292 106.413 188.891 106.433 188.52 106.565C188.149 106.696 187.824 106.932 187.584 107.244C187.344 107.556 187.2 107.931 187.169 108.324C187.138 108.716 187.222 109.109 187.41 109.455C190.59 116.355 183.565 122.455 177.19 122.955C169.76 123.52 163.26 119.355 157.525 115.155C156.25 114.22 154.525 115.495 154.525 116.88C154.475 119.88 152.09 121.945 149.395 122.84C146.33 123.84 143.225 123.08 140.47 121.565C137.47 119.925 135.13 117.565 132.56 115.385C130.66 113.76 127.815 112.8 126.24 115.385C124.585 118.13 123.555 120.485 120.74 122.385C118.182 124.14 115.124 125.018 112.025 124.885C105.61 124.52 100.345 119.41 99.055 113.265C98.9394 112.867 98.6993 112.517 98.3699 112.266C98.0405 112.015 97.6392 111.876 97.225 111.87C88.79 110.945 88.065 100.37 89.16 93.995C90.44 86.495 92.53 78.945 97.53 73.055C101.815 68 107.405 64.22 113.09 60.91L114.725 59.95C117.776 58.3273 121.018 57.0927 124.375 56.275C128.605 55.325 132.93 54.93 137.135 53.835Z" fill="var(--fill-0, #231F20)"/>
<path id="Vector_8" d="M108.84 82.32C108.216 81.8211 107.473 81.4933 106.684 81.3688C105.895 81.2443 105.087 81.3274 104.34 81.61C102.915 82.14 101.715 83.255 101.69 84.75C101.567 85.1843 101.505 85.6336 101.505 86.085C101.534 86.8634 101.761 87.6216 102.162 88.2891C102.564 88.9566 103.127 89.5116 103.801 89.9024C104.475 90.2932 105.237 90.5071 106.016 90.5242C106.794 90.5412 107.565 90.3609 108.255 90C111.07 88.5 111.26 84.305 108.84 82.32ZM106.5 86.775C106.341 86.8763 106.159 86.9371 105.971 86.952C105.783 86.9669 105.594 86.9354 105.421 86.8605C105.248 86.7855 105.096 86.6692 104.978 86.5218C104.86 86.3744 104.78 86.2004 104.745 86.015C105.004 85.7924 105.276 85.5853 105.56 85.395C105.671 85.3163 105.798 85.2633 105.932 85.24C106.066 85.2166 106.204 85.2235 106.335 85.26C106.455 85.3414 106.556 85.4478 106.631 85.5721C106.705 85.6963 106.752 85.8352 106.768 85.9794C106.784 86.1235 106.768 86.2693 106.721 86.4066C106.675 86.544 106.6 86.6697 106.5 86.775Z" fill="var(--fill-0, #231F20)"/>
<path id="Vector_9" d="M184.5 84.305C185.331 84.4246 186.179 84.3359 186.967 84.0467C187.755 83.7574 188.459 83.2769 189.015 82.6482C189.571 82.0194 189.963 81.2623 190.154 80.4448C190.345 79.6274 190.33 78.7752 190.11 77.965C189.16 74.42 184.61 72.965 181.99 75.67C181.952 75.7076 181.917 75.7477 181.885 75.79L181.8 75.87C178.95 78.715 180.46 83.76 184.5 84.305ZM184.6 78.49C184.849 78.4039 185.115 78.3815 185.375 78.425C185.54 78.4602 185.693 78.5386 185.818 78.6522C185.943 78.7658 186.036 78.9106 186.087 79.0718C186.138 79.2329 186.145 79.4047 186.108 79.5695C186.07 79.7344 185.99 79.8864 185.875 80.01C185.751 80.1468 185.588 80.2414 185.408 80.2804C185.228 80.3194 185.04 80.3009 184.871 80.2274C184.702 80.1539 184.56 80.0293 184.466 79.8709C184.371 79.7126 184.329 79.5286 184.345 79.345C184.369 79.0503 184.45 78.7631 184.585 78.5L184.6 78.49Z" fill="var(--fill-0, #231F20)"/>
<path id="Vector_10" d="M136.75 93.635C137.09 94.1029 137.581 94.4386 138.14 94.585C138.87 95.3232 139.714 95.9394 140.64 96.41C143.14 97.665 146.455 98.695 149.265 98.45C155.08 97.95 157.765 92.125 157.93 86.95C157.925 86.4026 157.705 85.8791 157.318 85.4921C156.931 85.105 156.407 84.8852 155.86 84.88C152.36 84.92 148.86 85.095 145.39 85.38C142.34 85.63 138.975 85.65 136.26 87.165C136.056 87.2787 135.894 87.4536 135.795 87.665C135.401 87.8654 135.094 88.2021 134.93 88.6124C134.766 89.0227 134.757 89.4786 134.905 89.895C135.326 91.2284 135.948 92.4896 136.75 93.635Z" fill="var(--fill-0, #231F20)"/>
<path id="Vector_11" d="M87.89 72.96C88.003 72.9582 88.1124 72.9204 88.2023 72.852C88.2923 72.7837 88.358 72.6884 88.39 72.58C89.01 69.88 85.07 68.685 83.045 68.705C81.4757 68.7498 79.9473 69.2157 78.6198 70.0541C77.2924 70.8924 76.2149 72.0722 75.5 73.47C74.7105 74.9792 74.2288 76.6302 74.0829 78.3272C73.937 80.0242 74.1298 81.7332 74.65 83.355C75.51 85.905 77.82 89.155 80.735 87.355C80.9466 87.2261 81.0999 87.02 81.1624 86.7803C81.2249 86.5405 81.1918 86.2858 81.07 86.07C80.17 84.69 78.785 83.63 78.24 82.03C77.6043 80.0059 77.6712 77.8263 78.43 75.845C78.7723 74.8545 79.3834 73.9788 80.1948 73.3157C81.0063 72.6526 81.9862 72.2282 83.025 72.09C84.81 71.885 86.235 73.08 87.89 72.96Z" fill="var(--fill-0, #231F20)"/>
<path id="Vector_12" d="M206.5 67.95C206.645 67.9877 206.795 68.0029 206.945 67.995C207.57 67.895 207.945 67.495 208.52 67.245C209.553 66.8322 210.679 66.7145 211.775 66.905C212.683 67.0228 213.552 67.3432 214.319 67.8427C215.086 68.3421 215.73 69.0076 216.205 69.79C217.155 71.475 217.205 73.69 215.945 75.235C214.755 76.695 212.72 76.86 211.2 77.84C211.06 77.9246 210.942 78.0397 210.853 78.1765C210.764 78.3134 210.707 78.4687 210.686 78.6306C210.665 78.7926 210.681 78.9571 210.733 79.112C210.785 79.2669 210.871 79.408 210.985 79.525C213.355 81.835 216.775 80.16 218.72 78.025C221.015 75.485 221.35 71.76 219.97 68.7C219.297 67.2325 218.259 65.9618 216.956 65.0087C215.653 64.0556 214.127 63.4519 212.525 63.255C209.865 62.895 205.82 63.38 205.525 66.665C205.527 66.9558 205.623 67.2382 205.798 67.4699C205.974 67.7015 206.22 67.87 206.5 67.95Z" fill="var(--fill-0, #231F20)"/>
<path id="Vector_13" d="M91.97 42.68C82.255 52.985 72.635 63.62 65.375 75.845C63.54 78.935 61.8 82.135 60.21 85.43C60.21 77.875 58.53 70.225 54.945 63.75C52.835 59.94 48.875 56.855 44.475 59.14C40.24 61.34 37.875 66.165 36.435 70.475C32.435 82.375 31.35 95.475 29.835 107.845C28.235 120.92 27.2 134.105 28.09 147.275C29.79 172.435 37.5 196.685 45.39 220.47C52.58 242.135 61.05 264.5 78.045 280.5C85.88 287.885 96.475 295.215 107.47 296.385C112.26 296.885 117.385 295.645 120.04 291.3C122.695 286.955 121.645 281.775 120.115 277.22C124.237 278.181 128.428 278.818 132.65 279.125C141.085 279.715 149.65 279.01 158.02 277.945C165.02 277.05 172.02 275.745 178.675 273.27C180.13 272.73 181.63 272.12 183.125 271.44C181.405 276.325 180.31 281.94 182.865 286.715C185.365 291.38 189.92 292.5 194.815 291.49C205.625 289.265 214.765 281.905 221.505 273.45C228.71 264.4 234.565 253.885 239.38 243.35C246.59 245.105 253.21 240.025 257.125 234.275C261.655 227.63 264.42 219.665 265.89 211.805C268.965 195.335 266.84 178.41 263.8 162.1C260.459 144.106 255.56 126.436 249.16 109.29C243.05 93 235.9 76.68 225.855 62.365C220.55 54.805 214.445 47.755 207.355 41.805C201.2 36.63 193.92 31.5 186.055 29.22C185.596 26.9936 184.438 24.972 182.75 23.45C180.659 21.504 178.134 20.0847 175.385 19.31C178.74 16.935 181.485 13.81 179.885 10.03C177.42 4.255 168.66 4.9 163.585 5.25C149.785 6.205 136.925 12.095 124.65 18.04C118.23 21.145 112.09 24.6 106.48 29.04C101.25 33.15 96.525 37.85 91.97 42.68ZM130.035 20.115C135.519 17.4616 141.153 15.1326 146.91 13.14C153.41 10.975 160.185 9.51 167.075 9.585C168.705 9.585 176.975 9.435 175.71 12.86C175.235 14.15 172.56 15.61 171.535 16.315C170.076 17.3119 168.562 18.225 167 19.05C165.16 20.025 165.885 23.49 168.12 23.195C171.812 22.6177 175.584 23.5156 178.62 25.695C181.7 27.985 183.4 31.865 179.37 34.235C175.965 36.235 171.395 34.8 167.925 33.69C164 32.455 160.455 30.5 156.745 28.86C155.06 28.105 152.91 30.235 154.585 31.655C158.905 35.315 164.53 37.53 170.005 38.835C175.005 40.025 180.74 40 184.28 35.73C185.103 34.7662 185.692 33.6247 186 32.395C191.75 35.705 197.5 38.845 202.68 43.11C208.445 47.8581 213.673 53.2234 218.27 59.11C228.28 72 235.5 86.9 241.57 101.95C247.971 117.785 253.092 134.107 256.885 150.76C260.425 166.345 263.35 182.5 262.745 198.5C262.42 207.045 260.95 215.62 257.615 223.535C254.8 230.235 249.555 239.74 241.245 239.07C245.635 228.465 248.27 217.33 249.745 205.94C251.59 191.88 252.36 177.315 251.37 163.165C251.337 162.724 251.138 162.311 250.813 162.01C250.489 161.71 250.063 161.542 249.62 161.542C249.177 161.542 248.751 161.71 248.427 162.01C248.102 162.311 247.903 162.724 247.87 163.165C246.93 174.265 247.19 185.435 246.3 196.545C245.41 207.655 243.65 218.73 240.255 229.365C236.86 240 231.66 250 226 259.555C220.695 268.49 214.35 277.155 205.5 282.89C203.137 284.45 200.606 285.739 197.955 286.735C195.395 287.67 191.9 289.02 189.21 288.015C182.71 285.58 185.275 276.615 186.39 271.805C186.48 271.504 186.472 271.182 186.369 270.885C186.266 270.588 186.072 270.331 185.815 270.15C190.365 267.79 194.66 264.705 197.36 260.62C198.695 258.62 195.885 256.935 194.26 258.225C191.685 260.275 189.38 262.56 186.59 264.345C183.824 266.103 180.885 267.574 177.82 268.735C171.64 271.095 165.105 272.46 158.56 273.35C150.928 274.448 143.22 274.931 135.51 274.795C127.482 274.516 119.531 273.127 111.885 270.665C107.725 269.37 103.65 267.84 99.58 266.29C95.51 264.74 91.27 262.705 86.93 261.75C86.7687 261.715 86.6001 261.737 86.4536 261.813C86.3071 261.889 86.1919 262.014 86.1283 262.167C86.0646 262.319 86.0564 262.489 86.1051 262.647C86.1539 262.804 86.2565 262.94 86.395 263.03C89.695 265.53 93.69 267.325 97.425 269.09C101.16 270.855 104.865 272.405 108.69 273.805C110.963 274.638 113.263 275.388 115.59 276.055C115.605 276.212 115.639 276.366 115.69 276.515C116.92 280.355 118.865 285.8 116.235 289.48C113.665 293.085 108.375 292.59 104.63 291.595C95.78 289.25 87.63 283.72 81.055 277.5C65.95 263.235 57.775 243.745 51.17 224.445C44.08 203.72 37.105 182.635 33.67 160.945C30.045 138 32.325 114.945 35.53 92.075C36.3124 85.8615 37.5118 79.7076 39.12 73.655C39.7677 71.0377 40.7988 68.5306 42.18 66.215C43.51 64.145 46.115 60.895 48.92 62.175C51.37 63.29 52.645 66.85 53.535 69.14C54.5816 71.8422 55.388 74.6313 55.945 77.475C56.9743 82.9004 57.1665 88.4514 56.515 93.935C53.655 101.435 51.69 109.245 51.165 117.13C51.09 118.235 52.78 118.425 53.065 117.39C56.19 105.89 59.43 94.555 64.92 83.935C70.665 72.82 78.36 63.115 86.755 53.895C94.825 45.025 103.05 35.85 113.085 29.145C118.425 25.58 124.245 22.835 130.035 20.115Z" fill="var(--fill-0, #231F20)"/>
<path id="Vector_14" d="M192 184.5C185.165 181.705 180.115 185.83 176.35 190.95C175.32 173.62 164.64 156.75 148.505 149.76C138.675 145.505 128.865 147.26 120.11 153.12C112.705 158.06 106.54 165.455 104.43 174.235C103.442 178.357 103.398 182.649 104.3 186.79C98.49 186.47 93.665 190.965 91.955 196.48C89.885 203.155 91.35 210.7 94.155 216.925C100.6 231.23 114.93 239.72 129.415 244.105C137.215 246.465 145.44 247.63 153.52 246.175C160.67 244.885 167.365 241.675 173.265 237.5C179.296 233.14 184.726 228.004 189.415 222.225C194.18 216.48 199.175 210.05 200.445 202.49C201.645 195.325 199.145 187.4 192 184.5ZM198.025 204.64C196.085 211.235 191.485 216.93 187.085 222.075C182.992 226.969 178.348 231.375 173.245 235.205C162.245 243.26 149.605 246.655 136.135 243.885C123.175 241.215 109.75 235.135 101.205 224.73C96.6 219.125 93.385 212.145 92.935 204.85C92.495 197.74 96.035 187.35 104.775 188.615C106.065 193.137 108.717 197.153 112.37 200.115C112.765 200.43 113.32 199.915 112.935 199.55C109.849 196.557 107.582 192.823 106.35 188.705C106.975 188.36 107.08 187.265 106.195 187.06L105.895 187C105.081 183.525 104.974 179.922 105.58 176.405C107.08 167.82 112.735 160.43 119.72 155.44C127.69 149.745 136.935 147.235 146.34 150.83C154.55 153.975 161.6 160.155 166.475 167.395C171.756 175.199 174.577 184.407 174.575 193.83C174.582 194.031 174.653 194.225 174.777 194.383C174.902 194.54 175.074 194.654 175.269 194.707C175.463 194.759 175.669 194.748 175.856 194.675C176.044 194.602 176.203 194.47 176.31 194.3C178.075 191.54 179.955 188.555 182.81 186.8C185.85 184.935 189.465 185.11 192.545 186.8C198.845 190.3 199.895 198.25 198.025 204.62V204.64Z" fill="var(--fill-0, #231F20)"/>
<path id="Vector_15" d="M240.16 115.5C241.625 119.525 243 123.585 244.315 127.665C245.59 131.63 246.58 135.735 248.245 139.56C248.475 140.085 249.155 139.665 249.095 139.2C248.475 134.7 246.84 130.25 245.42 125.93C244.087 121.86 242.658 117.818 241.135 113.805C238.085 105.7 234.48 97.935 230.765 90.125C230.565 89.71 229.96 90.075 230.15 90.485C233.88 98.61 237.095 107.075 240.16 115.5Z" fill="var(--fill-0, #231F20)"/>
<path id="Vector_16" d="M248.9 147.21C249.575 149.055 249.98 151.185 251.145 152.805C251.2 152.89 251.283 152.953 251.38 152.982C251.476 153.012 251.58 153.007 251.673 152.967C251.767 152.928 251.843 152.857 251.889 152.767C251.935 152.677 251.948 152.574 251.925 152.475C251.625 150.505 250.425 148.7 249.61 146.91C249.43 146.5 248.745 146.795 248.9 147.21Z" fill="var(--fill-0, #231F20)"/>
<path id="Vector_17" d="M48.315 187.035C46.925 181.888 45.6933 176.705 44.62 171.485C43.49 165.985 42.8 160.37 41.585 154.885C41.5583 154.788 41.4974 154.705 41.4136 154.649C41.3299 154.594 41.2289 154.571 41.1295 154.584C41.03 154.598 40.9388 154.647 40.8727 154.722C40.8066 154.798 40.7701 154.895 40.77 154.995C41.27 165.845 44.09 176.995 46.86 187.435C49.665 198.02 52.93 208.75 57.655 218.645C57.7278 218.75 57.8344 218.826 57.9569 218.861C58.0794 218.897 58.2104 218.889 58.3277 218.839C58.4451 218.789 58.5416 218.7 58.6012 218.588C58.6608 218.475 58.6798 218.345 58.655 218.22C55.055 207.85 51.185 197.65 48.315 187.035Z" fill="var(--fill-0, #231F20)"/>
<path id="Vector_18" d="M62.585 228.875C62.375 228.44 61.67 228.745 61.81 229.2C63.12 233.465 64.52 238.2 66.715 242.1C66.7879 242.218 66.9008 242.306 67.0331 242.348C67.1654 242.39 67.3084 242.383 67.436 242.329C67.5637 242.274 67.6676 242.176 67.7289 242.051C67.7902 241.927 67.8048 241.784 67.77 241.65C66.73 237.32 64.525 232.885 62.585 228.875Z" fill="var(--fill-0, #231F20)"/>
<path id="Vector_19" d="M94.445 54.185C98.5 49.05 102.88 44.23 108 40.15C110.623 38.0684 113.393 36.1801 116.29 34.5C119.225 32.79 122.42 31.585 125.345 29.88C125.443 29.8233 125.518 29.7326 125.554 29.625C125.59 29.5174 125.585 29.4003 125.541 29.2957C125.497 29.1912 125.416 29.1064 125.313 29.0575C125.211 29.0086 125.094 28.9988 124.985 29.03C118.79 30.555 112.685 34.885 107.76 38.8C102.351 42.9968 97.7065 48.0948 94.03 53.87C93.88 54.115 94.26 54.425 94.445 54.185Z" fill="var(--fill-0, #231F20)"/>
<path id="Vector_20" d="M132.655 27.315C133.409 26.8223 134.218 26.4196 135.065 26.115C135.85 25.82 136.7 25.715 137.475 25.4C137.569 25.3535 137.646 25.2786 137.696 25.1858C137.745 25.093 137.763 24.9871 137.749 24.8831C137.735 24.7791 137.688 24.6822 137.615 24.6063C137.543 24.5303 137.448 24.4792 137.345 24.46C135.465 24.295 133.565 25.58 132.225 26.76C131.93 27 132.32 27.535 132.655 27.315Z" fill="var(--fill-0, #231F20)"/>
</g>
</svg>
