<svg width="202" height="202" viewBox="0 0 202 202" fill="none" xmlns="http://www.w3.org/2000/svg">
<path d="M51.0252 129.93C50.9848 129.394 50.9444 128.856 50.9073 128.317C48.7325 130.044 46.093 131.276 43.6118 132.431C40.7501 133.761 37.7302 135.417 34.6531 136.222C35.8857 137.186 37.2997 137.893 38.8109 138.299C40.6659 136.858 42.6624 135.589 44.5982 134.259C46.7259 132.818 48.8166 131.3 51.0252 129.93Z" fill="#88E0FF"/>
<path d="M50.8097 127.018L50.6784 125.19C47.6484 126.839 44.339 128.129 41.1642 129.445C38.2251 130.667 34.9998 132.249 31.8015 132.899C32.4144 134.011 33.2191 135.006 34.1784 135.838C36.8481 133.98 40.1273 132.876 43.0563 131.482C45.727 130.149 48.3161 128.658 50.8097 127.018Z" fill="#00AEEF"/>
<path d="M41.0498 128.294C44.2649 126.927 47.3724 125.291 50.5909 123.937C50.5673 123.624 50.5471 123.308 50.5269 122.994C49.811 123.202 49.0837 123.368 48.3487 123.493C46.2479 123.942 44.1572 124.433 42.0766 124.967C38.2386 125.947 34.4511 127.098 30.6299 128.119C30.6136 128.833 30.6779 129.546 30.8218 130.246C30.9711 130.932 31.197 131.598 31.4952 132.233C32.7947 131.583 34.2121 131.111 35.5352 130.573C37.37 129.825 39.2149 129.075 41.0498 128.294Z" fill="#88E0FF"/>
<path d="M44.5983 139.185C44.9586 139.027 45.3255 138.882 45.6959 138.727C47.6014 137.953 49.5574 137.097 51.5438 136.562C51.399 134.754 51.2542 132.953 51.1162 131.145C49.2544 132.472 47.3018 133.694 45.3929 134.953C43.5816 136.148 41.7939 137.414 39.9321 138.535C41.0836 138.722 42.2585 138.712 43.4065 138.505C43.6538 138.456 43.9104 138.497 44.1294 138.622C44.3483 138.747 44.5148 138.947 44.5983 139.185Z" fill="#00AEEF"/>
<path d="M46.0493 122.803C47.497 122.466 49.0322 122.254 50.4428 121.752C50.4058 121.207 50.3688 120.658 50.3351 120.113C50.3148 120.21 50.2629 120.299 50.1876 120.365C50.1122 120.43 50.0174 120.469 49.9176 120.476C44.0394 121.362 38.0771 122.55 32.1383 122.927C31.3376 124.271 30.8369 125.772 30.6704 127.327C33.7687 126.149 36.9278 125.138 40.1341 124.297C42.107 123.763 44.0787 123.265 46.0493 122.803Z" fill="#00AEEF"/>
<path d="M44.046 141.484C43.9705 141.56 43.8799 141.618 43.78 141.656C43.2454 142.268 42.7927 142.947 42.4333 143.676C44.0422 143.398 45.633 143.023 47.1972 142.555C48.7055 142.137 50.3551 141.585 51.9442 141.659C51.8364 140.313 51.7321 138.966 51.6277 137.599C50.2205 138.232 48.729 138.713 47.2746 139.218C46.5373 139.474 45.7226 139.68 44.9179 139.922C44.9405 140.049 44.9363 140.179 44.9055 140.304C44.8748 140.43 44.8183 140.547 44.7395 140.649C44.5331 140.947 44.3011 141.227 44.046 141.484Z" fill="#88E0FF"/>
<path d="M50.3147 119.796C50.2777 119.237 50.244 118.678 50.207 118.113C48.2308 118.449 45.8876 118.062 43.9416 118.019C42.6791 117.988 41.4133 117.951 40.1508 117.887C39.7299 117.864 39.2653 117.796 38.8041 117.739C38.7442 117.767 38.6823 117.791 38.6189 117.81C36.2431 118.501 34.1711 119.976 32.7407 121.995C38.2654 120.742 44.0157 120.153 49.6111 119.325C49.7656 119.305 49.922 119.342 50.0515 119.428C50.1809 119.515 50.2744 119.646 50.3147 119.796Z" fill="#88E0FF"/>
<path d="M49.6179 106.912C49.5876 106.239 49.5674 105.565 49.5405 104.892C45.9853 105.74 42.429 106.585 38.8715 107.427C35.2793 108.275 31.7544 109.151 28.0544 109.11C29.5616 110.923 31.4028 112.429 33.4781 113.548C35.5924 112.201 37.6629 110.975 40.0936 110.137C43.2044 109.043 46.4028 107.713 49.6179 106.912Z" fill="#00AEEF"/>
<path d="M49.3687 99.2056C49.3687 98.6265 49.3485 98.0441 49.3384 97.4616C45.4836 97.5929 41.5278 97.1721 37.6797 97.0812C34.0706 97.0004 30.3201 97.2125 26.7178 96.795C25.641 98.8201 25.2143 101.128 25.4957 103.404C29.199 101.859 33.7137 101.505 37.6561 100.865C41.5177 100.243 45.4499 99.5187 49.3687 99.2056Z" fill="#00AEEF"/>
<path d="M49.49 103.663C49.4563 102.609 49.4227 101.555 49.3957 100.498C45.4938 101.131 41.5379 101.508 37.6326 102.108C35.4443 102.444 33.2559 102.811 31.071 103.168C29.2698 103.464 27.4047 103.899 25.5698 103.895C25.6069 104.084 25.6439 104.272 25.691 104.458C26.0665 105.893 26.7033 107.246 27.5696 108.45C31.5288 108.343 35.4274 107.087 39.252 106.154C42.668 105.319 46.0807 104.489 49.49 103.663Z" fill="#88E0FF"/>
<path d="M38.4304 115.662L38.6122 115.719C38.8293 115.787 39.0201 115.921 39.1581 116.102C39.2962 116.282 39.3748 116.502 39.3832 116.729C40.4538 116.729 41.5379 116.867 42.2179 116.87C43.7127 116.87 45.2075 116.914 46.699 116.938C47.8167 116.958 49.022 116.854 50.1397 117.039C50.023 115.086 49.9108 113.133 49.803 111.181C48.4833 111.871 46.9885 112.342 45.6115 112.894C43.2885 113.824 40.8814 114.887 38.4304 115.662Z" fill="#00AEEF"/>
<path d="M42.1878 113.059C43.5345 112.517 44.9013 111.979 46.2547 111.42C47.2445 111.009 48.7966 110.652 49.746 109.885C49.719 109.309 49.6988 108.73 49.6719 108.154C46.8843 109.272 43.8711 110.036 41.0364 110.949C39.308 111.461 37.6354 112.146 36.0436 112.992C35.4545 113.329 34.8788 113.665 34.293 113.965C35.1439 114.398 36.0171 114.786 36.9089 115.127C38.6393 114.366 40.4472 113.75 42.1878 113.059Z" fill="#88E0FF"/>
<path d="M52.1834 144.716L52.0117 142.531C50.2072 142.992 48.3454 143.292 46.5375 143.75C45.1001 144.15 43.6158 144.357 42.1238 144.366C41.3158 146.413 41.3124 148.702 42.6625 150.554C43.9723 149.495 45.3674 148.545 46.8338 147.716C48.5609 146.662 50.3183 145.514 52.1834 144.716Z" fill="#00AEEF"/>
<path d="M49.0691 150.753C50.1767 149.719 51.2675 148.662 52.4122 147.665C52.3752 147.177 52.3381 146.686 52.2977 146.194L52.2674 145.78C50.7659 146.719 49.16 147.51 47.6349 148.413C46.1098 149.315 44.6756 150.322 43.1101 151.106C44.0441 152.093 45.218 152.82 46.5172 153.217C47.4228 152.453 48.2274 151.534 49.0691 150.753Z" fill="#88E0FF"/>
<path d="M61.2194 41.2888C62.9734 42.2382 64.9631 42.9923 66.5387 44.2144C66.5908 44.255 66.6314 44.3083 66.6566 44.3693C67.3456 43.4962 68.0582 42.6343 68.7944 41.7837C63.9581 39.2148 59.4643 36.0477 55.4186 32.357C55.2939 34.4135 55.5472 36.4754 56.166 38.4406C57.8336 39.4124 59.5181 40.3618 61.2194 41.2888Z" fill="#00AEEF"/>
<path d="M69.5755 40.8949C70.1916 40.2216 70.8245 39.5482 71.4676 38.8749C70.1209 38.2016 69.0065 36.9795 67.8888 35.993C66.5286 34.799 65.182 33.5848 63.8488 32.3503C61.6234 30.2798 59.0849 28.1487 57.1626 25.7112C56.2672 27.5044 55.6972 29.4422 55.4792 31.4346C57.4992 32.8755 59.5192 34.3669 61.5392 35.7809C64.1753 37.5922 66.8956 39.2015 69.5755 40.8949Z" fill="#88E0FF"/>
<path d="M68.9392 27.4484C70.1332 28.7794 71.3059 30.1261 72.4573 31.4884C73.4337 32.6466 74.6255 33.8081 75.3021 35.1918C76.1169 34.4758 76.9485 33.7811 77.7969 33.1078C75.4402 30.667 73.6626 27.7211 71.6493 25.0278C70.4533 23.4578 69.1495 21.9729 67.7473 20.5838C67.0062 19.8696 66.3488 19.0733 65.788 18.2103C64.3981 18.6743 63.0836 19.3389 61.886 20.1832C64.411 22.3917 66.697 24.9537 68.9392 27.4484Z" fill="#88E0FF"/>
<path d="M68.7406 35.1312C69.8516 36.0974 71.2487 36.9963 72.1072 38.2117C72.922 37.3902 73.7591 36.59 74.6188 35.8112C73.2957 34.7406 72.2924 33.1179 71.2016 31.8184C70.1108 30.5188 69.0234 29.2664 67.9056 28.014C65.7005 25.5429 63.3236 23.2233 61.1218 20.7555C60.8659 20.9609 60.6134 21.1763 60.3744 21.4019C59.2939 22.4209 58.3684 23.5926 57.6272 24.8797C60.0546 26.7886 62.1958 29.2092 64.4481 31.2763C65.8621 32.5848 67.2929 33.8698 68.7406 35.1312Z" fill="#00AEEF"/>
<path d="M62.1251 50.8367C62.7423 49.8334 63.3854 48.847 64.0542 47.8774C62.455 46.8674 60.9703 45.5476 59.4924 44.4164C58.819 43.9182 58.1457 43.4367 57.5431 42.8981C57.3602 43.1073 57.1153 43.2528 56.8441 43.3134C56.5728 43.3739 56.2893 43.3464 56.0348 43.2347C55.0407 42.7953 53.9729 42.5463 52.887 42.5008C54.4186 43.5563 55.8712 44.722 57.2333 45.9887C58.8729 47.47 60.8491 49.0018 62.1251 50.8367Z" fill="#00AEEF"/>
<path d="M101.97 22.7452C102.703 22.6341 103.437 22.5364 104.171 22.4455C103.525 19.7253 102.953 16.9882 102.35 14.2612C101.835 11.9415 101.101 9.54784 101.027 7.14404C99.237 5.98783 97.1672 5.33859 95.0376 5.26544C96.1654 7.86451 97.0913 10.5578 98.1248 13.1906C99.3604 16.3317 101.084 19.4997 101.97 22.7452Z" fill="#00AEEF"/>
<path d="M54.8768 48.4295C56.7318 49.8065 59.1726 51.3922 60.6843 53.3011C60.9974 52.7489 61.3239 52.2035 61.6505 51.6581C59.8325 50.3687 58.3343 48.4968 56.688 46.9886C55.0417 45.4803 53.3214 44.1168 51.7963 42.5311C50.6827 42.6152 49.5913 42.8861 48.5676 43.3324C49.3958 43.972 50.123 44.8305 50.9243 45.4702C52.1834 46.5071 53.5301 47.4431 54.8768 48.4295Z" fill="#88E0FF"/>
<path d="M95.8725 23.9673C93.1455 18.5151 91.047 12.7706 89.6173 6.84442C87.8129 8.07549 86.3974 9.79588 85.5369 11.8035C87.971 16.2206 90.6374 20.4256 93.3846 24.6642C94.206 24.4083 95.0376 24.1794 95.8725 23.9673Z" fill="#00AEEF"/>
<path d="M97.1047 23.6643C98.421 23.3613 99.7475 23.1122 101.081 22.89C99.4984 20.2169 98.522 16.9882 97.3976 14.103C96.2731 11.2178 95.0847 8.29212 94.2666 5.29242C93.1869 5.37588 92.1282 5.63517 91.1322 6.06002C90.8226 6.18422 90.5202 6.32585 90.2266 6.48422C91.3174 9.34925 92.3442 12.2379 93.4586 15.0928C94.5729 17.9477 95.8893 20.8094 97.1047 23.6643Z" fill="#88E0FF"/>
<path d="M88.9272 26.3206C89.9395 25.8717 90.9685 25.4688 92.0144 25.112L92.1929 25.0514C90.7519 22.826 89.3076 20.6006 87.8936 18.3584C86.8432 16.6751 85.7322 14.9177 85.032 13.0324C84.4253 14.7086 84.0218 16.4515 83.8301 18.2238C84.6212 19.3078 85.2878 20.4996 85.9915 21.6241C86.9813 23.1862 87.9599 24.7517 88.9272 26.3206Z" fill="#88E0FF"/>
<path d="M84.4125 28.6167C85.5348 27.9658 86.6884 27.3654 87.8735 26.8155C86.9241 25.2803 85.978 23.7451 85.0354 22.2099C84.6044 21.4995 84.1398 20.7925 83.6887 20.0721C83.6887 20.1125 83.6887 20.1529 83.6887 20.1933C83.6823 20.4244 83.6091 20.6487 83.4778 20.8391C83.3465 21.0294 83.1628 21.1775 82.949 21.2656C82.7351 21.3536 82.5004 21.3777 82.2731 21.335C82.0459 21.2922 81.8359 21.1845 81.6687 21.0248C81.5643 20.9373 81.4532 20.8599 81.332 20.7757C81.6418 21.449 81.9212 22.146 82.2107 22.826C83.0221 24.6474 84.0759 26.6303 84.4125 28.6167Z" fill="#00AEEF"/>
<path d="M78.7329 32.3772C79.5005 31.7948 80.2816 31.2292 81.0896 30.6939C79.6082 28.4719 78.3962 26.0176 76.9284 23.772C75.612 21.752 73.8479 19.6714 72.8884 17.4191C70.8564 17.215 68.8043 17.3746 66.8284 17.8905C68.6834 20.0216 70.7707 21.9305 72.481 24.1996C74.5582 26.9333 76.3695 29.8556 78.7329 32.3772Z" fill="#00AEEF"/>
<path d="M81.8976 30.1418C82.48 29.7613 83.0725 29.3944 83.6684 29.0375C83.6467 29.0187 83.6275 28.9972 83.6112 28.9735C82.6955 27.4855 82.214 25.6843 81.5474 24.0683C80.9515 22.6274 80.1705 21.1393 79.6991 19.6142C77.967 18.6048 76.065 17.9202 74.0869 17.5942C75.6086 19.3718 76.7802 21.6342 78.0495 23.5195C79.4029 25.5193 81.1939 27.7548 81.8976 30.1418Z" fill="#88E0FF"/>
<path d="M60.0613 54.3952C59.0816 53.6613 58.2332 52.6883 57.3175 51.8904C55.954 50.7087 54.5299 49.6045 53.0789 48.5238C51.446 47.3118 48.7022 45.7362 47.6922 43.7532C46.2061 44.5618 44.9759 45.7699 44.1404 47.2411C49.2947 49.9108 54.3717 52.7321 59.3947 55.6577C59.6136 55.2302 59.8358 54.8127 60.0613 54.3952Z" fill="#00AEEF"/>
<path d="M34.0403 88.1158C34.3264 88.072 34.616 88.0047 34.9089 87.9441C34.4526 87.1228 34.2401 86.1885 34.2961 85.2507C32.9254 85.0562 31.5454 84.9337 30.1619 84.8838C30.6339 86.1217 31.2094 87.3178 31.8822 88.4592C32.596 88.3245 33.3299 88.2302 34.0403 88.1158Z" fill="#88E0FF"/>
<path d="M34.4276 84.1667C34.8384 82.1837 36.2052 80.7529 37.8785 79.7395C36.6227 79.45 35.3939 78.9887 34.1751 78.5881C32.3538 77.9855 30.5829 77.3391 28.8188 76.6152C28.6918 79.0968 29.0344 81.58 29.8288 83.9344C31.3655 83.8822 32.904 83.9599 34.4276 84.1667Z" fill="#00AEEF"/>
<path d="M39.7536 78.8137C40.1273 78.6622 40.5044 78.5241 40.8781 78.4029C41.9825 78.0457 43.1066 77.7523 44.2448 77.5242C41.9925 76.6624 39.757 75.7601 37.5451 74.8006C35.0942 73.73 32.347 72.72 30.0644 71.2185C29.4303 72.7271 29.0284 74.323 28.8726 75.952C30.6535 76.3661 32.3975 76.8374 34.1515 77.3828C35.9931 77.9552 37.8245 78.6857 39.7536 78.8137Z" fill="#88E0FF"/>
<path d="M46.1401 76.9182C46.2648 76.9655 46.3725 77.0487 46.4499 77.1573C48.3253 76.9205 50.2175 76.845 52.1059 76.9317C46.0257 73.6223 40.1306 69.69 34.5218 65.65C34.4514 65.5987 34.3939 65.5319 34.3534 65.4547C32.6843 66.8534 31.3284 68.5878 30.374 70.5451C32.8788 71.3262 35.3028 72.6325 37.6999 73.6223C40.4942 74.7714 43.3076 75.8701 46.1401 76.9182Z" fill="#00AEEF"/>
<path d="M38.0434 95.8456C41.7467 95.9062 45.6184 95.7648 49.3251 96.1823C49.3251 95.7379 49.3251 95.2935 49.3251 94.8356C47.773 94.5495 46.2782 94.1152 44.6892 93.9401C43.1876 93.7751 41.6794 93.7044 40.1812 93.5226C37.9054 93.2124 35.6605 92.7067 33.4714 92.011C33.2445 92.2805 32.9275 92.4587 32.5793 92.5126C30.3135 92.7786 28.5393 94.0882 27.3037 95.8793C30.8151 95.5224 34.5151 95.7918 38.0434 95.8456Z" fill="#88E0FF"/>
<path d="M53.4895 71.4205C48.8098 68.3905 44.0292 65.5557 39.2956 62.6335C37.8146 63.143 36.4203 63.8765 35.1614 64.8083C40.9083 68.5689 46.7696 72.1207 52.5771 75.7803C52.833 74.3169 53.1371 72.8636 53.4895 71.4205Z" fill="#88E0FF"/>
<path d="M58.2668 57.9235C58.4587 57.5195 58.6607 57.1189 58.8593 56.7149C53.7858 53.8801 48.7593 50.9444 43.8373 47.8672C43.0476 49.6661 42.8324 51.6649 43.2212 53.5906C45.5778 53.8633 47.9345 54.6006 50.1599 55.2537C52.9051 56.0077 55.6108 56.8987 58.2668 57.9235Z" fill="#88E0FF"/>
<path d="M54.6039 67.3838C52.9576 67.0202 51.3281 65.9496 50.0084 65.0474C48.7484 64.2252 47.592 63.2542 46.5643 62.1554C46.4705 62.156 46.3768 62.147 46.2849 62.1285C44.2757 61.7265 42.2004 61.8003 40.2249 62.3439C44.8867 64.7015 49.416 67.3123 53.7925 70.1647C54.0518 69.2321 54.3211 68.3063 54.6039 67.3838Z" fill="#00AEEF"/>
<path d="M50.5471 59.59C52.584 60.1792 54.7891 60.5428 56.762 61.3272C57.0785 60.5562 57.4118 59.7886 57.772 59.0278C55.1359 58.1423 52.5267 57.1963 49.8637 56.3883C47.7663 55.7486 45.5577 55.2739 43.467 54.5535C43.8118 55.7511 44.3596 56.8808 45.0864 57.8932C46.9145 58.3544 48.746 59.0648 50.5471 59.59Z" fill="#00AEEF"/>
<path d="M128.007 23.1694C128.28 21.8227 128.92 20.4963 129.354 19.2169C129.788 17.9376 130.152 16.4967 130.701 15.2072C129.804 14.6446 128.786 14.3052 127.731 14.2174C127.657 15.5641 127.233 16.9646 126.997 18.2776C126.745 19.6883 126.63 21.2639 126.25 22.6913C126.849 22.8327 127.432 22.9943 128.007 23.1694Z" fill="#88E0FF"/>
<path d="M128.768 23.4152C129.391 23.6239 130.001 23.8562 130.603 24.0885C130.867 23.4097 131.197 22.758 131.586 22.1426C132.148 21.0922 132.721 19.7657 133.65 18.988C133.278 17.9058 132.67 16.9201 131.869 16.1028C131.771 16.0051 131.667 15.9142 131.566 15.8233C131.19 17.169 130.741 18.493 130.219 19.7893C129.812 20.9743 129.421 22.3075 128.768 23.4152Z" fill="#00AEEF"/>
<path d="M142.285 139.925C142.652 133.865 142.05 127.395 139.542 121.813C137.033 116.231 132.202 113.396 126.378 112.184C120.129 110.936 113.675 111.153 107.525 112.82C101.259 114.504 95.7412 117.436 92.415 123.21C86.2708 133.929 87.3111 146.888 86.7185 158.769C86.4324 164.519 85.8264 170.357 84.0252 175.851C83.1926 178.464 82.0391 180.963 80.5912 183.291C80.2238 183.901 79.8036 184.476 79.3354 185.012C80.1973 185.173 81.0603 185.331 81.9244 185.483C86.0616 186.227 90.239 186.726 94.4349 186.978H94.7716C94.8273 186.977 94.8827 186.984 94.9366 186.998C97.1182 187.109 99.3133 187.14 101.488 187.069C108.022 186.822 114.486 185.629 120.678 183.527C123.59 182.561 126.452 181.447 129.277 180.251C131.01 173.303 134.663 167.098 137.32 160.496C139.976 153.894 141.854 146.999 142.285 139.925Z" fill="white"/>
<path d="M121.974 21.9238C121.668 20.0485 122.223 17.8838 122.907 15.9378C122.311 15.8873 121.742 15.4598 121.826 14.7965C121.936 13.8593 121.834 12.9094 121.526 12.0171C121.219 11.1249 120.715 10.3131 120.052 9.64215C120.294 13.6115 119.793 17.7626 119.547 21.7251C120.352 21.7588 121.166 21.8295 121.974 21.9238Z" fill="#88E0FF"/>
<path d="M105.259 22.3176C105.932 22.2402 106.626 22.1729 107.309 22.1055C106.595 18.2541 105.626 14.4464 104.953 10.5915C104.941 10.5158 104.948 10.4385 104.973 10.366C104.074 9.43533 103.095 8.58588 102.047 7.82751C102.35 10.1303 103.013 12.4095 103.525 14.6585C104.114 17.2104 104.724 19.7556 105.259 22.3176Z" fill="#88E0FF"/>
<path d="M131.475 24.4555C132.398 24.8527 133.295 25.2859 134.168 25.755C134.44 23.8573 134.374 21.9266 133.973 20.0519C133.569 20.8834 132.963 21.6645 132.515 22.4489C132.179 23.0314 131.896 23.836 131.475 24.4555Z" fill="#88E0FF"/>
<path d="M50.6247 63.9936C51.9713 64.879 53.5739 65.4379 54.9508 66.2728C55.3818 64.9396 55.8531 63.621 56.3648 62.317C54.1967 62.051 51.9882 61.206 49.9278 60.5663C48.8201 60.2297 47.6553 59.893 46.5173 59.4991C46.7261 59.6876 46.9415 59.8661 47.1671 60.0344C47.4043 60.1978 47.5751 60.4408 47.6486 60.7194C47.7221 60.9979 47.6934 61.2936 47.5677 61.5528C48.5338 62.4305 49.5549 63.2457 50.6247 63.9936Z" fill="#88E0FF"/>
<path d="M35.6866 88.9507C35.1892 89.0454 34.6867 89.1117 34.1817 89.1493C33.5831 89.2258 32.9806 89.2674 32.3772 89.2739C32.7139 89.8227 33.1078 90.3512 33.5017 90.863C33.5844 90.9733 33.6408 91.1011 33.6666 91.2367C36.2657 91.5498 38.8109 92.2837 41.4369 92.4992C43.9316 92.7045 46.9111 92.6103 49.2846 93.6337C49.2846 92.9133 49.2846 92.1928 49.2846 91.4723C45.5106 91.7248 38.6291 91.873 35.6866 88.9507Z" fill="#00AEEF"/>
<path d="M66.0909 44.9854C64.1787 44.477 62.3573 43.2482 60.6302 42.2921C59.334 41.575 58.0581 40.8276 56.7888 40.0633C57.0316 40.6139 57.3059 41.1501 57.6103 41.6692C57.6412 41.721 57.6682 41.775 57.6911 41.8308C58.7415 42.5962 59.793 43.3593 60.8457 44.1202C62.1149 45.0426 63.5121 45.918 64.7207 46.9482C65.1651 46.3253 65.6162 45.7092 66.0674 45.0999L66.1549 44.9921C66.1335 44.9909 66.1121 44.9887 66.0909 44.9854Z" fill="#88E0FF"/>
<path d="M87.6006 29.5661C69.4644 38.8581 57.1828 58.58 54.4255 78.4433C54.3598 78.6832 54.2172 78.8948 54.0195 79.0456C53.8218 79.1965 53.58 79.2782 53.3313 79.2782C50.1792 79.0071 47.0045 79.1908 43.9047 79.8237C41.2113 80.3859 37.3801 81.3622 36.5485 84.4292C34.9695 90.2502 46.2108 89.6173 49.7526 89.3951C49.9194 89.2805 50.1139 89.2128 50.3158 89.1989C50.5177 89.1851 50.7196 89.2257 50.9005 89.3165C51.0814 89.4073 51.2346 89.5449 51.3442 89.7151C51.4537 89.8852 51.5156 90.0817 51.5234 90.2839C51.7557 99.5591 52.0049 108.817 52.5334 118.082C53.4997 134.515 54.8901 150.924 56.1358 167.337C56.7519 175.353 57.1458 183.416 57.9874 191.408C58.1423 192.907 58.3847 195.004 59.8425 195.839C61.3002 196.674 62.9331 195.755 63.9498 194.674C66.495 191.981 65.3571 187.665 66.1314 184.338C64.9881 184.018 63.864 183.632 62.7647 183.184C62.0039 182.867 61.987 181.484 62.9802 181.591C66.1348 181.928 69.2759 182.867 72.3665 183.564C73.6189 183.847 74.8735 184.117 76.1304 184.375C76.2311 184.282 76.3553 184.217 76.4898 184.188C76.6243 184.159 76.7642 184.167 76.8946 184.211C78.0056 184.567 79.6688 180.676 80.0458 179.915C80.8267 178.328 81.4807 176.682 82.0019 174.993C83.0175 171.664 83.7032 168.244 84.0488 164.781C84.7996 157.87 84.5908 150.911 85.0083 143.982C85.7018 132.488 88.375 118.978 99.6398 113.275C105.171 110.47 111.504 109.093 117.685 108.959C123.318 108.838 129.415 109.612 134.391 112.423C144.827 118.325 145.787 133.455 144.359 144.016C143.501 150.392 141.622 156.563 139.117 162.479C136.761 168.013 133.774 173.272 132.014 179.029C133.95 178.074 135.936 177.224 137.963 176.481C139.242 176.043 139.962 177.955 138.858 178.605C137.534 179.368 136.165 180.049 134.758 180.645C135.431 184.604 135.946 188.594 137.208 192.429C137.845 194.371 138.949 196.344 141.248 196.374C143.548 196.405 145.389 194.741 146.548 192.893C148.568 189.688 149.655 185.763 150.557 182.12C151.454 178.384 152.075 174.587 152.416 170.761C153.15 163.132 153.133 155.463 153.48 147.813C154.234 131.155 156.745 114.611 156.802 97.9161C156.793 97.7137 156.839 97.5127 156.936 97.3346C157.033 97.1566 157.176 97.0084 157.351 96.9061C157.477 96.7109 157.665 96.5632 157.885 96.4864C158.104 96.4096 158.343 96.408 158.563 96.4819C162.516 97.6424 166.678 97.9002 170.744 97.2361C173.73 96.721 178.575 95.1151 177.935 91.1761C177.635 89.321 175.787 88.5231 174.188 87.9945C172.336 87.3852 170.437 86.8869 168.549 86.4021C164.697 85.4157 160.728 84.8669 156.907 83.7929C156.757 83.7438 156.623 83.6569 156.517 83.5408C156.411 83.4247 156.336 83.2831 156.301 83.1299C156.265 82.9766 156.27 82.8168 156.314 82.6658C156.358 82.5148 156.441 82.3778 156.553 82.2678C156.462 82.0863 156.418 81.8849 156.425 81.682C156.735 68.4679 154.143 54.5164 147.527 42.9452C142.117 33.4882 133.34 25.92 122.277 24.4049C116.466 23.6104 110.43 24.0683 104.633 24.7854C98.7847 25.5059 92.893 26.8525 87.6006 29.5661ZM67.6228 53.6209C66.4916 56.6004 64.7511 59.3173 63.4212 62.2126C61.9649 65.4127 60.8009 68.7379 59.9435 72.1477C59.8963 72.3429 59.5765 72.3025 59.6068 72.1005C59.9132 68.6833 60.9131 65.4716 62.2496 62.3372C63.5862 59.2028 65.0541 56.0112 67.1515 53.3482C67.3333 53.1092 67.7238 53.3549 67.6228 53.6209ZM81.406 161.6C81.0073 163.789 80.4892 165.955 79.8539 168.088C79.5745 168.997 77.339 176.131 75.8476 175.003C75.6826 174.878 75.8476 174.602 76.0126 174.72C76.3492 174.942 79.3186 165.862 79.5139 165.037C80.2849 161.799 80.3421 158.163 81.507 155.059C81.5306 154.974 81.5838 154.901 81.6568 154.853C81.7299 154.805 81.8179 154.785 81.9047 154.796C81.9915 154.808 82.0713 154.85 82.1293 154.915C82.1874 154.981 82.2198 155.065 82.2207 155.153C82.3621 157.267 81.81 159.516 81.406 161.6ZM82.7829 147.716C82.7425 148.675 82.7829 149.655 82.4968 150.584C82.4708 150.652 82.4247 150.711 82.3646 150.753C82.3044 150.794 82.2331 150.816 82.1601 150.816C82.0871 150.816 82.0158 150.794 81.9556 150.753C81.8955 150.711 81.8494 150.652 81.8234 150.584C81.6882 149.634 81.6656 148.671 81.7561 147.716C81.7898 146.76 81.7763 145.77 82.0928 144.861C82.112 144.798 82.1508 144.743 82.2035 144.704C82.2563 144.665 82.3201 144.644 82.3857 144.644C82.4512 144.644 82.5151 144.665 82.5678 144.704C82.6205 144.743 82.6593 144.798 82.6786 144.861C82.9109 145.777 82.82 146.75 82.7829 147.706V147.716ZM83.5101 52.7456C81.5777 53.5502 79.4701 52.5436 79.2816 50.3687C79.1705 49.0692 79.8741 48.0827 80.8673 47.4632C81.2575 47.1564 81.7223 46.9589 82.214 46.8909C82.3419 46.8573 82.4698 46.827 82.6011 46.8034C82.7872 46.7675 82.98 46.7936 83.1499 46.8775C83.6385 46.9115 84.1124 47.0592 84.5338 47.3087C84.9553 47.5583 85.3126 47.9029 85.5773 48.315C86.5637 50.059 85.1531 52.0554 83.5101 52.7355V52.7456ZM152.692 66.5994C153.486 67.808 154.217 69.8549 153.729 71.2858C153.704 71.3497 153.661 71.4047 153.605 71.4435C153.549 71.4823 153.482 71.503 153.414 71.503C153.346 71.503 153.279 71.4823 153.223 71.4435C153.166 71.4047 153.123 71.3497 153.099 71.2858C152.813 70.5923 152.823 69.791 152.675 69.0537C152.527 68.3164 152.318 67.5724 152.156 66.825C152.13 66.7549 152.132 66.6774 152.161 66.6084C152.19 66.5395 152.244 66.4842 152.313 66.4541C152.381 66.4239 152.459 66.4211 152.529 66.4463C152.6 66.4714 152.658 66.5226 152.692 66.5893V66.5994ZM148.783 50.6481C149.722 52.5705 150.315 54.6275 150.891 56.6846C151.443 58.654 152.278 60.8963 152.194 62.9567C152.194 63.2933 151.668 63.4987 151.497 63.1452C150.635 61.3676 150.409 59.2095 149.904 57.3007C149.335 55.1662 148.618 53.0688 148.17 50.904C148.096 50.5404 148.608 50.2778 148.783 50.638V50.6481ZM146.09 138.956C146.108 138.893 146.146 138.839 146.198 138.799C146.249 138.76 146.313 138.739 146.378 138.739C146.443 138.739 146.506 138.76 146.558 138.799C146.61 138.839 146.647 138.893 146.665 138.956C147.258 140.528 147.056 143.07 146.514 144.645C146.45 144.837 146.134 144.878 146.086 144.645C145.945 143.708 145.894 142.758 145.932 141.811C145.938 140.858 145.841 139.858 146.113 138.946L146.09 138.956ZM146.272 149.302C146.827 152.372 145.373 156.109 144.349 158.974C143.137 162.27 141.642 165.456 139.882 168.495C139.771 168.694 139.414 168.556 139.505 168.337C140.777 165.243 142.097 162.152 143.184 158.987C143.71 157.456 144.194 155.907 144.555 154.331C144.942 152.675 145.026 150.881 145.652 149.302C145.777 149.029 146.218 148.945 146.282 149.291L146.272 149.302ZM139.848 45.083C140.386 44.9906 140.94 45.0621 141.437 45.2884C141.908 45.5116 142.314 45.8508 142.617 46.274C142.921 46.6972 143.112 47.1906 143.172 47.7079C143.233 48.2252 143.161 48.7494 142.964 49.2313C142.766 49.7132 142.449 50.137 142.043 50.463C140.387 51.8366 137.751 51.0555 136.993 49.0557C136.31 47.1704 137.821 44.8911 139.848 45.083ZM112.272 56.5297C115.015 52.2069 121.362 52.3382 125.927 52.8937C130.64 53.466 135.613 54.7757 139.057 58.2197C142.625 61.7749 143.659 67.1582 143.858 72.0231C144.059 77.2615 143.053 82.4761 140.919 87.264C138.963 91.6609 135.949 95.8355 131.388 97.7478C127.034 99.5725 121.981 99.1786 117.655 97.4785C110.019 94.4821 104.744 87.8531 103.902 80.0189C103.836 79.8962 103.795 79.761 103.784 79.622C103.772 79.4829 103.789 79.3429 103.835 79.2109C103.741 77.8638 103.778 76.5108 103.946 75.1709C104.647 70.057 106.364 65.1349 108.996 60.6943C109.872 59.144 110.976 57.7344 112.272 56.5129V56.5297Z" fill="white"/>
<path d="M112.689 21.7117C113.477 21.6735 114.262 21.6466 115.046 21.6309C114.521 19.3516 114.662 16.7862 114.652 14.4565C114.603 12.3751 114.7 10.2928 114.941 8.22479C114.185 8.45608 113.481 8.83606 112.873 9.34247C112.265 9.84888 111.764 10.4715 111.4 11.174C111.592 12.5745 111.551 14.0626 111.699 15.4126C111.938 17.5269 112.278 19.6277 112.689 21.7117Z" fill="#88E0FF"/>
<path d="M109.831 21.8833C110.41 21.8396 110.989 21.8025 111.571 21.7655C111.208 19.8835 110.898 17.9915 110.696 16.0859C110.649 15.6584 110.588 15.2106 110.531 14.7393C110.416 14.9013 110.264 15.0332 110.087 15.1236C109.91 15.2139 109.714 15.2601 109.516 15.2581C109.317 15.2561 109.122 15.206 108.947 15.1121C108.772 15.0183 108.622 14.8834 108.511 14.7191C107.808 13.6643 107.042 12.6525 106.218 11.6891C107.292 14.9985 107.902 18.5571 108.43 21.981C108.898 21.9675 109.366 21.9237 109.831 21.8833Z" fill="#00AEEF"/>
<path d="M83.3588 49.2409C82.9043 49.0086 82.305 49.15 81.7461 49.1601C81.5271 49.4041 81.4071 49.721 81.4095 50.0489C81.4297 50.9107 82.1737 50.9208 82.7999 50.5808C83.1972 50.3687 84.0388 49.5876 83.3588 49.2409Z" fill="white"/>
<path d="M140.39 48.9008C140.528 48.8503 140.65 48.7655 140.746 48.6544C140.842 48.5433 140.907 48.4097 140.937 48.2661C140.967 48.1225 140.959 47.9737 140.915 47.8338C140.871 47.6939 140.793 47.5676 140.686 47.4666C140.077 46.9751 139.599 47.6619 139.558 48.2477C139.547 48.4162 139.5 48.5803 139.42 48.7291C139.556 48.834 139.715 48.9044 139.884 48.9343C140.053 48.9642 140.227 48.9527 140.39 48.9008Z" fill="white"/>
<path d="M115.756 14.4565C115.78 16.8132 116.163 19.2809 115.955 21.6208C116.783 21.6208 117.61 21.6331 118.436 21.6578C118.584 17.4764 118.47 13.0593 119.22 8.95199C118.536 8.48432 117.75 8.18551 116.928 8.08002C116.537 8.03461 116.143 8.03461 115.753 8.08002C115.84 10.1943 115.736 12.3288 115.756 14.4565Z" fill="#00AEEF"/>
<path d="M121.537 63.2024C122.464 63.3837 123.402 63.5062 124.345 63.5694C124.809 60.802 124.826 57.9302 125.291 55.1696C123.999 55.0119 122.7 54.9343 121.399 54.9373C121.062 57.0111 120.56 59.0379 120.456 61.1589C120.402 62.4685 120.19 62.9365 121.537 63.2024Z" fill="white"/>
<path d="M121.038 96.1082C125.119 97.0711 129.586 96.6637 133.017 94.0882C133.642 93.622 134.226 93.1039 134.764 92.5396C134.488 91.9908 134.28 91.3949 133.966 90.8562C133.45 89.9455 132.832 89.0962 132.125 88.3245C130.611 86.6948 128.797 85.3723 126.782 84.4293C122.742 82.5204 118.453 82.3453 114.123 82.5069C115.472 83.6195 116.69 84.8823 117.753 86.2708C118.763 87.5704 119.948 89.0046 120.291 90.6475C120.338 90.835 120.323 91.0327 120.247 91.2108C120.172 91.3889 120.041 91.5377 119.874 91.6349C119.707 91.7321 119.513 91.7725 119.321 91.7498C119.129 91.7272 118.95 91.6428 118.81 91.5094C117.716 90.4994 117.062 89.0786 116.167 87.9003C115.252 86.6941 114.22 85.5811 113.086 84.5774C110.999 82.7358 108.74 81.7393 106.229 80.9414C107.488 88.3851 113.679 94.371 121.038 96.1082Z" fill="white"/>
<path d="M128.815 63.6536C129.96 63.6266 131.808 63.9902 132.371 62.6638C132.734 61.812 132.573 60.3778 132.63 59.4587C132.642 58.6163 132.714 57.7759 132.845 56.9438C131.049 56.222 129.175 55.7146 127.26 55.4322C127.533 58.1255 127.061 61.0074 126.587 63.6637C127.334 63.6749 128.077 63.6715 128.815 63.6536Z" fill="white"/>
<path d="M122.695 22.0146C123.56 22.1325 124.422 22.284 125.277 22.4624C125.334 21.0753 125.681 19.6277 125.907 18.318C126.132 17.0084 126.263 15.5372 126.701 14.2343C125.666 14.3384 124.695 14.7864 123.944 15.5069C123.762 16.3553 123.587 17.1902 123.429 18.0521C123.186 19.3213 123.2 20.7016 122.755 21.9103C122.741 21.9479 122.72 21.9831 122.695 22.0146Z" fill="#00AEEF"/>
<path d="M49.1029 152.062C48.5744 152.527 48.0391 153.035 47.4634 153.476C49.2208 153.89 51.1061 153.964 52.9207 154.18L52.5201 149.009C51.4057 150.052 50.2476 151.056 49.1029 152.062Z" fill="#00AEEF"/>
<path d="M23.3478 103.794C24.2635 110.124 29.6738 114.467 35.35 116.823C30.5356 119.517 27.573 125.267 28.7513 130.805C30.0172 136.751 35.8213 140.784 41.7062 140.7C39.3496 143.703 38.4406 148.049 40.6054 151.392C43.1674 155.341 48.6449 156.479 53.0856 156.183C53.5345 162.019 53.9834 167.845 54.4322 173.663L55.5028 187.399C55.7385 190.429 55.4524 194.634 57.7854 196.99C60.0579 199.283 63.5088 198.337 65.5019 196.213C68.2861 193.253 68.0033 188.587 67.8585 184.79C69.5082 185.207 71.1781 185.561 72.8008 185.941C75.9587 186.675 79.1268 187.352 82.3217 187.9C88.8632 189.022 95.509 189.708 102.151 189.452C108.565 189.178 114.91 188.017 121.005 186.002C124.075 184.992 127.085 183.84 130.064 182.595C130.963 182.214 131.882 181.844 132.802 181.467C133.099 185.219 133.807 188.928 134.912 192.526C135.778 195.435 137.41 198.3 140.747 198.586C148.78 199.3 151.604 187.964 153.008 182.09C154.988 173.831 155.345 165.283 155.614 156.84C155.904 147.706 156.466 138.623 157.297 129.519C158.22 119.385 159.189 109.245 159.26 99.0642C163.616 100.193 168.178 100.268 172.569 99.283C176.232 98.4414 180.144 96.1621 180.366 91.9774C180.601 87.567 176.292 86.1126 172.814 85.143C168.323 83.8906 163.546 82.5473 158.843 82.1467C158.909 81.9946 158.944 81.831 158.947 81.6653C159.398 62.6166 153.449 37.8986 136.347 27.0108C137.04 22.4489 136.73 16.9781 132.869 13.8336C130.435 11.854 126.896 11.2009 124.116 12.5307C123.496 9.02942 120.513 6.00951 116.857 5.73008C113.201 5.45065 110.016 7.96218 108.834 11.2278C104.458 5.74355 97.8353 1.00665 90.6138 3.78078C84.8501 5.99605 82.1971 12.1436 81.5238 17.978C74.7231 13.6417 65.3032 13.9818 59.1153 19.4223C53.301 24.5363 51.5807 33.3536 54.4457 40.4168C49.7088 39.6391 44.5982 41.7871 42.1776 46.1402C39.757 50.4933 40.6087 55.8698 43.5781 59.6405C37.306 59.7987 31.3335 63.6805 28.5156 69.3836C25.0816 76.3021 26.5428 84.5034 30.7174 90.7317C25.489 92.442 22.5566 98.3504 23.3478 103.794ZM26.7145 96.7951C30.3168 97.2125 34.0673 97.0004 37.6764 97.0812C41.5245 97.1721 45.4803 97.5929 49.3351 97.4616C49.3351 98.0441 49.3351 98.6265 49.3654 99.2056C45.4534 99.5187 41.5143 100.243 37.6528 100.865C33.7104 101.505 29.2058 101.859 25.4924 103.404C25.212 101.127 25.6399 98.8197 26.7178 96.7951H26.7145ZM25.7045 104.458C25.6573 104.272 25.6203 104.084 25.5833 103.895C27.4181 103.895 29.2866 103.464 31.0844 103.168C33.2728 102.811 35.4611 102.444 37.646 102.108C41.5514 101.498 45.5072 101.131 49.4092 100.498C49.4361 101.556 49.4698 102.609 49.5034 103.663C46.0941 104.491 42.6815 105.322 39.2654 106.154C35.4409 107.087 31.5423 108.343 27.5831 108.45C26.7132 107.247 26.0729 105.893 25.6944 104.458H25.7045ZM28.0611 109.093C31.7645 109.147 35.286 108.272 38.8783 107.41C42.4705 106.548 45.992 105.727 49.5472 104.875C49.5742 105.548 49.5943 106.222 49.6246 106.895C46.4095 107.696 43.228 109.026 40.1003 110.103C37.6696 110.942 35.5991 112.177 33.4848 113.514C31.4074 112.397 29.5638 110.892 28.0544 109.08L28.0611 109.093ZM34.2996 113.965C34.8854 113.655 35.4611 113.322 36.0503 112.992C37.642 112.146 39.3146 111.461 41.043 110.949C43.8778 110.036 46.8909 109.265 49.6785 108.154C49.7055 108.73 49.7256 109.309 49.7526 109.885C48.8032 110.652 47.2512 111.009 46.2614 111.42C44.9147 111.979 43.568 112.517 42.1944 113.059C40.4538 113.75 38.646 114.366 36.9155 115.127C36.0214 114.786 35.146 114.398 34.2929 113.965H34.2996ZM49.8267 111.181C49.9277 113.133 50.0399 115.086 50.1633 117.039C49.0456 116.854 47.8403 116.958 46.7226 116.938C45.2311 116.914 43.7364 116.881 42.2416 116.87C41.5682 116.87 40.4774 116.732 39.4068 116.729C39.3984 116.502 39.3198 116.283 39.1818 116.102C39.0437 115.921 38.853 115.787 38.6359 115.719L38.4541 115.662C40.905 114.888 43.3122 113.824 45.6419 112.894C46.9953 112.342 48.48 111.871 49.8267 111.181ZM38.6123 117.833C38.6757 117.814 38.7376 117.791 38.7974 117.763C39.2654 117.82 39.73 117.887 40.1441 117.911C41.4066 117.975 42.6725 118.012 43.935 118.042C45.8809 118.086 48.2241 118.476 50.2003 118.136C50.2374 118.692 50.271 119.251 50.3081 119.82C50.2656 119.67 50.1702 119.54 50.0396 119.456C49.9089 119.371 49.7519 119.336 49.5977 119.358C44.0023 120.187 38.252 120.776 32.7273 122.028C34.1578 120.004 36.2325 118.525 38.6123 117.833ZM32.1382 122.927C38.077 122.55 44.0394 121.362 49.9176 120.476C50.0173 120.469 50.1121 120.43 50.1875 120.365C50.2628 120.299 50.3147 120.21 50.335 120.113C50.3687 120.658 50.4057 121.207 50.4428 121.752C49.0321 122.254 47.4969 122.466 46.0492 122.803C44.0696 123.267 42.0979 123.764 40.134 124.294C36.9277 125.134 33.7686 126.146 30.6703 127.324C30.8373 125.77 31.338 124.27 32.1382 122.927ZM30.8151 130.246C30.6712 129.547 30.6068 128.833 30.6232 128.119C34.4511 127.109 38.2386 125.947 42.0698 124.967C44.1504 124.44 46.2411 123.948 48.3419 123.493C49.0769 123.368 49.8042 123.202 50.5202 122.994C50.5404 123.308 50.5606 123.624 50.5842 123.937C47.3656 125.284 44.2582 126.927 41.043 128.294C39.2082 129.075 37.3599 129.825 35.5082 130.573C34.1818 131.111 32.7644 131.583 31.4682 132.233C31.1769 131.597 30.9579 130.931 30.8151 130.246ZM31.8015 132.899C34.9998 132.249 38.2251 130.667 41.1642 129.445C44.339 128.129 47.6451 126.839 50.6784 125.19L50.8097 127.018C48.3194 128.658 45.7337 130.149 43.0664 131.482C40.1374 132.876 36.8583 133.98 34.1885 135.838C33.2256 135.007 32.4174 134.012 31.8015 132.899ZM34.6531 136.222C37.7302 135.417 40.7501 133.761 43.6118 132.431C46.093 131.276 48.7325 130.044 50.9074 128.317C50.9444 128.856 50.9848 129.394 51.0252 129.93C48.8267 131.276 46.726 132.818 44.5982 134.269C42.6624 135.589 40.6659 136.858 38.8109 138.309C37.2989 137.9 35.8849 137.19 34.6531 136.222ZM39.9354 138.535C41.7972 137.414 43.5848 136.148 45.3961 134.953C47.3016 133.694 49.2543 132.472 51.1194 131.145C51.2575 132.953 51.4023 134.754 51.547 136.562C49.5607 137.097 47.6047 137.953 45.6991 138.727C45.3288 138.882 44.9618 139.027 44.6016 139.185C44.5169 138.949 44.3504 138.751 44.1323 138.628C43.9142 138.504 43.659 138.463 43.4131 138.511C42.2636 138.717 41.0876 138.724 39.9354 138.535ZM44.9214 139.915C45.7193 139.673 46.534 139.468 47.2781 139.212C48.7325 138.707 50.2239 138.225 51.6312 137.592C51.7355 138.939 51.8399 140.302 51.9477 141.653C50.3586 141.578 48.7089 142.131 47.2006 142.548C45.631 143.017 44.0345 143.391 42.42 143.669C42.7793 142.94 43.232 142.261 43.7666 141.649C43.8665 141.611 43.9572 141.553 44.0326 141.477C44.2892 141.218 44.5224 140.936 44.7295 140.636C44.8097 140.536 44.8682 140.42 44.9012 140.296C44.9342 140.172 44.9411 140.042 44.9214 139.915ZM42.1237 144.366C43.6155 144.359 45.0997 144.154 46.5374 143.757C48.3453 143.299 50.2071 142.999 52.0116 142.538L52.1833 144.723C50.3182 145.521 48.5608 146.669 46.8337 147.723C45.3674 148.552 43.9722 149.501 42.6624 150.561C41.3124 148.702 41.3157 146.413 42.1237 144.366ZM43.1169 151.099C44.6824 150.325 46.1469 149.305 47.6417 148.406C49.1365 147.507 50.7727 146.723 52.2742 145.773L52.3045 146.187C52.3449 146.679 52.3819 147.17 52.419 147.659C51.2743 148.669 50.1835 149.712 49.0759 150.746C48.2342 151.527 47.4296 152.446 46.5307 153.21C45.2299 152.816 44.0536 152.091 43.1169 151.106V151.099ZM47.4632 153.456C48.0389 153.015 48.5743 152.507 49.1028 152.042C50.2475 151.032 51.4056 150.022 52.5166 148.988L52.9206 154.16C51.106 153.964 49.2206 153.89 47.47 153.476L47.4632 153.456ZM129.253 180.238C126.428 181.433 123.567 182.547 120.655 183.514C114.463 185.615 107.999 186.808 101.465 187.055C99.2796 187.126 97.0879 187.096 94.9131 186.985C94.8592 186.971 94.8037 186.964 94.7481 186.964H94.4114C90.2155 186.712 86.0381 186.213 81.9009 185.47C81.0345 185.317 80.1715 185.16 79.3119 184.998C79.7801 184.463 80.2003 183.887 80.5677 183.278C82.0156 180.949 83.1691 178.45 84.0017 175.838C85.8163 170.343 86.4223 164.505 86.695 158.755C87.2876 146.874 86.2472 133.916 92.3914 123.196C95.7042 117.423 101.236 114.487 107.501 112.807C113.652 111.14 120.105 110.922 126.354 112.171C132.179 113.373 137.013 116.211 139.518 121.799C142.023 127.388 142.629 133.865 142.262 139.912C141.831 146.982 139.905 153.934 137.272 160.489C134.64 167.044 130.987 173.309 129.253 180.258V180.238ZM134.162 25.755C133.293 25.2859 132.395 24.8527 131.468 24.4555C131.889 23.836 132.172 23.0314 132.502 22.4355C132.943 21.651 133.556 20.87 133.96 20.0384C134.364 21.9171 134.433 23.8525 134.162 25.755ZM131.869 16.1129C132.672 16.9295 133.283 17.9153 133.657 18.9981C132.727 19.7758 132.155 21.1023 131.593 22.1527C131.203 22.7682 130.874 23.4198 130.61 24.0986C130.007 23.8562 129.398 23.6239 128.775 23.4253C129.428 22.3176 129.819 20.9844 130.239 19.8095C130.761 18.5132 131.21 17.1892 131.586 15.8435C131.667 15.9243 131.771 16.0152 131.869 16.1129ZM127.748 14.2174C128.803 14.3052 129.821 14.6447 130.718 15.2072C130.165 16.4967 129.829 17.9006 129.371 19.2169C128.913 20.5333 128.283 21.8194 128.024 23.1694C127.449 22.9943 126.866 22.8327 126.284 22.6913C126.664 21.2639 126.779 19.6883 127.031 18.2776C127.26 16.9646 127.674 15.5742 127.748 14.2174ZM123.944 15.5069C124.695 14.7865 125.666 14.3384 126.701 14.2343C126.263 15.5372 126.136 17.005 125.907 18.318C125.678 19.631 125.334 21.0753 125.277 22.4624C124.422 22.284 123.56 22.1257 122.695 22.0146C122.72 21.9831 122.741 21.9479 122.755 21.9103C123.2 20.7016 123.186 19.3213 123.429 18.0521C123.587 17.2037 123.762 16.3553 123.944 15.5069ZM120.045 9.62868C120.709 10.2997 121.213 11.1114 121.52 12.0036C121.827 12.8959 121.929 13.8458 121.819 14.783C121.735 15.4564 122.304 15.8738 122.9 15.9243C122.227 17.8635 121.661 20.035 121.968 21.9103C121.16 21.816 120.345 21.7453 119.533 21.6982C119.786 17.7491 120.288 13.598 120.045 9.62868ZM116.928 8.08001C117.751 8.18753 118.536 8.48867 119.22 8.95871C118.47 13.066 118.584 17.4831 118.436 21.6645C117.61 21.6331 116.783 21.6207 115.955 21.6275C116.163 19.2876 115.78 16.8165 115.756 14.4632C115.736 12.3355 115.84 10.201 115.756 8.06655C116.146 8.02587 116.539 8.03039 116.928 8.08001ZM122.314 24.4151C133.367 25.9301 142.144 33.5051 147.564 42.9553C154.18 54.5265 156.772 68.478 156.462 81.6922C156.455 81.8951 156.499 82.0965 156.59 82.278C156.478 82.3879 156.395 82.5249 156.351 82.6759C156.307 82.8269 156.302 82.9867 156.338 83.14C156.374 83.2933 156.448 83.4348 156.554 83.5509C156.66 83.6671 156.794 83.7539 156.944 83.8031C160.765 84.877 164.734 85.4258 168.586 86.4123C170.475 86.897 172.373 87.3953 174.225 88.0047C175.824 88.5332 177.672 89.3312 177.972 91.1862C178.612 95.1286 173.767 96.7345 170.781 97.2462C166.705 97.9138 162.532 97.6549 158.57 96.4887C158.35 96.4148 158.111 96.4164 157.891 96.4932C157.672 96.57 157.484 96.7176 157.358 96.9129C157.183 97.0152 157.04 97.1634 156.943 97.3414C156.846 97.5194 156.8 97.7205 156.809 97.9229C156.752 114.618 154.24 131.162 153.486 147.82C153.15 155.469 153.15 163.139 152.422 170.767C152.082 174.594 151.46 178.391 150.564 182.127C149.662 185.769 148.564 189.695 146.554 192.9C145.396 194.748 143.575 196.411 141.255 196.381C138.936 196.351 137.841 194.378 137.215 192.435C135.953 188.604 135.428 184.615 134.764 180.652C136.171 180.056 137.541 179.375 138.865 178.612C139.969 177.962 139.249 176.05 137.969 176.487C135.942 177.23 133.957 178.081 132.02 179.036C133.781 173.279 136.781 168.02 139.124 162.485C141.629 156.57 143.501 150.399 144.366 144.023C145.793 133.461 144.844 118.332 134.397 112.43C129.421 109.619 123.324 108.844 117.692 108.966C111.511 109.1 105.178 110.477 99.6466 113.282C88.3986 118.985 85.7086 132.495 85.0151 143.989C84.5976 150.918 84.8063 157.876 84.0555 164.788C83.7099 168.251 83.0243 171.671 82.0086 174.999C81.4875 176.689 80.8334 178.335 80.0526 179.921C79.6755 180.682 78.0124 184.574 76.9014 184.217C76.7709 184.173 76.6311 184.166 76.4966 184.195C76.3621 184.224 76.2379 184.288 76.1371 184.382C74.8803 184.124 73.6256 183.854 72.3732 183.571C69.2826 182.874 66.1415 181.935 62.9869 181.598C61.9769 181.49 62.0106 182.874 62.7715 183.19C63.8708 183.639 64.9948 184.025 66.1381 184.345C65.3638 187.671 66.5018 191.971 63.9566 194.681C62.9466 195.762 61.2902 196.671 59.8492 195.846C58.4083 195.021 58.1659 192.913 57.9942 191.415C57.1592 183.423 56.7586 175.36 56.1425 167.344C54.8834 150.931 53.5064 134.522 52.5402 118.089C51.9981 108.824 51.749 99.5726 51.5302 90.2907C51.5224 90.0884 51.4605 89.892 51.3509 89.7218C51.2413 89.5517 51.0881 89.414 50.9072 89.3232C50.7264 89.2325 50.5245 89.1919 50.3225 89.2057C50.1206 89.2195 49.9261 89.2873 49.7593 89.4018C46.2176 89.624 34.9763 90.257 36.5553 84.436C37.3868 81.369 41.2012 80.396 43.9114 79.8304C47.0112 79.1976 50.186 79.0139 53.3381 79.285C53.5868 79.285 53.8285 79.2033 54.0262 79.0524C54.2239 78.9016 54.3666 78.6899 54.4322 78.4501C57.1895 58.5868 69.4711 38.8648 87.6074 29.5728C92.8998 26.8593 98.7915 25.5126 104.666 24.7955C110.457 24.0818 116.487 23.6138 122.304 24.4083L122.314 24.4151ZM49.288 93.6169C46.9145 92.6069 43.935 92.6877 41.4403 92.4824C38.8143 92.2669 36.2691 91.533 33.67 91.2199C33.6408 91.09 33.5833 90.9681 33.5017 90.863C33.1078 90.3513 32.7307 89.8227 32.3772 89.2739C32.9806 89.2674 33.5832 89.2258 34.1817 89.1493C34.6867 89.1118 35.1892 89.0454 35.6867 88.9507C38.6291 91.873 45.5106 91.7249 49.2813 91.4555C49.279 92.176 49.2812 92.8965 49.288 93.6169ZM47.167 60.0344C46.9414 59.8661 46.726 59.6977 46.5172 59.4991C47.6551 59.8896 48.82 60.2229 49.9277 60.5663C51.9881 61.206 54.1966 62.051 56.3647 62.317C55.853 63.621 55.3816 64.9397 54.9507 66.2729C53.5738 65.4379 51.9746 64.879 50.6245 63.9936C49.5548 63.2457 48.5337 62.4305 47.5676 61.5528C47.6933 61.2936 47.722 60.9979 47.6485 60.7194C47.575 60.4409 47.4042 60.1979 47.167 60.0344ZM64.7208 46.9482C63.5122 45.918 62.115 45.0426 60.8457 44.1202C59.7931 43.3593 58.7416 42.5962 57.6912 41.8308C57.6683 41.775 57.6413 41.721 57.6104 41.6692C57.306 41.1502 57.0317 40.614 56.7889 40.0633C58.0581 40.8276 59.3341 41.575 60.6303 42.2921C62.3574 43.2482 64.1787 44.477 66.091 44.9854C66.1179 44.9871 66.1449 44.9871 66.1718 44.9854L66.0843 45.0931C65.6163 45.7092 65.1652 46.3253 64.7208 46.9482ZM114.951 8.23151C114.71 10.2995 114.614 12.3818 114.662 14.4632C114.662 16.7929 114.531 19.3583 115.056 21.6376C114.264 21.6533 113.478 21.6802 112.699 21.7184C112.288 19.6344 111.948 17.5336 111.719 15.4193C111.571 14.0727 111.612 12.5812 111.42 11.1807C111.782 10.478 112.282 9.85467 112.888 9.34713C113.494 8.83959 114.196 8.45803 114.951 8.22478V8.23151ZM108.511 14.7393C108.622 14.9036 108.772 15.0385 108.947 15.1324C109.122 15.2263 109.317 15.2763 109.516 15.2783C109.714 15.2803 109.91 15.2341 110.087 15.1438C110.264 15.0534 110.416 14.9216 110.531 14.7595C110.588 15.2173 110.649 15.6651 110.696 16.1061C110.908 18.0117 111.208 19.9037 111.571 21.7857C110.989 21.8227 110.41 21.8598 109.831 21.9035C109.366 21.9372 108.898 21.981 108.43 22.0214C107.915 18.5975 107.292 15.0389 106.218 11.7295C107.042 12.6864 107.807 13.6914 108.511 14.7393ZM104.979 10.3626C104.955 10.4352 104.948 10.5125 104.959 10.5882C105.633 14.443 106.595 18.2507 107.316 22.1022C106.643 22.1695 105.949 22.2368 105.266 22.3143C104.73 19.7522 104.121 17.207 103.538 14.6551C103.02 12.4095 102.347 10.1303 102.054 7.82751C103.102 8.58588 104.081 9.43533 104.979 10.366V10.3626ZM101.027 7.14071C101.101 9.54115 101.835 11.9382 102.35 14.2578C102.953 16.9848 103.525 19.7219 104.171 22.4422C103.437 22.5331 102.704 22.6307 101.97 22.7418C101.084 19.4964 99.3604 16.3283 98.1248 13.1872C97.0913 10.5545 96.1655 7.86118 95.0376 5.26211C97.1675 5.33627 99.2374 5.98668 101.027 7.14408V7.14071ZM91.1323 6.06001C92.1283 5.63516 93.187 5.37588 94.2666 5.29241C95.0915 8.29211 96.2867 11.211 97.4044 14.103C98.5221 16.9949 99.5052 20.2168 101.088 22.89C99.7409 23.1122 98.4279 23.3613 97.1115 23.6643C95.8961 20.8094 94.5831 17.9915 93.4553 15.0928C92.3275 12.1941 91.3141 9.34925 90.2233 6.48421C90.518 6.32572 90.8215 6.1841 91.1323 6.06001ZM89.6173 6.86128C91.047 12.7874 93.1455 18.5319 95.8726 23.9841C95.0376 24.1962 94.2061 24.4252 93.3846 24.681C90.6374 20.4424 87.971 16.2374 85.5369 11.8204C86.3947 9.80657 87.8105 8.08005 89.6173 6.84445V6.86128ZM85.0319 13.0324C85.7322 14.9177 86.8432 16.6886 87.8936 18.3584C89.3076 20.6006 90.7518 22.826 92.1928 25.0514L92.0144 25.112C90.9707 25.4711 89.9416 25.874 88.9271 26.3206C87.9575 24.7495 86.9834 23.1784 86.0049 21.6073C85.3012 20.4828 84.6346 19.291 83.8434 18.2069C84.0321 16.4409 84.4311 14.7037 85.0319 13.0324ZM81.6888 21.008C81.856 21.1677 82.066 21.2754 82.2932 21.3181C82.5205 21.3608 82.7552 21.3367 82.969 21.2487C83.1828 21.1607 83.3665 21.0125 83.4978 20.8222C83.6291 20.6319 83.7024 20.4076 83.7088 20.1764C83.7088 20.136 83.7088 20.0956 83.7088 20.0552C84.1431 20.7757 84.6077 21.4827 85.0555 22.1931C85.9981 23.7305 86.9442 25.2657 87.8936 26.7987C86.7018 27.3373 85.5414 27.9433 84.4124 28.6167C84.0757 26.6472 83.022 24.6642 82.2443 22.826C81.9548 22.1527 81.6753 21.4524 81.3656 20.7757C81.4733 20.843 81.5844 20.9205 81.6888 21.008ZM79.6991 19.6142C80.1704 21.1393 80.9515 22.6274 81.5474 24.0683C82.2207 25.6843 82.6954 27.4855 83.6112 28.9735C83.6274 28.9972 83.6467 29.0187 83.6684 29.0375C83.0725 29.3944 82.4799 29.7613 81.8975 30.1418C81.1939 27.7548 79.4028 25.5193 78.0494 23.5027C76.7937 21.6308 75.6086 19.355 74.0868 17.5774C76.0661 17.9086 77.9681 18.5989 79.6991 19.6142ZM72.8816 17.4124C73.8377 19.6647 75.6018 21.7621 76.9216 23.7653C78.3962 26.0109 79.6149 28.4786 81.0828 30.6872C80.2849 31.2292 79.5038 31.7948 78.7261 32.3705C76.3694 29.8489 74.5515 26.9401 72.4742 24.1861C70.7707 21.9237 68.68 20.0148 66.8283 17.8837C68.8021 17.3687 70.8518 17.2091 72.8816 17.4124ZM65.788 18.1968C66.3489 19.0598 67.0063 19.8561 67.7474 20.5703C69.1495 21.9594 70.4534 23.4443 71.6494 25.0143C73.6694 27.7346 75.4335 30.6636 77.7969 33.0943C76.9485 33.7677 76.117 34.4623 75.3022 35.1783C74.6289 33.8114 73.4337 32.6499 72.4574 31.475C71.306 30.1059 70.1333 28.7592 68.9392 27.435C66.697 24.9403 64.4111 22.385 61.8692 20.1562C63.0728 19.3153 64.3931 18.6551 65.788 18.1968ZM60.3677 21.4019C60.6067 21.1763 60.8592 20.9609 61.1151 20.7555C63.3169 23.2233 65.6937 25.5429 67.8989 28.014C69.0211 29.2664 70.1198 30.5346 71.1949 31.8184C72.2857 33.1213 73.2889 34.7406 74.612 35.8112C73.7524 36.5901 72.9153 37.3902 72.1005 38.2117C71.2488 36.9963 69.8516 36.0974 68.7339 35.1312C67.2817 33.8698 65.8486 32.5871 64.4346 31.2831C62.1823 29.2092 60.058 26.7886 57.6138 24.8864C58.3565 23.5965 59.2843 22.4225 60.3677 21.4019ZM57.1761 25.7011C59.0984 28.1386 61.6369 30.2697 63.8623 32.3402C65.1888 33.5724 66.5354 34.7867 67.9023 35.9829C69.02 36.9694 70.1277 38.1982 71.4811 38.8648C70.838 39.5381 70.2051 40.2115 69.589 40.8848C66.8956 39.2015 64.2023 37.5821 61.5763 35.7742C59.5294 34.3602 57.5363 32.8688 55.5163 31.4278C55.7265 29.4358 56.2885 27.4969 57.1761 25.7011ZM55.4187 32.3402C59.4634 36.0368 63.9573 39.2096 68.7944 41.7837C68.0605 42.6366 67.3479 43.4985 66.6566 44.3693C66.6314 44.3083 66.5908 44.255 66.5388 44.2144C64.9632 42.9923 62.9735 42.2382 61.2194 41.2888C59.5159 40.3641 57.8326 39.4091 56.1694 38.4238C55.5495 36.4588 55.295 34.3969 55.4187 32.3402ZM56.0348 43.2482C56.2893 43.3598 56.5728 43.3874 56.844 43.3268C57.1153 43.2663 57.3602 43.1208 57.543 42.9115C58.1591 43.4502 58.8359 43.9215 59.4924 44.4299C60.9703 45.5611 62.455 46.8842 64.0542 47.8908C63.3808 48.8604 62.7378 49.8469 62.1251 50.8501C60.8491 49.0018 58.8729 47.4599 57.2165 45.9887C55.8593 44.7273 54.4123 43.5661 52.8869 42.5143C53.9729 42.5598 55.0407 42.8088 56.0348 43.2482ZM51.7793 42.5311C53.3044 44.1168 55.0517 45.5072 56.6711 46.9886C58.2905 48.4699 59.8156 50.3552 61.6336 51.6581C61.2969 52.2035 60.9804 52.749 60.6673 53.3011C59.1557 51.3922 56.7148 49.8065 54.8598 48.4295C53.5367 47.4431 52.1665 46.5071 50.8972 45.4702C50.1061 44.8305 49.3789 43.972 48.5406 43.3324C49.5674 42.885 50.6624 42.6141 51.7793 42.5311ZM47.6955 43.7667C48.7055 45.7496 51.446 47.3252 53.0822 48.5372C54.5332 49.6146 55.9573 50.7188 57.3208 51.9039C58.2366 52.7018 59.085 53.6748 60.0647 54.4087C59.8391 54.8262 59.6169 55.2436 59.3913 55.6645C54.3683 52.7489 49.2914 49.9411 44.137 47.2478C44.9753 45.7782 46.2079 44.5724 47.6955 43.7667ZM43.8374 47.8774C48.7662 50.9545 53.7859 53.8903 58.8594 56.725C58.6608 57.129 58.4588 57.5296 58.2669 57.9336C55.6113 56.9009 52.9056 56.002 50.16 55.2403C47.9245 54.6006 45.5645 53.8498 43.2213 53.5771C42.8353 51.6558 43.0505 49.6621 43.8374 47.8673V47.8774ZM43.4502 54.54C45.5409 55.2605 47.7494 55.7352 49.8468 56.3748C52.5099 57.1828 55.1191 58.1289 57.7551 59.0143C57.4185 59.7752 57.0818 60.5428 56.7452 61.3137C54.7723 60.5293 52.5671 60.1657 50.5303 59.5765C48.7291 59.0581 46.8977 58.3477 45.0527 57.8932C44.3304 56.8755 43.7884 55.7413 43.4502 54.54ZM46.2849 62.1217C46.3769 62.1402 46.4705 62.1493 46.5644 62.1487C47.5921 63.2475 48.7485 64.2184 50.0084 65.0406C51.3282 65.9429 52.9577 67.0135 54.604 67.3771C54.3212 68.2996 54.0518 69.2254 53.8061 70.158C49.4295 67.3056 44.9002 64.6947 40.2384 62.3372C42.2102 61.7979 44.2806 61.7264 46.2849 62.1285V62.1217ZM39.2957 62.62C44.0293 65.5423 48.8099 68.3905 53.4896 71.407C53.1395 72.848 52.8353 74.3068 52.5772 75.7837C46.7697 72.1241 40.9083 68.5723 35.1615 64.8117C36.4193 63.874 37.8136 63.1348 39.2957 62.62ZM34.34 65.4446C34.3804 65.5218 34.438 65.5886 34.5083 65.6399C40.1172 69.6799 46.0122 73.6223 52.0924 76.9317C50.2041 76.845 48.3118 76.9205 46.4364 77.1573C46.3591 77.0487 46.2513 76.9655 46.1267 76.9183C43.2919 75.8656 40.4785 74.7636 37.6865 73.6122C35.2894 72.6224 32.8654 71.3161 30.3606 70.535C31.315 68.5777 32.6709 66.8433 34.34 65.4446ZM30.0643 71.2185C32.3469 72.72 35.0941 73.7334 37.5619 74.8006C39.7738 75.7601 42.0093 76.6624 44.2616 77.5242C43.1234 77.7523 41.9993 78.0457 40.8949 78.4029C40.5212 78.5241 40.1441 78.6622 39.7704 78.8137C37.8413 78.6858 36.0098 77.9552 34.1683 77.3829C32.4142 76.8374 30.6703 76.3728 28.8893 75.952C29.0398 74.3239 29.436 72.728 30.0643 71.2185ZM28.8186 76.6254C30.5828 77.3492 32.3537 77.9956 34.175 78.5982C35.3938 78.9988 36.6226 79.4601 37.8784 79.7496C36.195 80.7596 34.8484 82.1938 34.4275 84.1768C32.9038 83.97 31.3654 83.8923 29.8286 83.9445C29.0343 81.5901 28.6916 79.1069 28.8186 76.6254ZM30.1653 84.8939C31.5489 84.9439 32.9289 85.0664 34.2996 85.2608C34.2435 86.1986 34.4561 87.1329 34.9123 87.9542C34.6194 88.0148 34.3299 88.0821 34.0437 88.1259C33.3233 88.2403 32.5994 88.3346 31.8857 88.4626C31.2121 87.3234 30.6354 86.1297 30.1619 84.8939H30.1653ZM32.5556 92.5194C32.9039 92.4655 33.2208 92.2873 33.4478 92.0178C35.6368 92.7134 37.8817 93.2192 40.1576 93.5294C41.6558 93.7112 43.164 93.7819 44.6656 93.9468C46.2546 94.1219 47.7494 94.5562 49.3015 94.8424C49.3015 95.2902 49.3015 95.7346 49.3015 96.189C45.5981 95.7749 41.7332 95.9164 38.0197 95.8524C34.5016 95.7985 30.8016 95.5157 27.2633 95.8861C28.4988 94.095 30.3 92.7854 32.5523 92.5194H32.5556Z" fill="#231F20"/>
<path d="M142.043 50.463C142.449 50.137 142.766 49.7132 142.964 49.2313C143.161 48.7494 143.233 48.2252 143.172 47.7079C143.112 47.1907 142.921 46.6972 142.617 46.274C142.314 45.8508 141.908 45.5117 141.437 45.2884C140.94 45.0622 140.386 44.9906 139.848 45.083C137.828 44.8911 136.31 47.1704 137.01 49.0557C137.751 51.0555 140.39 51.8467 142.043 50.463ZM139.542 48.2477C139.582 47.6619 140.06 46.9751 140.669 47.4666C140.776 47.5676 140.855 47.694 140.899 47.8339C140.942 47.9738 140.95 48.1226 140.92 48.2661C140.891 48.4097 140.825 48.5434 140.729 48.6544C140.633 48.7655 140.511 48.8503 140.373 48.9008C140.21 48.9528 140.036 48.9642 139.867 48.9343C139.698 48.9044 139.539 48.834 139.404 48.7291C139.483 48.5803 139.53 48.4162 139.542 48.2477Z" fill="#231F20"/>
<path d="M83.1565 46.8674C82.9866 46.7835 82.7939 46.7575 82.6078 46.7933C82.4765 46.8169 82.3485 46.8472 82.2206 46.8808C81.7289 46.9488 81.2641 47.1463 80.8739 47.4532C79.8808 48.0726 79.1906 49.0591 79.2882 50.3586C79.47 52.5335 81.5843 53.5401 83.5168 52.7355C85.1597 52.0621 86.5704 50.059 85.5839 48.3049C85.3192 47.8928 84.9619 47.5482 84.5405 47.2986C84.1191 47.0491 83.6452 46.9014 83.1565 46.8674ZM82.8199 50.5707C82.1937 50.9074 81.4496 50.9074 81.4294 50.0388C81.4271 49.7109 81.5471 49.394 81.7661 49.15C82.325 49.15 82.9242 48.9985 83.3787 49.2308C84.0386 49.5876 83.1969 50.3687 82.8199 50.5808V50.5707Z" fill="#231F20"/>
<path d="M103.848 79.184C103.803 79.316 103.786 79.456 103.797 79.5951C103.809 79.7341 103.849 79.8693 103.915 79.992C104.757 87.8262 110.033 94.4687 117.668 97.4515C121.995 99.1517 127.048 99.5456 131.401 97.7209C135.963 95.8086 138.976 91.6339 140.932 87.2371C143.067 82.4492 144.072 77.2346 143.871 71.9962C143.672 67.1414 142.639 61.7581 139.07 58.1928C135.613 54.7487 130.63 53.4391 125.94 52.8668C121.382 52.3113 115.029 52.1934 112.285 56.5028C110.995 57.7158 109.895 59.115 109.019 60.6539C106.388 65.0945 104.671 70.0166 103.969 75.1305C103.798 76.4746 103.757 77.8321 103.848 79.184ZM127.26 55.4322C129.172 55.7151 131.045 56.2225 132.839 56.9438C132.707 57.7759 132.635 58.6164 132.623 59.4587C132.566 60.3778 132.727 61.8154 132.364 62.6638C131.802 63.9801 129.953 63.6266 128.809 63.6536C128.068 63.6715 127.33 63.6715 126.593 63.6536C127.068 61.0074 127.539 58.1356 127.26 55.4322ZM120.456 61.1555C120.56 59.0345 121.052 57.0078 121.399 54.9339C122.699 54.9309 123.999 55.0085 125.29 55.1662C124.826 57.9269 124.809 60.7986 124.344 63.566C123.402 63.5028 122.464 63.3803 121.537 63.1991C120.19 62.9365 120.402 62.4685 120.463 61.1589L120.456 61.1555ZM113.086 84.5774C114.22 85.5811 115.252 86.6941 116.167 87.9003C117.062 89.0786 117.715 90.4994 118.81 91.5094C118.95 91.6428 119.129 91.7272 119.321 91.7498C119.513 91.7725 119.707 91.7321 119.874 91.6349C120.041 91.5377 120.172 91.3889 120.247 91.2108C120.323 91.0327 120.338 90.835 120.291 90.6475C119.954 89.0113 118.759 87.5771 117.753 86.2708C116.691 84.885 115.476 83.6245 114.13 82.5136C118.459 82.352 122.755 82.5136 126.789 84.436C128.803 85.379 130.617 86.7015 132.132 88.3312C132.839 89.1029 133.457 89.9522 133.973 90.863C134.286 91.4084 134.495 92.0043 134.771 92.5463C134.233 93.1107 133.649 93.6287 133.024 94.095C129.593 96.657 125.125 97.0644 121.045 96.115C113.686 94.3778 107.494 88.3918 106.232 80.9481C108.743 81.7393 110.999 82.7358 113.086 84.5774Z" fill="#231F20"/>
<path d="M67.138 53.3347C65.0405 55.9978 63.5525 59.2163 62.2361 62.3237C60.9197 65.4312 59.8996 68.6834 59.5933 72.0871C59.5933 72.2891 59.8963 72.3295 59.9299 72.1342C60.7873 68.7245 61.9513 65.3992 63.4077 62.1992C64.7544 59.3038 66.4781 56.5869 67.6093 53.6074C67.7238 53.3549 67.3332 53.1092 67.138 53.3347Z" fill="#231F20"/>
<path d="M149.904 57.2906C150.409 59.1995 150.635 61.3575 151.497 63.1351C151.668 63.4886 152.17 63.2934 152.194 62.9466C152.278 60.8862 151.443 58.644 150.891 56.6745C150.315 54.6174 149.722 52.5604 148.783 50.6381C148.608 50.2778 148.11 50.5404 148.17 50.8939C148.618 53.0587 149.335 55.1561 149.904 57.2906Z" fill="#231F20"/>
<path d="M152.173 66.8149C152.335 67.5623 152.547 68.2962 152.692 69.0436C152.837 69.791 152.83 70.5822 153.116 71.2757C153.14 71.3396 153.183 71.3946 153.24 71.4334C153.296 71.4722 153.363 71.493 153.431 71.493C153.499 71.493 153.566 71.4722 153.622 71.4334C153.678 71.3946 153.721 71.3396 153.746 71.2757C154.234 69.8449 153.503 67.7979 152.709 66.5893C152.673 66.5279 152.616 66.4816 152.548 66.4591C152.481 66.4366 152.408 66.4395 152.342 66.4671C152.276 66.4947 152.223 66.5452 152.192 66.6092C152.161 66.6732 152.154 66.7463 152.173 66.8149Z" fill="#231F20"/>
<path d="M81.507 155.048C80.3422 158.153 80.2849 161.782 79.514 165.027C79.3187 165.852 76.3628 174.932 76.0126 174.71C75.8308 174.592 75.676 174.868 75.8477 174.993C77.3391 176.12 79.5746 168.986 79.854 168.077C80.4889 165.948 81.007 163.786 81.406 161.6C81.7966 159.526 82.3622 157.277 82.2208 155.153C82.2224 155.064 82.1917 154.978 82.1344 154.911C82.0772 154.844 81.9973 154.799 81.9098 154.787C81.8223 154.774 81.7331 154.793 81.659 154.842C81.5849 154.89 81.5308 154.963 81.507 155.048Z" fill="#231F20"/>
<path d="M82.0792 144.851C81.7426 145.76 81.7729 146.75 81.7426 147.706C81.6521 148.661 81.6747 149.624 81.8099 150.574C81.8359 150.642 81.882 150.701 81.9421 150.743C82.0022 150.784 82.0735 150.806 82.1466 150.806C82.2196 150.806 82.2909 150.784 82.351 150.743C82.4111 150.701 82.4572 150.642 82.4832 150.574C82.7526 149.645 82.729 148.665 82.7694 147.706C82.8098 146.746 82.8973 145.783 82.6516 144.851C82.6294 144.793 82.5902 144.743 82.5391 144.708C82.488 144.673 82.4274 144.654 82.3654 144.654C82.3034 144.654 82.2428 144.673 82.1917 144.708C82.1406 144.743 82.1014 144.793 82.0792 144.851Z" fill="#231F20"/>
<path d="M143.194 158.977C142.107 162.142 140.787 165.233 139.515 168.327C139.424 168.545 139.781 168.683 139.892 168.485C141.652 165.446 143.147 162.26 144.359 158.964C145.369 156.099 146.837 152.362 146.282 149.291C146.218 148.955 145.763 149.029 145.662 149.291C145.036 150.87 144.952 152.658 144.565 154.321C144.194 155.897 143.72 157.446 143.194 158.977Z" fill="#231F20"/>
<path d="M146.113 144.635C146.161 144.868 146.477 144.827 146.541 144.635C147.083 143.06 147.285 140.518 146.692 138.946C146.674 138.883 146.637 138.828 146.585 138.789C146.533 138.75 146.47 138.729 146.405 138.729C146.34 138.729 146.276 138.75 146.225 138.789C146.173 138.828 146.135 138.883 146.117 138.946C145.858 139.858 145.955 140.858 145.959 141.801C145.921 142.748 145.972 143.697 146.113 144.635Z" fill="#231F20"/>
</svg>
